<?xml version="1.0" encoding="utf-8"?>
<!-- Generator: Adobe Illustrator 24.0.2, SVG Export Plug-In . SVG Version: 6.00 Build 0)  -->
<svg version="1.1" id="Layer_1" xmlns="http://www.w3.org/2000/svg" xmlns:xlink="http://www.w3.org/1999/xlink" x="0px" y="0px"
	 viewBox="0 0 200 200" style="enable-background:new 0 0 200 200;" xml:space="preserve">
<style type="text/css">
	.st0{fill:#009934;}
</style>
<path class="st0" d="M184.65,0H15.35C6.87,0,0,6.87,0,15.35v169.3C0,193.13,6.87,200,15.35,200h169.3c8.48,0,15.35-6.87,15.35-15.35
	V15.35C200,6.87,193.13,0,184.65,0z M196,184.65c0,6.26-5.09,11.35-11.35,11.35H15.35C9.09,196,4,190.91,4,184.65V15.35
	C4,9.09,9.09,4,15.35,4h169.3C190.91,4,196,9.09,196,15.35V184.65z"/>
<g>
	<polygon class="st0" points="105.13,132.96 86.25,132.96 40,67.04 58.88,67.04 	"/>
	<polygon class="st0" points="133.72,132.96 114.84,132.96 68.59,67.04 87.47,67.04 	"/>
	<path class="st0" d="M152.26,100c4.67-3.28,7.74-8.71,7.74-14.84c0-9.99-8.13-18.12-18.12-18.12h-24.04v29.67v1.69l13.35,19.03
		v-15.91l13.39,9.4c0.62,0.43,2.06,1.68,2.06,3.91c0,2.63-2.14,4.76-4.77,4.76h-9.17l9.36,13.34c9.9-0.11,17.92-8.18,17.92-18.11
		C160,108.71,156.94,103.28,152.26,100z M131.2,98.47V80.4h10.68c2.63,0,4.77,2.14,4.77,4.76c0,2.22-1.44,3.47-2.06,3.91"/>
</g>
</svg>
