<?xml version="1.0" encoding="utf-8"?>
<!-- Generator: Adobe Illustrator 24.0.2, SVG Export Plug-In . SVG Version: 6.00 Build 0)  -->
<svg version="1.1" xmlns="http://www.w3.org/2000/svg" xmlns:xlink="http://www.w3.org/1999/xlink" x="0px" y="0px"
	 viewBox="0 0 737.5 243.6" style="enable-background:new 0 0 737.5 243.6;" xml:space="preserve">
<style type="text/css">
	.st0{display:none;}
	.st1{display:inline;}
	.st2{fill:#754C29;}
	.st3{display:none;fill:none;stroke:#00A651;stroke-miterlimit:10;}
	.st4{display:none;fill:none;stroke:#FFFFFF;stroke-width:11;stroke-miterlimit:10;}
	.st5{display:none;fill:#FFFFFF;}
	.st6{display:inline;fill:#FFFFFF;}
	.st7{fill:#FFFFFF;}
	.st8{display:none;fill:none;stroke:#BE1E2D;stroke-miterlimit:10;}
	.st9{display:none;fill:none;stroke:#27AAE1;stroke-width:0.25;stroke-miterlimit:10;}
	.st10{display:none;fill:#037BC8;}
	.st11{fill:#D9D9D9;}
	.st12{fill:#009934;}
	.st13{display:inline;fill:none;stroke:#EC008C;stroke-miterlimit:10;}
</style>
<g id="Layer_1">
	<path class="st10" d="M506,105.6c0,2.4-1.9,4.3-4.3,4.3c-2.4,0-4.3-1.9-4.3-4.3s1.9-4.3,4.3-4.3C504.1,101.3,506,103.2,506,105.6z
		 M551.3,56.1v98.7h-25.5v-6.2c-7.1,4-15.3,6.3-24.1,6.3c-27.2,0-49.3-22.1-49.3-49.3s22.1-49.3,49.3-49.3c8.8,0,17,2.3,24.1,6.3
		v-6.4H551.3z M505.2,88.7c6.7,1.4,12,6.7,13.4,13.4h10.6l-1-5.5c-3.4-10-12.2-17.4-23-18.8V88.7z M467.9,102.1
		c1.6-16,14.4-28.7,30.3-30.3v-11c-22,1.7-39.6,19.3-41.4,41.4H467.9z M473.9,102.1h10.9c1.4-6.7,6.7-12,13.4-13.4V77.8
		C485.5,79.4,475.5,89.4,473.9,102.1z M498.2,122.4c-6.7-1.4-12-6.7-13.4-13.4h-10.9c1.6,12.7,11.6,22.7,24.3,24.3V122.4z
		 M504.4,115.7c0.3-0.1,0.5-0.2,0.8-0.2c3-1.1,5.3-3.4,6.4-6.4c0.1-0.3,0.2-0.5,0.2-0.8c0,0,0-0.1,0-0.1c0.1-0.2,0.1-0.5,0.2-0.7
		c0-0.1,0-0.2,0.1-0.4c0-0.2,0.1-0.4,0.1-0.5c0-0.3,0-0.6,0-1c0-0.3,0-0.7,0-1c0-0.2,0-0.4-0.1-0.5c0-0.1,0-0.2-0.1-0.4
		c0-0.2-0.1-0.5-0.2-0.7c0,0,0-0.1,0-0.1c-0.1-0.3-0.2-0.5-0.2-0.8c-1.1-3-3.4-5.3-6.4-6.4c-0.3-0.1-0.5-0.2-0.8-0.2
		c0,0-0.1,0-0.1,0c-0.2-0.1-0.5-0.1-0.7-0.2c-0.1,0-0.2,0-0.4-0.1c-0.2,0-0.4-0.1-0.5-0.1c-0.3,0-0.6,0-1,0s-0.7,0-1,0
		c-0.2,0-0.4,0-0.5,0.1c-0.1,0-0.2,0-0.4,0.1c-0.2,0-0.5,0.1-0.7,0.2c0,0-0.1,0-0.1,0c-0.3,0.1-0.5,0.2-0.8,0.2
		c-3,1.1-5.3,3.4-6.4,6.4c-0.1,0.3-0.2,0.5-0.2,0.8c0,0,0,0.1,0,0.1c-0.1,0.2-0.1,0.5-0.2,0.7c0,0.1,0,0.2-0.1,0.4
		c0,0.2-0.1,0.4-0.1,0.5c0,0.3,0,0.6,0,1c0,0.3,0,0.7,0,1c0,0.2,0,0.4,0.1,0.5c0,0.1,0,0.2,0.1,0.4c0,0.2,0.1,0.5,0.2,0.7
		c0,0,0,0.1,0,0.1c0.1,0.3,0.2,0.5,0.2,0.8c1.1,3,3.4,5.3,6.4,6.4c0.3,0.1,0.5,0.2,0.8,0.2c0,0,0.1,0,0.1,0c0.2,0.1,0.5,0.1,0.7,0.2
		c0.1,0,0.2,0,0.4,0.1c0.2,0,0.4,0.1,0.5,0.1c0.3,0,0.6,0,1,0s0.7,0,1,0c0.2,0,0.4,0,0.5-0.1c0.1,0,0.2,0,0.4-0.1
		c0.2,0,0.5-0.1,0.7-0.2C504.3,115.7,504.4,115.7,504.4,115.7z M529.4,109.1h-10.8c-1.4,6.7-6.7,12-13.4,13.4v10.9
		c11.4-1.4,20.7-9.8,23.5-20.7L529.4,109.1z"/>
	<g>
		<path class="st11" d="M503.5,163.6v-25.5l4.1-23.1l-4.1-22.8V65H529v98.7H503.5z"/>
		<path class="st11" d="M346,71.3c-10.5,0-20.2,3.6-27.8,9.7V43.1h-25.7v120.5h25.5v-12.2c7.7,6.1,17.4,9.8,28,9.8
			c24.8,0,44.9-20.1,44.9-44.9S370.8,71.3,346,71.3z M346,141.1c-13.7,0-24.8-11.1-24.8-24.8c0-13.7,11.1-24.8,24.8-24.8
			s24.8,11.1,24.8,24.8C370.8,130,359.7,141.1,346,141.1z"/>
		<rect x="398.1" y="43.1" class="st11" width="25.7" height="120.5"/>
		<path class="st11" d="M691.5,68.9v22.6h-22.2v72.2h-25.7V91.5h-22.2V68.9h22.2V43.1h25.7v25.8H691.5z M569,88.4
			c2-1.2,4.9-1.8,8.7-1.8c4.2,0,8.1,0.8,11.7,2.4c3.6,1.6,6.8,4.1,9.7,7.6l15.5-15.5c-4.2-5.5-9.4-9.6-15.8-12.4
			c-6.3-2.7-13.4-4.1-21.3-4.1c-7.5,0-13.9,1.2-19.4,3.7c-5.5,2.5-9.7,6-12.6,10.4c-2.9,4.4-4.4,9.7-4.4,15.7c0,5.8,1.1,10.4,3.4,14
			c2.3,3.6,5.3,6.4,8.9,8.4c3.7,2,7.5,3.7,11.5,4.9c4,1.2,7.8,2.4,11.5,3.3c3.7,1,6.6,2.2,8.9,3.6c2.3,1.4,3.4,3.5,3.4,6.1
			c0,2.4-1.1,4.1-3.2,5.3s-5.3,1.8-9.5,1.8c-5.2,0-10-0.9-14.3-2.7c-4.3-1.8-8.1-4.6-11.4-8.2L535,146.5c3.1,3.7,6.9,6.8,11.2,9.3
			c4.3,2.5,9.1,4.5,14.2,6c5.2,1.4,10.4,2.2,15.8,2.2c11.5,0,20.6-2.7,27.3-8.1c6.7-5.4,10-12.8,10-22.1c0-5.8-1.1-10.5-3.4-14.1
			c-2.3-3.7-5.2-6.6-8.8-8.8c-3.6-2.2-7.4-4-11.4-5.2c-4-1.2-7.8-2.4-11.5-3.3c-3.7-1-6.6-2.1-8.9-3.4c-2.3-1.3-3.4-3.1-3.4-5.5
			C565.9,91.2,567,89.6,569,88.4z"/>
		<g>
			<path class="st11" d="M479.4,65.1c-27.2,0-49.3,22.1-49.3,49.3s22.1,49.3,49.3,49.3c27.2,0,49.3-22.1,49.3-49.3
				S506.7,65.1,479.4,65.1z M482.9,86.7c12.7,1.6,22.7,11.6,24.3,24.3h-10.9c-1.4-6.7-6.7-12-13.4-13.4V86.7z M479.4,86.4
				C479.4,86.4,479.4,86.4,479.4,86.4L479.4,86.4C479.4,86.4,479.4,86.4,479.4,86.4z M434.6,110.9c1.7-22,19.3-39.7,41.4-41.4v11
				c-16,1.6-28.7,14.4-30.3,30.3H434.6z M475.9,86.7v10.9c-6.7,1.4-12,6.7-13.4,13.4h-10.9C453.3,98.3,463.3,88.2,475.9,86.7z
				 M475.9,142.2c-12.7-1.6-22.7-11.6-24.3-24.3h10.9c1.4,6.7,6.7,12,13.4,13.4V142.2z M482,124.6c-0.2,0.1-0.5,0.1-0.7,0.2
				c-0.1,0-0.2,0-0.4,0.1c-0.2,0-0.4,0.1-0.5,0.1c-0.3,0-0.6,0-1,0s-0.7,0-1,0c-0.2,0-0.4,0-0.5-0.1c-0.1,0-0.2,0-0.4-0.1
				c-0.2,0-0.5-0.1-0.7-0.2c0,0-0.1,0-0.1,0c-0.3-0.1-0.5-0.2-0.8-0.2c-3-1.1-5.3-3.4-6.4-6.4c-0.1-0.3-0.2-0.5-0.2-0.8
				c0,0,0-0.1,0-0.1c-0.1-0.2-0.1-0.5-0.2-0.7c0-0.1,0-0.2-0.1-0.4c0-0.2-0.1-0.4-0.1-0.5c0-0.3,0-0.6,0-1c0-0.3,0-0.7,0-1
				c0-0.2,0-0.4,0.1-0.5c0-0.1,0-0.2,0.1-0.4c0-0.2,0.1-0.5,0.2-0.7c0,0,0-0.1,0-0.1c0.1-0.3,0.2-0.5,0.2-0.8c1.1-3,3.4-5.3,6.4-6.4
				c0.3-0.1,0.5-0.2,0.8-0.2c0,0,0.1,0,0.1,0c0.2-0.1,0.5-0.1,0.7-0.2c0.1,0,0.2,0,0.4-0.1c0.2,0,0.4-0.1,0.5-0.1c0.3,0,0.6,0,1,0
				s0.7,0,1,0c0.2,0,0.4,0,0.5,0.1c0.1,0,0.2,0,0.4,0.1c0.2,0,0.5,0.1,0.7,0.2c0,0,0.1,0,0.1,0c0.3,0.1,0.5,0.2,0.8,0.2
				c3,1.1,5.3,3.4,6.4,6.4c0.1,0.3,0.2,0.5,0.2,0.8c0,0,0,0.1,0,0.1c0.1,0.2,0.1,0.5,0.2,0.7c0,0.1,0,0.2,0.1,0.4
				c0,0.2,0.1,0.4,0.1,0.5c0,0.3,0,0.6,0,1c0,0.3,0,0.7,0,1c0,0.2,0,0.4-0.1,0.5c0,0.1,0,0.2-0.1,0.4c0,0.2-0.1,0.5-0.2,0.7
				c0,0,0,0.1,0,0.1c-0.1,0.3-0.2,0.5-0.2,0.8c-1.1,3-3.4,5.3-6.4,6.4c-0.3,0.1-0.5,0.2-0.8,0.2C482.1,124.5,482.1,124.6,482,124.6z
				 M482.9,142.2v-10.9c6.7-1.4,12-6.7,13.4-13.4h10.9C505.6,130.6,495.6,140.6,482.9,142.2z"/>
			<circle class="st11" cx="479.4" cy="114.4" r="4.3"/>
		</g>
		<g>
			<path class="st11" d="M128.6,208.2c-1.7,0-3.2-0.3-4.4-0.8c-1.2-0.6-2.4-1.4-3.4-2.6l3-3c0.7,0.8,1.4,1.4,2.2,1.8
				c0.8,0.4,1.8,0.6,2.9,0.6c1,0,1.7-0.2,2.3-0.5c0.5-0.4,0.8-0.8,0.8-1.5c0-0.6-0.2-1-0.5-1.4c-0.4-0.4-0.8-0.7-1.4-0.9
				c-0.6-0.3-1.2-0.5-1.9-0.7c-0.7-0.2-1.4-0.5-2.1-0.8c-0.7-0.3-1.3-0.7-1.9-1.2c-0.6-0.5-1-1-1.4-1.7c-0.4-0.7-0.5-1.6-0.5-2.6
				c0-1.3,0.3-2.4,0.9-3.3c0.6-0.9,1.5-1.6,2.6-2.1s2.4-0.7,3.8-0.7c1.5,0,2.8,0.3,4,0.8c1.2,0.5,2.2,1.2,3,2.1l-3,3
				c-0.6-0.7-1.3-1.1-1.9-1.4c-0.6-0.3-1.4-0.5-2.2-0.5c-0.8,0-1.4,0.2-1.9,0.5c-0.5,0.3-0.7,0.7-0.7,1.3c0,0.5,0.2,1,0.5,1.3
				c0.4,0.3,0.8,0.6,1.4,0.8c0.6,0.2,1.2,0.5,1.9,0.7c0.7,0.2,1.4,0.5,2.1,0.8c0.7,0.3,1.3,0.7,1.9,1.2c0.6,0.5,1,1.1,1.4,1.8
				c0.4,0.7,0.5,1.7,0.5,2.7c0,2-0.7,3.6-2.1,4.7C133,207.6,131.1,208.2,128.6,208.2z"/>
			<path class="st11" d="M149.2,191v-4h17.7v4H149.2z M155.7,207.9v-20.6h4.6v20.6H155.7z"/>
			<path class="st11" d="M181.3,207.9V187h4.6v20.9H181.3z M184.8,199.3v-3.4h4.4c0.9,0,1.6-0.2,2.1-0.7c0.5-0.5,0.8-1.1,0.8-1.9
				c0-0.7-0.2-1.4-0.7-1.9c-0.5-0.5-1.2-0.7-2.1-0.7h-4.4V187h5c1.4,0,2.6,0.3,3.6,0.8c1,0.5,1.9,1.2,2.5,2.2c0.6,0.9,0.9,2,0.9,3.2
				c0,1.2-0.3,2.3-0.9,3.2c-0.6,0.9-1.4,1.6-2.5,2.1c-1.1,0.5-2.3,0.8-3.8,0.8H184.8z M192.6,207.9l-6.5-9l4.3-1.2l7.7,10.1H192.6z"
				/>
			<path class="st11" d="M209.8,207.9L218,187h4.2l8.2,20.9h-4.9l-6.3-17.3h1.7l-6.4,17.3H209.8z M214.5,204.1v-3.8h11.4v3.8H214.5z
				"/>
			<path class="st11" d="M240.7,191v-4h17.7v4H240.7z M247.2,207.9v-20.6h4.6v20.6H247.2z"/>
			<path class="st11" d="M272.8,207.9V187h4.6v20.9H272.8z M276.4,191v-4h11.3v4H276.4z M276.4,199.1v-3.9h10.4v3.9H276.4z
				 M276.4,207.9v-4h11.4v4H276.4z"/>
			<path class="st11" d="M312.3,208.2c-1.5,0-2.9-0.3-4.3-0.8c-1.3-0.6-2.5-1.3-3.5-2.3c-1-1-1.8-2.1-2.3-3.4
				c-0.6-1.3-0.8-2.7-0.8-4.2c0-1.5,0.3-2.9,0.9-4.2c0.6-1.3,1.4-2.4,2.4-3.4c1-1,2.2-1.7,3.6-2.3c1.4-0.5,2.8-0.8,4.4-0.8
				c1.8,0,3.4,0.3,4.9,1c1.5,0.7,2.7,1.5,3.7,2.7l-3.2,3.2c-0.7-0.9-1.5-1.5-2.4-2c-0.9-0.4-1.9-0.7-3.1-0.7c-1.2,0-2.3,0.3-3.3,0.8
				c-1,0.5-1.7,1.3-2.3,2.3c-0.5,1-0.8,2.1-0.8,3.4c0,1.3,0.3,2.4,0.8,3.4c0.5,1,1.3,1.8,2.2,2.3c0.9,0.6,2,0.8,3.2,0.8
				c1.2,0,2.3-0.2,3.1-0.7c0.9-0.5,1.5-1.1,2-2c0.5-0.9,0.7-1.9,0.7-3.2l3.1,2.1l-9.3-0.1V196h11v0.7c0,2.5-0.4,4.6-1.3,6.3
				c-0.9,1.7-2.1,3-3.7,3.9C316.2,207.7,314.4,208.2,312.3,208.2z"/>
			<path class="st11" d="M337.5,207.9V187h4.6v20.9H337.5z"/>
			<path class="st11" d="M367.9,208.2c-1.6,0-3-0.3-4.3-0.8c-1.3-0.5-2.5-1.3-3.5-2.3c-1-1-1.8-2.1-2.3-3.4
				c-0.6-1.3-0.8-2.7-0.8-4.2c0-1.5,0.3-2.9,0.8-4.2c0.6-1.3,1.3-2.4,2.3-3.4c1-1,2.1-1.7,3.5-2.3c1.3-0.5,2.8-0.8,4.3-0.8
				c1.7,0,3.1,0.3,4.4,0.8c1.3,0.5,2.4,1.3,3.4,2.2l-3.1,3.1c-0.6-0.6-1.2-1.1-2-1.4c-0.8-0.3-1.7-0.5-2.7-0.5
				c-0.9,0-1.7,0.2-2.5,0.5c-0.8,0.3-1.4,0.7-2,1.3c-0.5,0.6-1,1.3-1.3,2.1c-0.3,0.8-0.5,1.7-0.5,2.7c0,1,0.2,1.9,0.5,2.7
				c0.3,0.8,0.7,1.5,1.3,2.1s1.2,1,2,1.3c0.8,0.3,1.6,0.5,2.5,0.5c1.1,0,2-0.2,2.8-0.5c0.8-0.3,1.5-0.8,2-1.4l3.1,3.1
				c-1,0.9-2.2,1.7-3.4,2.2C371,207.9,369.5,208.2,367.9,208.2z"/>
			<path class="st11" d="M407.6,207.9V187h3.3l8.2,12.8h-1.7l8.2-12.8h3.3v20.9h-4.6v-13l0.8,0.2l-5.3,8.3h-3.1l-5.3-8.3l0.8-0.2v13
				H407.6z"/>
			<path class="st11" d="M444.8,207.9V187h4.6v20.9H444.8z M448.3,191v-4h11.3v4H448.3z M448.3,199.1v-3.9h10.4v3.9H448.3z
				 M448.3,207.9v-4h11.4v4H448.3z"/>
			<path class="st11" d="M480.5,208.2c-1.7,0-3.2-0.3-4.4-0.8c-1.2-0.6-2.4-1.4-3.4-2.6l3-3c0.7,0.8,1.4,1.4,2.2,1.8
				c0.8,0.4,1.8,0.6,2.9,0.6c1,0,1.7-0.2,2.3-0.5c0.5-0.4,0.8-0.8,0.8-1.5c0-0.6-0.2-1-0.5-1.4c-0.4-0.4-0.8-0.7-1.4-0.9
				c-0.6-0.3-1.2-0.5-1.9-0.7c-0.7-0.2-1.4-0.5-2.1-0.8c-0.7-0.3-1.3-0.7-1.9-1.2c-0.6-0.5-1-1-1.4-1.7c-0.4-0.7-0.5-1.6-0.5-2.6
				c0-1.3,0.3-2.4,0.9-3.3c0.6-0.9,1.5-1.6,2.6-2.1c1.1-0.5,2.4-0.7,3.8-0.7c1.5,0,2.8,0.3,4,0.8c1.2,0.5,2.2,1.2,3,2.1l-3,3
				c-0.6-0.7-1.3-1.1-1.9-1.4c-0.6-0.3-1.4-0.5-2.2-0.5s-1.4,0.2-1.9,0.5c-0.5,0.3-0.7,0.7-0.7,1.3c0,0.5,0.2,1,0.5,1.3
				c0.4,0.3,0.8,0.6,1.4,0.8c0.6,0.2,1.2,0.5,1.9,0.7c0.7,0.2,1.4,0.5,2.1,0.8c0.7,0.3,1.3,0.7,1.9,1.2c0.6,0.5,1,1.1,1.4,1.8
				c0.4,0.7,0.5,1.7,0.5,2.7c0,2-0.7,3.6-2.1,4.7C485,207.6,483,208.2,480.5,208.2z"/>
			<path class="st11" d="M509,208.2c-1.7,0-3.2-0.3-4.4-0.8c-1.2-0.6-2.4-1.4-3.4-2.6l3-3c0.7,0.8,1.4,1.4,2.2,1.8
				c0.8,0.4,1.8,0.6,2.9,0.6c1,0,1.7-0.2,2.3-0.5c0.5-0.4,0.8-0.8,0.8-1.5c0-0.6-0.2-1-0.5-1.4c-0.4-0.4-0.8-0.7-1.4-0.9
				c-0.6-0.3-1.2-0.5-1.9-0.7c-0.7-0.2-1.4-0.5-2.1-0.8c-0.7-0.3-1.3-0.7-1.9-1.2c-0.6-0.5-1-1-1.4-1.7c-0.4-0.7-0.5-1.6-0.5-2.6
				c0-1.3,0.3-2.4,0.9-3.3c0.6-0.9,1.5-1.6,2.6-2.1c1.1-0.5,2.4-0.7,3.8-0.7c1.5,0,2.8,0.3,4,0.8c1.2,0.5,2.2,1.2,3,2.1l-3,3
				c-0.6-0.7-1.3-1.1-1.9-1.4c-0.6-0.3-1.4-0.5-2.2-0.5c-0.8,0-1.4,0.2-1.9,0.5c-0.5,0.3-0.7,0.7-0.7,1.3c0,0.5,0.2,1,0.5,1.3
				c0.4,0.3,0.8,0.6,1.4,0.8c0.6,0.2,1.2,0.5,1.9,0.7c0.7,0.2,1.4,0.5,2.1,0.8c0.7,0.3,1.3,0.7,1.9,1.2c0.6,0.5,1,1.1,1.4,1.8
				c0.4,0.7,0.5,1.7,0.5,2.7c0,2-0.7,3.6-2.1,4.7C513.5,207.6,511.5,208.2,509,208.2z"/>
			<path class="st11" d="M529.6,207.9l8.3-20.9h4.2l8.2,20.9h-4.9l-6.3-17.3h1.7l-6.4,17.3H529.6z M534.3,204.1v-3.8h11.4v3.8H534.3
				z"/>
			<path class="st11" d="M573.1,208.2c-1.5,0-2.9-0.3-4.3-0.8c-1.3-0.6-2.5-1.3-3.5-2.3c-1-1-1.8-2.1-2.3-3.4
				c-0.6-1.3-0.8-2.7-0.8-4.2c0-1.5,0.3-2.9,0.9-4.2c0.6-1.3,1.4-2.4,2.4-3.4c1-1,2.2-1.7,3.6-2.3c1.4-0.5,2.8-0.8,4.4-0.8
				c1.8,0,3.4,0.3,4.9,1c1.5,0.7,2.7,1.5,3.7,2.7l-3.2,3.2c-0.7-0.9-1.5-1.5-2.4-2c-0.9-0.4-1.9-0.7-3.1-0.7c-1.2,0-2.3,0.3-3.3,0.8
				c-1,0.5-1.7,1.3-2.3,2.3c-0.5,1-0.8,2.1-0.8,3.4c0,1.3,0.3,2.4,0.8,3.4c0.5,1,1.3,1.8,2.2,2.3c0.9,0.6,2,0.8,3.2,0.8
				c1.2,0,2.3-0.2,3.1-0.7c0.9-0.5,1.5-1.1,2-2c0.5-0.9,0.7-1.9,0.7-3.2l3.1,2.1l-9.3-0.1V196h11v0.7c0,2.5-0.4,4.6-1.3,6.3
				c-0.9,1.7-2.1,3-3.7,3.9C577,207.7,575.1,208.2,573.1,208.2z"/>
			<path class="st11" d="M598.2,207.9V187h4.6v20.9H598.2z"/>
			<path class="st11" d="M618.7,207.9V187h3.3l1.4,4.2v16.7H618.7z M633.1,207.9l-12.3-15.8l1.2-5.1l12.3,15.8L633.1,207.9z
				 M633.1,207.9l-1.2-4.2V187h4.6v20.9H633.1z"/>
			<path class="st11" d="M662.2,208.2c-1.5,0-2.9-0.3-4.3-0.8c-1.3-0.6-2.5-1.3-3.5-2.3c-1-1-1.8-2.1-2.3-3.4
				c-0.6-1.3-0.8-2.7-0.8-4.2c0-1.5,0.3-2.9,0.9-4.2c0.6-1.3,1.4-2.4,2.4-3.4c1-1,2.2-1.7,3.6-2.3c1.4-0.5,2.8-0.8,4.4-0.8
				c1.8,0,3.4,0.3,4.9,1c1.5,0.7,2.7,1.5,3.7,2.7l-3.2,3.2c-0.7-0.9-1.5-1.5-2.4-2c-0.9-0.4-1.9-0.7-3.1-0.7c-1.2,0-2.3,0.3-3.3,0.8
				c-1,0.5-1.7,1.3-2.3,2.3c-0.5,1-0.8,2.1-0.8,3.4c0,1.3,0.3,2.4,0.8,3.4c0.5,1,1.3,1.8,2.2,2.3c0.9,0.6,2,0.8,3.2,0.8
				c1.2,0,2.3-0.2,3.1-0.7c0.9-0.5,1.5-1.1,2-2c0.5-0.9,0.7-1.9,0.7-3.2l3.1,2.1l-9.3-0.1V196h11v0.7c0,2.5-0.4,4.6-1.3,6.3
				c-0.9,1.7-2.1,3-3.7,3.9C666.1,207.7,664.3,208.2,662.2,208.2z"/>
		</g>
		<g>
			<path class="st11" d="M46,31.6v11.6h6.6h6h47.9c8,0,14.7,1.5,20.2,4.4c5.4,2.9,9.5,6.7,12.3,11.5c2.7,4.7,4.1,9.9,4.1,15.5
				c0,6.9-2.1,12.8-6.3,17.8c-2.2,2.7-5,5-8.4,6.9c4.8,2.4,8.7,5.4,11.8,9.1c4.9,5.8,7.3,12.7,7.3,20.8c0,6.4-1.6,12.2-4.7,17.4
				c-3.1,5.2-7.7,9.4-13.7,12.5c-6,3.1-13.3,4.7-21.9,4.7H58.6h-6H46v11.6l27.5-0.1V212l40.9-36.7h161.1V31.6H46z M241.9,163.7
				l-8.5-22.5l-11.3-30L208.8,76l-17.5,45.7l-9.6,25l-6.5,17h-24.4l48.5-120.6h19l48.4,120.6H241.9z"/>
			<path class="st11" d="M58.6,144.7h47.8c5.6,0,10-1.7,13.1-5.1c3.1-3.4,4.7-7.5,4.7-12.2c0-3.2-0.7-6.1-2.1-8.7
				c-1.4-2.6-3.4-4.7-6.1-6.3c-2.7-1.5-5.9-2.3-9.7-2.3H58.6V144.7z"/>
			<path class="st11" d="M119.7,76.7c0-4.9-1.5-8.6-4.4-11c-2.9-2.4-6.8-3.6-11.6-3.6H58.6v29h45.2c4.8,0,8.7-1.2,11.6-3.6
				C118.3,85.2,119.7,81.6,119.7,76.7z"/>
		</g>
	</g>
</g>
<g id="Layer_2" class="st0">
</g>
</svg>
