<?xml version="1.0" encoding="utf-8"?>
<!-- Generator: Adobe Illustrator 24.0.2, SVG Export Plug-In . SVG Version: 6.00 Build 0)  -->
<svg version="1.1" id="Layer_1" xmlns="http://www.w3.org/2000/svg" xmlns:xlink="http://www.w3.org/1999/xlink" x="0px" y="0px"
	 viewBox="0 0 200 200" style="enable-background:new 0 0 200 200;" xml:space="preserve">
<style type="text/css">
	.st0{fill:#009934;}
	.st1{fill:#FFFFFF;}
</style>
<path class="st1" d="M184.65,0H15.35C6.87,0,0,6.87,0,15.35v169.3C0,193.13,6.87,200,15.35,200h169.3c8.48,0,15.35-6.87,15.35-15.35
	V15.35C200,6.87,193.13,0,184.65,0z M196,184.65c0,6.26-5.09,11.35-11.35,11.35H15.35C9.09,196,4,190.91,4,184.65V15.35
	C4,9.09,9.09,4,15.35,4h169.3C190.91,4,196,9.09,196,15.35V184.65z"/>
<g>
	<path class="st1" d="M41.73,171.28c-4.04-1.45-5.56-4.45-5.56-8.59c0.03-39.02,0.01-78.05,0.02-117.07
		c0-7.83,4.27-13.82,11.1-15.67c1.35-0.36,2.71-0.5,4.1-0.5c29.94,0.01,59.87,0,89.81,0.01c8.4,0,14.94,6.36,15.13,14.8
		c0.12,5.44,0.06,10.89,0.02,16.33c-0.02,3.04-1.84,5.08-4.87,5.35c-4,0.36-8.02,0.08-12.03,0.14c-1.8,0.03-3.6,0-5.4,0.01
		c-1.74,0.01-1.82,0.08-1.82,1.77c-0.01,2.31,0.01,4.61-0.01,6.92c-0.01,0.73-0.06,1.48-0.22,2.2c-0.31,1.39-1.6,2.3-2.96,2.19
		c-1.4-0.12-2.52-1.16-2.68-2.55c-0.05-0.41-0.03-0.83-0.03-1.24c0-10.19,0.02-20.39-0.02-30.58c-0.01-3.09,0.7-5.95,2.42-8.51
		c0.73-1.08,0.16-1.07-0.69-1.07c-4.75,0.01-9.5,0.01-14.25,0.01c-20.39,0-40.78,0-61.17,0c-1.67,0-3.33,0.1-4.88,0.79
		c-3.55,1.58-5.35,4.37-5.65,8.19c-0.04,0.5-0.01,1.01-0.01,1.52c0,38.93,0,77.86,0,116.8c0,0.46,0,0.92,0.01,1.38
		c0.02,1.06,0.63,1.6,1.63,1.71c0.55,0.06,1.11,0.04,1.66,0.04c19,0,38.01,0,57.01,0c0.51,0,1.01,0,1.52,0.01
		c1.35,0.01,2.32,0.63,2.76,1.9c0.46,1.32,0.08,2.45-1.02,3.32c-0.18,0.14-0.37,0.28-0.55,0.42
		C83.99,171.28,62.86,171.28,41.73,171.28z M141.31,60.18c2.63,0,5.26-0.02,7.89,0.01c0.85,0.01,1.27-0.23,1.27-1.17
		c-0.03-5.12,0.08-10.24-0.06-15.36c-0.13-4.59-4.34-8.39-9.02-8.42c-4.81-0.02-8.96,3.73-9.08,8.45
		c-0.13,5.07-0.03,10.15-0.07,15.22c-0.01,0.96,0.39,1.29,1.33,1.28C136.14,60.16,138.72,60.18,141.31,60.18z"/>
	<path class="st1" d="M125.05,171.28c-5-0.83-9.78-2.29-14.08-5.05c-9.23-5.92-14.81-14.28-16.17-25.2
		c-2.38-19.09,10.72-36.12,29.66-38.79c18.96-2.67,36.43,10.48,39.18,29.51c2.76,19.03-10.53,36.68-29.63,39.35
		c-0.22,0.03-0.44,0.12-0.66,0.18C130.59,171.28,127.82,171.28,125.05,171.28z M100.4,136.63c-0.32,14.58,11.5,28.85,28.75,28.93
		c16.47,0.07,28.9-13.12,29.01-28.74c0.12-16.02-12.98-29.11-28.96-29.11C113.33,107.71,100.41,120.68,100.4,136.63z"/>
	<path class="st1" d="M64.85,68.13c-1.29,0-2.58,0.02-3.87,0c-4.54-0.08-8.13-3.65-8.24-8.19c-0.04-1.48-0.02-2.95-0.01-4.43
		c0.05-4.56,3.28-8.08,7.81-8.54c2.07-0.21,2.07-0.21,2.13-2.39c0.06-2.2,1.89-3.6,3.81-2.89c1.13,0.42,1.82,1.23,1.91,2.47
		c0.02,0.32,0.06,0.65,0.01,0.97c-0.19,1.34,0.26,1.83,1.72,1.87c4.1,0.1,7.25,2.86,8.08,6.87c0.28,1.37,0.22,2.76,0.09,4.14
		c-0.14,1.38-1.39,2.45-2.73,2.51c-1.36,0.07-2.55-0.86-2.94-2.26c-0.24-0.86-0.15-1.74-0.19-2.61c-0.07-1.83-0.94-2.74-2.74-2.76
		c-2.77-0.03-5.54-0.03-8.3,0c-1.8,0.02-2.68,0.93-2.73,2.75c-0.03,1.15-0.02,2.31-0.01,3.46c0.02,2.42,0.89,3.29,3.37,3.3
		c2.58,0.02,5.17-0.01,7.75,0.01c4.95,0.03,8.53,3.6,8.58,8.56c0.01,1.38,0.02,2.77,0,4.15c-0.06,4.49-3.27,7.99-7.74,8.46
		c-2.11,0.22-2.13,0.22-2.19,2.47c-0.03,1.28-0.55,2.22-1.72,2.76c-1.13,0.53-2.16,0.25-3.08-0.52c-0.77-0.65-0.95-1.52-0.95-2.49
		c0-2.06-0.02-2.06-2.01-2.21c-4.5-0.35-7.85-3.92-7.92-8.44c-0.01-0.78-0.04-1.57,0.03-2.35c0.13-1.51,1.23-2.59,2.68-2.69
		c1.51-0.1,2.63,0.73,3.04,2.25c0.24,0.86,0.13,1.74,0.17,2.61c0.08,1.75,0.94,2.67,2.65,2.69c2.81,0.04,5.63,0.04,8.44,0
		c1.74-0.02,2.62-0.92,2.67-2.66c0.04-1.24,0.03-2.49,0.01-3.74c-0.03-2.12-0.86-3.01-3.01-3.1c-1.52-0.06-3.04-0.01-4.57-0.01
		C64.85,68.14,64.85,68.14,64.85,68.13z"/>
	<path class="st1" d="M151.34,88.01c-0.6,0-1.05,0-1.5,0c-11.35,0-22.7,0.12-34.04-0.05c-5.18-0.08-9.14,3.62-8.93,9
		c0.08,2.17,0.03,4.34,0,6.5c-0.02,1.83-1.05,3.01-2.65,3.12c-1.68,0.11-2.94-0.93-3.1-2.82c-0.28-3.4-0.38-6.85,0.19-10.21
		c1.15-6.72,6.92-11.44,13.81-11.45c11.58-0.03,23.16-0.01,34.74-0.02c0.53,0,1.09,0.15,1.85-0.29c-1.36-1.3-2.65-2.53-3.93-3.77
		c-0.86-0.84-1.73-1.67-2.53-2.56c-1.12-1.25-1.07-2.85,0.04-3.99c1.03-1.05,2.65-1.13,3.91-0.19c0.11,0.08,0.22,0.17,0.32,0.27
		c3.78,3.78,7.59,7.54,11.34,11.36c1.31,1.34,1.29,2.96-0.04,4.32c-3.72,3.78-7.47,7.53-11.25,11.26c-1.27,1.25-3.12,1.27-4.23,0.17
		c-1.2-1.18-1.25-2.82,0.04-4.21c1.59-1.73,3.3-3.35,4.95-5.03C150.67,89.06,151.12,88.79,151.34,88.01z"/>
	<path class="st1" d="M72.55,116.54c-5.99,0-11.98,0-17.97,0c-0.51,0-1.02,0.02-1.52-0.06c-1.38-0.23-2.44-1.41-2.51-2.74
		c-0.08-1.34,0.84-2.57,2.24-2.94c0.48-0.13,1-0.17,1.5-0.17c12.26-0.01,24.51-0.01,36.77-0.01c0.6,0,1.2,0.02,1.77,0.23
		c1.26,0.47,1.92,1.41,1.97,2.73c0.04,1.27-0.81,2.41-2.09,2.76c-0.57,0.15-1.18,0.18-1.77,0.18
		C84.8,116.54,78.67,116.54,72.55,116.54z"/>
	<path class="st1" d="M72.7,99.02c-5.81,0-11.62,0.01-17.44-0.01c-0.78,0-1.57-0.04-2.34-0.18c-1.47-0.27-2.46-1.55-2.37-2.96
		c0.09-1.43,1.21-2.58,2.67-2.72c0.37-0.03,0.74-0.02,1.11-0.02c12.22,0,24.45,0,36.67,0c0.37,0,0.74-0.01,1.11,0.02
		c1.47,0.14,2.61,1.28,2.71,2.69c0.1,1.4-0.89,2.72-2.34,3c-0.72,0.14-1.47,0.17-2.2,0.18C84.41,99.02,78.56,99.02,72.7,99.02z"/>
	<path class="st1" d="M69.89,151.69c-5.17,0-10.33,0-15.5,0c-0.64,0-1.29,0.03-1.91-0.23c-1.22-0.52-1.95-1.44-1.93-2.77
		c0.02-1.33,0.75-2.24,2.01-2.7c0.57-0.21,1.17-0.23,1.77-0.23c10.42,0,20.85,0,31.27,0.01c2.29,0,3.76,1.22,3.73,3.01
		c-0.03,1.77-1.44,2.9-3.67,2.91C80.41,151.7,75.15,151.69,69.89,151.69z"/>
	<path class="st1" d="M69.89,128.28c5.44,0,10.88-0.02,16.32,0.01c2.4,0.02,3.8,2.17,2.79,4.16c-0.42,0.83-1.1,1.37-2.02,1.52
		c-0.72,0.12-1.47,0.18-2.2,0.18c-9.87,0.01-19.73,0.01-29.6,0c-0.6,0-1.2-0.03-1.79-0.11c-1.77-0.25-2.9-1.45-2.84-2.99
		c0.06-1.63,1.31-2.77,3.16-2.78c4.66-0.02,9.31-0.01,13.97-0.01C68.41,128.28,69.15,128.28,69.89,128.28z"/>
	<path class="st1" d="M101.77,54.67c5.03,0,10.05,0.01,15.08,0c1.26,0,2.25,0.48,2.86,1.59c0.54,0.97,0.46,1.95-0.13,2.88
		c-0.44,0.7-1.08,1.15-1.89,1.26c-0.77,0.11-1.56,0.16-2.34,0.16c-9.08,0.01-18.17,0.01-27.25,0c-0.64,0-1.3,0-1.93-0.1
		c-1.68-0.27-2.74-1.5-2.68-3c0.06-1.52,1.37-2.76,3.06-2.78c3.09-0.04,6.18-0.02,9.27-0.02C97.81,54.66,99.79,54.66,101.77,54.67z"
		/>
	<path class="st1" d="M101.77,78.08c-4.98,0-9.96,0.01-14.94-0.01c-1.71-0.01-2.87-0.85-3.25-2.25c-0.37-1.4,0.47-2.91,1.92-3.4
		c0.71-0.24,1.45-0.26,2.19-0.26c9.41,0,18.81,0,28.22,0.01c0.6,0,1.2,0.04,1.78,0.16c1.48,0.32,2.48,1.61,2.39,2.96
		c-0.1,1.46-1.27,2.67-2.81,2.74c-1.7,0.08-3.41,0.03-5.12,0.03C108.69,78.08,105.23,78.08,101.77,78.08z"/>
	<path class="st1" d="M126.34,125.19c0-3.64-0.01-7.29,0-10.93c0-2.16,1.07-3.51,2.8-3.6c1.7-0.09,2.98,1.22,3.04,3.39
		c0.09,3.64,0.04,7.29,0.05,10.93c0,2.44,0.04,4.89-0.02,7.33c-0.03,1.16,0.41,1.52,1.54,1.5c3.46-0.05,6.92-0.03,10.38-0.01
		c2.1,0.01,3.36,1.07,3.38,2.81c0.03,1.77-1.3,2.91-3.44,2.92c-4.75,0.01-9.5,0.01-14.25,0c-2.51-0.01-3.48-1-3.48-3.55
		C126.34,132.39,126.34,128.79,126.34,125.19z"/>
</g>
</svg>
