<?xml version="1.0" encoding="utf-8"?>
<!-- Generator: Adobe Illustrator 24.0.2, SVG Export Plug-In . SVG Version: 6.00 Build 0)  -->
<svg version="1.1" id="Layer_1" xmlns="http://www.w3.org/2000/svg" xmlns:xlink="http://www.w3.org/1999/xlink" x="0px" y="0px"
	 viewBox="0 0 200 200" style="enable-background:new 0 0 200 200;" xml:space="preserve">
<style type="text/css">
	.st0{display:none;fill:#009934;}
	.st1{fill:#FFFFFF;}
</style>
<path class="st0" d="M107.7,164.2c0,1.1-1,2.2-2.2,2.4c-0.4,0.1-0.9,0.1-1.4,0.1c-4.2,0-8.4,0-12.6,0c-1.1,0-1.7,0.2-2.1,1.3
	c-0.3,0.7-0.8,1.3-1.1,2c-0.7,1.6-1.1,3.2-1,5c0.1,1.6,0,3.1,0,4.7c0,1.3-0.4,2.4-1.5,3.1c-0.7,0-1.4,0-2.1,0
	c-1.1-0.9-1.4-2-1.3-3.4c0.1-1.4,0.1-2.8,0-4.3c-0.1-2.9,0.6-5.5,1.9-8c1.5-2.8,2.7-5.8,3.6-8.8c1.2-4.3,1.5-8.6,1.1-12.9
	c-0.3-3.8-1.9-7.1-4.3-10c-2.5-3.1-4.2-6.6-5.1-10.6c-0.3-1.4-0.5-2.8-0.5-4.2c0-6,0-12.1,0-18.1c0-2.3-0.4-4.4-1.6-6.4
	c-2-3.3-5-5.2-8.9-5.4c-1.2-0.1-1.2,0-1.2,1.2c0,1.9,0,3.8,0,5.6c0,11.9,0,23.7,0,35.6c0,0.5,0,0.9,0,1.4c-0.2,1.3-1.4,2.5-2.5,2.4
	c-1.4-0.1-2.3-1.1-2.4-2.6c0-0.1,0-0.3,0-0.5c0-14.1,0-28.3,0-42.4c0-2.2,1-3.8,2.8-4.9c0.8-0.5,1.7-0.7,2.6-0.7c1,0,1-0.1,1-1.1
	c0-4.3,0-8.6,0-12.9c0-0.8,0-1.6,0-2.7c-0.8,1.2-1.4,2.1-2,3c-2.7,4.3-5.4,8.5-8.1,12.8c-1.5,2.3-3.1,4.7-4.5,7
	c-1.9,3.1-3,6.5-3.6,10.1c-0.5,3.5-0.3,7,0.2,10.6c0.4,2.5,0.7,5.1,1,7.7c0.1,0.6,0,1.2-0.3,1.8c-0.5,0.9-1.2,1.3-2.2,1.3
	c-1.1-0.1-1.8-0.6-2.2-1.6c-0.4-0.9-0.3-1.9-0.5-2.8c-0.4-2.8-0.6-5.7-1-8.6c-0.2-1.6-0.3-3.2-0.2-4.8c0.1-4.4,1.2-8.7,3-12.8
	c1-2.4,2.5-4.6,3.9-6.8c4.2-6.6,8.4-13.1,12.6-19.7c1.1-1.7,2.1-3.4,3.3-5.1c0.5-0.7,0.7-1.4,0.7-2.3c0-6.3,0-12.7,0-19
	c-0.1-6.1,4.1-11.3,10.4-12.6c0.3-0.1,0.7-0.1,1.1-0.1c3.9,0,7.8,0,11.7,0c1.6,0,2.4,0.7,2.5,2.1c0.1,1.6-0.7,2.6-2.4,2.6
	c-3.2,0-6.5,0-9.7,0c-1.1,0-2.1,0.2-3.1,0.4c-2.7,0.7-5.5,3.9-5.5,7.2c0.1,15.4,0.1,30.8,0,46.2c0,1,0.3,1.4,1.2,1.8
	c4.9,2.4,7.8,6.5,8.8,11.8c0.1,0.6,0.1,1.2,0.1,1.8c0,5.7,0,11.4,0,17.2c0,0.3,0,0.7,0,1.1c-0.1,0.7,0.3,0.9,0.9,0.9
	c1.7,0,3.3,0,5,0c1.4,0,2.3,0.8,2.5,2c0.3,1.6-0.7,2.8-2.4,2.9c-1.4,0.1-2.7,0-4.1,0c-0.9,0-1,0-0.7,0.9c0.8,2.4,2,4.5,3.6,6.5
	c2.5,3.1,4.2,6.6,5,10.4c0.7,3.3,0.6,6.6,0.3,9.9c-0.3,2.7-0.9,5.4-1.6,8c-0.3,0.9-0.2,0.9,0.7,0.9c3.8,0,7.5,0,11.3,0
	c0.4,0,0.8,0,1.2,0C106.7,162,107.7,163.1,107.7,164.2z M57.8,166.5c-0.3-2.6-0.8-5.1-1.1-7.6c-0.5-3.9-1-7.9-1.5-11.8
	c-0.6-4.3-1-8.5-1.6-12.8c-0.2-1.2-0.1-2.4-0.5-3.6c-0.5-1.4-1.9-2-3.3-1.4c-1,0.4-1.4,1.2-1.3,2.2c0.1,1.4,0.3,2.7,0.4,4.1
	c0.3,2,0.5,4,0.8,6c0.3,2,0.5,4,0.8,6c0.2,1.9,0.5,3.7,0.7,5.6c0.3,2.7,0.5,5.4,1,8.1c0.5,2.8,0.8,5.6,1,8.4
	c0.3,3.2,0.6,6.4,0.4,9.7c-0.1,1.4,0.2,2.6,1.3,3.6c0.8,0,1.6,0,2.4,0c1-1,1.3-2.2,1.3-3.6c0-3.1-0.3-6.2-0.4-9.2
	C58,168.8,57.9,167.6,57.8,166.5z M154.2,91.5c0-0.4,0-0.8,0-1.2c-0.1-1.5-1-2.4-2.4-2.4c-1.4,0-2.4,0.9-2.5,2.4c0,0.4,0,0.9,0,1.4
	c0,20.4,0,40.7,0,61.1c0,0.6,0,1.2,0,1.8c0,1.2-0.4,2.4-1,3.4c-1.5,2.5-3.8,3.8-6.7,3.8c-8.2,0-16.4,0-24.6,0c-0.5,0-0.9,0-1.4,0
	c-1.1,0.1-2,0.9-2.2,2c-0.2,1.1,0.4,2,1.4,2.6c0.6,0.3,1.2,0.3,1.8,0.3c8.3,0,16.5,0,24.8,0c2,0,3.9-0.4,5.7-1.4
	c4.5-2.4,7-6.1,7.1-11.2c0.1-10.4,0-20.9,0-31.3C154.2,112.4,154.2,101.9,154.2,91.5z M102.4,31.7c0.4,0,0.9,0,1.4,0
	c12.3,0,24.6,0,36.9,0c1.6,0,3.3,0.2,4.7,1.1c2.6,1.6,3.9,3.8,3.9,6.9c0,12.8,0,25.6,0,38.5c0,0.7,0,1.3,0.2,1.9
	c0.4,1.2,1.2,1.8,2.4,1.7c1.2,0,2.1-0.8,2.3-2c0.1-0.4,0.1-0.9,0.1-1.4c0-6.5,0-13,0-19.5c0-6.2,0-12.5,0-18.7
	c0-1.2-0.1-2.3-0.3-3.5c-0.5-2.6-1.8-4.8-3.8-6.6c-2.5-2.3-5.6-3.3-9-3.3c-12.5,0.1-25,0-37.5,0c-0.3,0-0.7,0-1.1,0
	c-1.4,0.1-2.2,0.9-2.2,2.4C100.3,30.8,101.1,31.6,102.4,31.7z M110.8,107.4c-0.2,2.1,0,4.2,0,6.2c0,2.1-1.4,3.5-3.6,3.5
	c-2.9,0-5.9,0-8.8,0c-2.7,0-5.5-0.1-8.2,0c-2.2,0.1-3.9-1.7-3.9-3.9c0.1-2,0.1-3.9,0-5.9c-0.1-2.1,1.6-3.8,3.8-3.8
	c5.6,0.1,11.3,0.1,16.9,0C109.1,103.6,110.9,105.4,110.8,107.4z M106.1,110.9c0-0.5,0-0.9,0-1.4c0-1.2,0-1.2-1.3-1.3
	c-3.5,0-7.1,0-10.6,0c-3.5,0.1-2.8-0.7-2.9,3.1c0,1,0,1,1,1c2.1,0,4.2,0,6.2,0c2,0,4.1,0,6.1,0C106.2,112.5,106.1,112.5,106.1,110.9
	z M136,78.6c-0.1,2,0,4.1,0,6.1c0,2-0.1,4.1,0,6.1c0.1,2-0.8,3.8-3.6,4c-2.9,0.2-5.8,0.1-8.7,0c-1.5-0.1-2.7-0.8-3.3-2.3
	c-0.2-0.5-0.2-1-0.2-1.5c0-4.2,0.1-8.3,0-12.4c0-2,1.2-3.6,3.6-3.7c2.8-0.2,5.7-0.1,8.5,0C134.5,74.9,136.1,76.3,136,78.6z
	 M131.3,89.2c0-2.9,0-5.8,0-8.7c0-0.6-0.3-0.8-0.8-0.8c-1.5,0-3,0-4.6,0c-0.7,0-0.9,0.2-0.9,0.9c0,1.4,0,2.8,0,4.3
	c0,1.4,0,2.8,0,4.3c0,0.7,0.3,0.9,0.9,0.9c1.5,0,3,0,4.6,0C131.1,90,131.3,89.8,131.3,89.2z M94.4,67.8c1.4,0,2.8,0,4.3,0
	c2.2,0,3.8,1.5,3.8,3.7c0.1,2.6,0.1,5.2,0,7.7c-0.1,2.3-1.6,3.8-3.9,3.8c-2.8,0.1-5.7,0.1-8.5,0c-2.3,0-3.7-1.6-3.8-3.9
	c0-2.5,0.1-5,0-7.4c-0.1-2.2,1.7-4.1,4-3.9C91.7,67.9,93.1,67.8,94.4,67.8z M92,72.7c-0.5,0-0.8,0.2-0.7,0.7c0,1.3,0,2.6,0,3.9
	c0,0.5,0.2,0.7,0.7,0.7c1.6,0,3.2,0,4.8,0c0.5,0,0.7-0.2,0.7-0.7c0-1.3,0-2.6,0-3.9c0-0.5-0.2-0.8-0.7-0.8c-0.8,0-1.6,0-2.4,0
	S92.8,72.7,92,72.7z M117.9,103.1c0.6,0,1.2,0,1.8,0c0.9,0,0.9,0.1,1,1c0,1.4,0,2.7,0,4.1c0,1.5,0.8,2.3,2.2,2.6
	c0.6,0.2,1.2,0.2,1.8,0.2c1.9,0,3.7,0,5.6,0c0.9,0,0.9,0.1,0.9,1c0,1,0,1.9,0,2.9c0.1,1.5,0.9,2.3,2.3,2.3c1.5,0,2.3-0.8,2.4-2.3
	c0-1.1,0-2.1,0-3.2l0,0c0-1,0-1.9,0-2.9c0-1.8-0.9-2.7-2.7-2.7c-2.2,0-4.4,0-6.5,0c-1.1,0-1.1,0-1.1-1.1c0-1.4,0-2.8,0-4.3
	c-0.1-1.5-0.9-2.5-2.4-2.5c-1.8-0.1-3.5-0.1-5.3,0c-1.4,0.1-2.5,1.2-2.5,2.4C115.3,101.9,116.5,103,117.9,103.1z M111,69.7
	c-0.5-1.1-1.7-1.7-2.9-1.3c-1.2,0.4-1.7,1.1-1.7,2.5c0,3,0,6,0,9c0,0.7,0,1.4,0,2.1c0,2.3,0,4.7,0,7c0,1.5,0.8,2.5,2.2,2.6
	c2.2,0.1,4.3,0.1,6.5,0c1.2,0,2.1-1,2.2-2.1c0.1-1-0.6-2.1-1.6-2.5c-0.6-0.2-1.2-0.3-1.8-0.3c-0.7,0-1.3,0-2,0
	c-0.4,0-0.7-0.2-0.7-0.6c0-0.4,0-0.8,0-1.2c0-4.3,0-8.7,0-13.1C111.3,71.1,111.3,70.3,111,69.7z M131.9,125c1.5-0.1,3,0,4.6,0
	c1.6,0,3.2,0,4.9,0c1.6,0,2.6-0.9,2.6-2.5c0-3,0-6.1,0-9.1c0-1.2-0.8-2.2-1.9-2.4c-1.4-0.2-2.3,0.4-2.8,1.8
	c-0.2,0.6-0.3,1.2-0.2,1.8c0,1.5,0,2.9,0,4.4c0,1.2,0,1.2-1.2,1.2c-2,0-3.9,0-5.9,0c-1.6,0-2.9,1.2-2.8,2.6
	C129,123.8,130.3,125.1,131.9,125z M132.7,64.8c1.7,0,3.3,0,5,0c1.2,0,1.2,0,1.2,1.2c0,1.4,0,2.7,0,4.1c0,0.6,0,1.2,0.1,1.8
	c0.3,1.4,1.4,2.4,2.6,2.3c1.3-0.2,2.2-1.1,2.2-2.7c0-1.5,0-2.9,0-4.4c0-1.4,0-2.7,0-4.1c0-2.1-0.7-2.8-2.7-3.1c-0.3,0-0.5,0-0.8,0
	c-2.4,0-4.8,0-7.1,0c-0.7,0-1.3,0.1-1.9,0.3c-0.9,0.4-1.5,1.1-1.5,2.1c0,1,0.4,1.7,1.3,2.2C131.6,64.8,132.2,64.8,132.7,64.8z
	 M86.7,64.8c1.6,0,3.2,0,4.9,0c1.3,0,2.3-0.9,2.4-2.1c0.1-1.1-0.7-2.2-1.9-2.6c-0.3-0.1-0.6-0.2-0.9-0.2c-2.9,0-5.8-0.1-8.7,0
	c-1.8,0.1-2.7,1.1-2.6,2.8c0.1,1.4,0,2.8,0,4.3c0,1.5,0,3,0,4.6c0,1,0.3,1.8,1.3,2.3c1.8,0.9,3.5-0.5,3.4-2.1c0-1.6,0-3.2,0-4.9
	C84.6,64.5,84.3,64.9,86.7,64.8z M115.4,69.9c-0.1,1.2,0.4,2.1,1.5,2.5c0.6,0.2,1.2,0.3,1.8,0.3c2.3,0,4.7,0,7,0s4.7,0,7,0
	c0.5,0,1,0,1.5-0.2c1.3-0.4,1.9-1.3,1.8-2.6c-0.1-1.1-1-2-2.2-2.1c-0.4,0-0.7,0-1.1,0c-4.7,0-9.4,0-14.1,0c-0.3,0-0.7,0-1.1,0
	C116.5,67.9,115.6,68.9,115.4,69.9z M110.8,95.2c-0.3-0.1-0.7,0-1.1,0c-2.2,0-4.3,0-6.5,0c-2.3,0-4.7,0-7,0c-0.7,0-1.3,0.1-1.9,0.4
	c-0.8,0.5-1.3,1.2-1.2,2.1c0,0.8,0.4,1.5,1.2,2c0.7,0.4,1.3,0.4,2.1,0.4c4.4,0,8.9,0,13.4,0c0.3,0,0.7,0,1.1,0
	c1.2-0.2,2.1-1.2,2.1-2.4C112.9,96.4,112,95.4,110.8,95.2z M99.8,42.9c1.8,0,3.5,0,5.3,0c0.2,0,0.4,0,0.6,0c1.7,0,3.3,0,5,0
	c1.3,0,2.4-1,2.6-2.2c0.2-0.8-0.5-2-1.4-2.5c-0.5-0.3-1-0.3-1.5-0.3c-3.5,0-7.1,0-10.6,0c-0.3,0-0.6,0-0.9,0c-1.7,0.3-2.4,2-1.7,3.5
	C97.9,42.6,98.8,42.9,99.8,42.9z M86.4,97.8c0.1,1,0.6,1.8,1.7,2.1c1,0.3,1.8,0.1,2.6-0.8c0.5-0.6,0.7-1.3,0.7-2.1c0-2.3,0-4.7,0-7
	c0-0.6-0.1-1.2-0.3-1.8c-0.3-0.8-0.9-1.3-1.8-1.3c-1.6-0.1-2.7,0.8-2.7,2.5c-0.1,1.4,0,2.7,0,4.1h0C86.3,94.9,86.3,96.3,86.4,97.8z
	 M118,117.1c1.1,0,2.1-0.1,3.2,0c1.2,0.1,2.3-1.3,2.3-2.3c0-1.2-1-2.3-2.3-2.3c-1.9,0-3.7,0-5.6,0c-0.3,0-0.7,0-1.1,0
	c-1.2,0.2-2.1,1.3-2,2.5c0.1,1.1,1.2,2.3,2.3,2.2C115.9,117.1,116.9,117.1,118,117.1z M99.3,86.9c-1.3,0-2.6,0.1-3.9,0
	c-1.2-0.1-2.3,1.2-2.3,2.2c0,1.2,0.8,2.3,2,2.4c0.7,0.1,1.4,0,2.1,0l0,0c0.8,0,1.5,0.1,2.3,0c1.2-0.1,2.1-1.3,2-2.4
	C101.4,87.9,100.5,87,99.3,86.9z M131.1,98.2c-1.3,0.1-2.2,1.2-2.2,2.5c0,1.3,0.9,2.3,2.3,2.4c0.4,0,0.8,0,1.2,0c0.5,0,0.9,0,1.4,0
	c1.3-0.1,2.2-1.1,2.2-2.4c0-1.3-0.8-2.3-2.2-2.5C132.9,98.2,132,98.2,131.1,98.2z M121.6,40.4c-0.1-1.3-1.3-2.4-2.5-2.4
	c-1.3,0-2.4,1.1-2.4,2.5c0,1.3,1.2,2.4,2.4,2.4C120.3,42.9,121.7,41.5,121.6,40.4z M200,15.4v169.3c0,8.5-6.9,15.4-15.4,15.4H15.4
	C6.9,200,0,193.1,0,184.6V15.4C0,6.9,6.9,0,15.4,0h169.3C193.1,0,200,6.9,200,15.4z M196,15.4C196,9.1,190.9,4,184.6,4H15.4
	C9.1,4,4,9.1,4,15.4v169.3c0,6.3,5.1,11.3,11.4,11.3h169.3c6.3,0,11.4-5.1,11.4-11.4L196,15.4L196,15.4z"/>
<path class="st1" d="M54.4,81.7C49,76.7,42.5,74.4,35.2,75c-7.3,0.5-13.2,3.8-17.8,9.4c-4.3,5.4-6.1,11.7-5.3,18.6
	c0.7,6,3.3,11.2,7.8,15.4c3,2.8,6.4,4.7,10.3,5.9c1.5,0.4,3.1,0.6,4.6,0.9c1.6,0,3.1,0,4.7,0c0.7-0.1,1.3-0.2,2-0.3
	c6.1-1.1,11.2-4,15.1-8.8c4.5-5.4,6.4-11.7,5.7-18.7C61.5,91.2,58.9,86,54.4,81.7z M51.7,106.9c0,0.7-0.1,0.7-0.7,0.4
	c-1.9-1.1-3.9-1.6-6.1-1.4c-1.8,0.1-3.6,0.6-5.3,1.1c-2.3,0.8-4.6,1.7-6.9,2.3c-3.1,0.8-6,0.8-8.9-0.7c-0.8-0.4-1.1-0.9-1.1-1.8
	c0.1-2.2,0-4.3,0-6.5c0-2.2,0-4.5,0-6.7c0-0.3-0.1-0.6,0.2-0.7c0.3-0.1,0.5,0.1,0.7,0.3c2.8,1.8,5.8,1.9,9,0.9
	c2.3-0.7,4.6-1.6,6.9-2.4c2.1-0.7,4.3-1.5,6.6-1.4c1.8,0.1,3.4,0.6,4.9,1.6c0.6,0.3,0.8,0.8,0.8,1.5
	C51.7,97.8,51.7,102.4,51.7,106.9z M187.8,96.5c-1.1-8-10.6-12.1-17.2-7.3c-3.2,2.3-4.6,5.6-4.7,9.4c0,2.2,0,4.4,0,6.5c0,0,0,0,0,0
	c0,2.4,0,4.7,0,7.1c0,0.6,0.2,0.8,0.8,0.8c1.4,0,2.7,0,4.1,0c0.6,0,0.8-0.2,0.8-0.8c0-1.3,0-2.6,0-3.9c0-0.6,0.1-0.8,0.8-0.8
	c3.1,0,6.2,0,9.2,0c0.6,0,0.8,0.2,0.8,0.8c0,1.3,0,2.6,0,3.9c0,0.7,0.2,0.9,0.9,0.9c1.2,0,2.5,0,3.7,0c1,0,1,0,1-1
	c0-3.9,0-7.8,0-11.8C188.1,99,188,97.7,187.8,96.5z M182.5,101.2c-0.1,0.5-0.2,0.7-0.7,0.7c-1.6,0-3.2,0-4.8,0c-1.5,0-3,0-4.5,0
	c-0.6,0-0.9-0.2-0.9-0.8c-0.1-1.7-0.1-3.5,0.6-5.1c1-2.3,3.3-3.5,5.7-3.1c2.4,0.4,4.3,2.4,4.5,4.9C182.5,98.9,182.6,100,182.5,101.2
	z M125.2,98.1c-0.1-3-1.1-5.6-3.2-7.8c-5.7-5.8-15.5-3.5-18.1,4.2c-0.9,2.7-0.8,5.5-0.7,8.2c0,1,0.1,2,0,3c-0.1,2.2-0.1,4.3,0,6.5
	c0,0.6,0.3,0.8,0.9,0.8c1.3,0,2.6,0,3.9,0c0.6,0,0.9-0.2,0.9-0.9c0-1.3,0-2.6,0-3.9c0-0.6,0.2-0.8,0.8-0.8c3.1,0,6.2,0,9.4,0
	c0.6,0,0.8,0.2,0.7,0.8c0,1.3,0,2.6,0,3.9c0,0.6,0.2,0.9,0.8,0.8c1.3,0,2.6,0,3.9,0c0.6,0,0.8-0.2,0.8-0.8c0-2.4,0-4.8,0-7.1
	c0,0,0,0,0,0C125.2,102.8,125.3,100.4,125.2,98.1z M119.7,101.3c0,0.5-0.3,0.6-0.7,0.6c-1.6,0-3.2,0-4.8,0c0,0,0,0,0,0
	c-1.6,0-3.1,0-4.7,0c-0.6,0-0.8-0.2-0.8-0.8c0-1.3-0.1-2.5,0.1-3.8c0.5-2.7,2.6-4.5,5.3-4.5c2.7,0,4.8,1.9,5.3,4.5
	C119.8,98.6,119.7,100,119.7,101.3z M88.7,89.8c-2-1.5-4.2-2.6-6.7-2.6c-3-0.1-6.1,0-9.1,0c-1,0-1.1,0-1.1,1c0,3.9,0,7.9,0,11.8
	c0,4,0,8.1,0,12.1c0,0.8,0.1,0.9,0.9,0.9c3.1,0,6.3,0,9.4,0c0.3,0,0.6,0,1-0.1c3-0.6,5.6-2,7.6-4.4C95.9,102.4,94.2,93.9,88.7,89.8z
	 M87.9,102.3c-0.9,3-3.5,5-6.6,5.1c-1.1,0-2.2,0.1-3.3,0c-0.5,0-0.6-0.2-0.6-0.7c0-4.4,0-8.8,0-13.3c0-0.5,0.2-0.7,0.6-0.7
	c0.6,0,1.3,0,2.1,0c1.8-0.2,3.6,0.2,5.2,1.4C87.9,96,88.9,99.2,87.9,102.3z M156.6,106.8c0,1.8,0.1,3.6,0.1,5.4
	c0,0.6-0.2,0.9-0.9,0.9c-1.3,0-2.5,0-3.8,0c-0.7,0-0.9-0.3-0.9-0.9c0-2.2,0-4.5,0-6.7c0,0,0,0,0,0c0-2.2,0-4.4,0-6.7
	c0-1.9-0.6-3.6-2.2-4.8c-1.7-1.3-3.5-1.6-5.5-0.7c-2,0.9-3.1,2.4-3.2,4.7c-0.2,3.8-0.2,7.6,0,11.4c0,1,0,2.1-0.1,3.1
	c0,0.4-0.2,0.6-0.6,0.6c-1.4,0-2.8,0-4.1,0c-0.5,0-0.6-0.2-0.7-0.7c-0.1-2.2-0.1-4.4,0-6.7c0.1-2.6,0-5.2,0.1-7.8
	c0-5.2,4-9.8,9.1-10.6c6-1,11.6,3,12.6,8.9c0.1,0.3,0.1,0.6,0.1,1C156.5,100.4,156.5,103.6,156.6,106.8z"/>
</svg>
