<?xml version="1.0" encoding="utf-8"?>
<!-- Generator: Adobe Illustrator 24.0.2, SVG Export Plug-In . SVG Version: 6.00 Build 0)  -->
<svg version="1.1" id="Layer_1" xmlns="http://www.w3.org/2000/svg" xmlns:xlink="http://www.w3.org/1999/xlink" x="0px" y="0px"
	 viewBox="0 0 24 24" style="enable-background:new 0 0 24 24;" xml:space="preserve">
<style type="text/css">
	.st0{fill:#231F20;}
</style>
<path class="st0" d="M21.2,0H2.8C1.25,0,0,1.25,0,2.8V21.2C0,22.75,1.25,24,2.8,24H21.2c1.54,0,2.8-1.25,2.8-2.8V2.8
	C24,1.25,22.75,0,21.2,0z M18.07,15.13c-1.93-1.12-3.82-0.57-5.71,0.08c-1.37,0.47-2.72,1.04-4.22,0.92
	c-0.27-0.02-0.55-0.02-0.81-0.07c-1.33-0.26-1.59-0.58-1.59-1.93c0-1.35,0-2.71,0-4.06c0-0.33-0.07-0.66,0.1-0.96
	C6.03,8.97,6.2,9.07,6.36,9.15c1.23,0.67,2.5,0.62,3.79,0.19c1.18-0.39,2.34-0.82,3.52-1.22c1.3-0.44,2.6-0.57,3.88,0.07
	c0.36,0.18,0.71,0.38,0.71,0.85c0.01,1.72,0.01,3.43,0.01,5.15C18.26,14.46,18.31,14.73,18.07,15.13z"/>
</svg>
