<?xml version="1.0" encoding="utf-8"?>
<!-- Generator: Adobe Illustrator 24.0.2, SVG Export Plug-In . SVG Version: 6.00 Build 0)  -->
<svg version="1.1" id="Layer_1" xmlns="http://www.w3.org/2000/svg" xmlns:xlink="http://www.w3.org/1999/xlink" x="0px" y="0px"
	 viewBox="0 0 400 400" style="enable-background:new 0 0 400 400;" xml:space="preserve">
<style type="text/css">
	.st0{fill:#FFFFFF;}
</style>
<path class="st0" d="M325.64,36.17H74.36c-21.09,0-38.19,17.1-38.19,38.19v251.28c0,21.09,17.1,38.19,38.19,38.19h251.28
	c21.09,0,38.19-17.1,38.19-38.19V74.36C363.83,53.27,346.73,36.17,325.64,36.17z M282.88,242.79c-26.4-15.26-52.15-7.84-77.96,1.04
	c-18.7,6.44-37.18,14.2-57.68,12.63c-3.71-0.28-7.48-0.24-11.1-0.95c-18.17-3.57-21.72-7.97-21.73-26.41
	c-0.01-18.5-0.07-36.99,0.04-55.49c0.03-4.44-0.94-9.06,1.42-13.16c2.64-1.8,4.97-0.51,7.08,0.63c16.82,9.11,34.19,8.44,51.69,2.64
	c16.07-5.33,31.96-11.22,47.99-16.66c17.74-6.02,35.46-7.73,52.97,1c4.96,2.47,9.66,5.16,9.69,11.56
	c0.11,23.43,0.17,46.85,0.15,70.28C285.43,233.54,286.21,237.33,282.88,242.79z"/>
</svg>
