<?xml version="1.0" encoding="utf-8"?>
<!-- Generator: Adobe Illustrator 24.0.2, SVG Export Plug-In . SVG Version: 6.00 Build 0)  -->
<svg version="1.1" id="Layer_1" xmlns="http://www.w3.org/2000/svg" xmlns:xlink="http://www.w3.org/1999/xlink" x="0px" y="0px"
	 viewBox="0 0 1296.44 841.89" style="enable-background:new 0 0 1296.44 841.89;" xml:space="preserve">
<style type="text/css">
	.st0{fill:#FFFFFF;}
	.st1{fill:#272F6D;}
	.st2{fill:#3753A4;}
	.st3{fill:#F18C27;}
	.st4{fill:#FCC095;}
	.st5{fill:#96DAF8;}
	.st6{fill:#3A65AE;}
	.st7{font-family:'Calibri';}
	.st8{font-size:24px;}
	.st9{fill:#F5886E;}
	.st10{fill:#E3E3E3;}
	.st11{fill:#2A2816;}
	.st12{fill:#F38757;}
</style>
<path class="st0" d="M859.26,714.03l17.34-37.01l17.27,2.26l12.32,11.08l0.34,2.58l-18.42,38.21c0,0-16.43,2.86-21.23-0.81
	C862.09,726.66,854.86,723.43,859.26,714.03z"/>
<path class="st1" d="M859.26,714.03c0,0-13.81-6.5-20.53,4.01c0,0-2.34-0.23-3.83,1.56c0,0-4.62,1.42-6.03,3.36l-2.69,1.51
	l-6.07,3.44c0,0-3.43,0.84-4.04,2.14c0,0-23.7,7.11-28.7,15.91c0,0-1,1.46-0.34,1.38c0.66-0.07,44.41,26.34,44.41,26.34
	s35.05-2.24,35.47-2.24s24.81-0.42,24.81-0.42l1.4-4.43c0,0,4.36-7.96,1.48-24.89c0,0,1.03-6.88-7.02-11.07
	c0,0-15.2,3.86-22.21-1.19S856.76,718.91,859.26,714.03z"/>
<path class="st1" d="M838.33,575.21l-1.25,0.54c0,0-13.34-6.39-30.36-3.19l-2.34,0.03l-6.8-0.87l-12.1-1.76l-3.56-0.61
	c0,0-32.76-5.83-41.7-1.76l31.55,42.38l24.6,19.37l26.99,14.37l18.14,4.24c0,0,10.36-15.45,13.86-37.38
	C855.35,610.58,828.48,595.09,838.33,575.21z"/>
<path class="st0" d="M1047.37,346.09c0,0-12.58-11.51,2.02-31.49c0,0,7.47-14.93,45.17-5.11c0,0,20.42,6.91,20.72,26.17
	c0,0-1.69,11.02,0,13.92c0,0-12.29,3.1-12.43,2.48c-0.13-0.62-8.29-10.35-8.29-10.35s-6.55-2.47-10.32-3.84
	c-3.77-1.37-17.99,0.33-18.53,0c-0.53-0.33-14.58,3.15-14.58,3.15L1047.37,346.09z"/>
<g>
	<path class="st2" d="M1075.2,494.38c-0.02,0-0.02,0.01-0.04,0.01c0,0.01,0,0.02,0.01,0.03L1075.2,494.38z"/>
	<path class="st2" d="M1075.8,493.35c-0.01,0-0.01,0-0.01,0l0,0H1075.8z"/>
	<path class="st2" d="M1077.69,490.68c-0.03,0-0.05,0-0.08,0c0.01,0.03,0.01,0.06,0.02,0.09L1077.69,490.68z"/>
	<path class="st2" d="M1078.09,490.02c-0.03,0-0.05,0.02-0.08,0.02c-0.01,0.02-0.01,0.03-0.02,0.05L1078.09,490.02z"/>
	<path class="st2" d="M790.13,742.51c-0.01,0.01-0.02,0.02-0.03,0.03c-0.02,0.02-0.03,0.04-0.05,0.06L790.13,742.51z"/>
	<path class="st2" d="M1272.73,841.89c-0.04-51.64-0.04-103.27-0.04-154.91c-15.58,0.02-31.17,0.04-46.75,0.05
		c-1.17,0-2.57,0.24-2.61-1.6c-0.11-4.55-1.5-8.88-2.21-13.32c-1.96-2.61-1.92-5.91-3.07-8.81c-8.47-21.31-22.82-37.03-43.76-46.59
		c-0.93-0.42-2.66-0.65-2.04-2c0.51-1.11,1.81-0.01,2.67,0.37c23.92,10.75,39.53,28.74,46.88,53.9c0.28,0.95,0.25,1.99,0.36,2.99
		c10.14,0.28,16.75-5.41,21.87-13.26c6.54-10.03,8.13-21.5,8.56-33.1c0.59-15.89-0.14-31.75-2.69-47.47
		c-2.52-15.55-6.56-30.71-12.72-45.23c-4.94-11.64-11.33-22.38-20.64-31.16c-2.62-0.47-5.39-0.02-7.9-1.22
		c-0.02-0.18-0.09-0.34-0.22-0.48c-6.51-0.42-13.01-0.81-19.52-1.27c-3.47-0.25-6.93-0.63-10.4-0.95c-0.44,1.35-1.59,1.03-2.55,1.04
		c-15.28,0.08-29.3,3.98-41.49,13.53c-0.13,0.1-0.34,0.09-0.98,0.23c0.82-3.13,2.47-5.62,3.8-8.23c0.38-0.74,1.24-1.49,1.17-2.16
		c-0.58-5.13,3.09-3.94,5.88-4.12c0.45-0.03,0.89-0.23,1.33-0.35c-4.91,1.22-3.96-2.39-4.17-5.05c-0.46-0.03-0.92-0.05-1.38-0.09
		c-5.77-0.48-10.85-0.38-14.34,5.9c-2.45,4.41-7.85,6.22-12.28,8.67c-3.3,1.82-5.84,4.08-7.28,7.82c-1.9,4.97-4.51,9.65-6.29,14.71
		c-1.87,5.35-6.04,6.14-9.73,2.03c-0.99-1.11-1.42-0.87-1.86,0.35c-0.5,1.39-0.98,2.81-2.12,3.83c-2.23,1.99-5.73,1.08-7.01-1.98
		c-0.59-1.42-0.79-1.97-2.11-0.53c-2.34,2.57-6.53,1.82-7.33-1.6c-0.66-2.82-1.96-3.77-4.54-3.96c-0.88-0.06-1.71-0.67-2.22-1.51
		c-1.36-1.5,0.13-3.33-0.55-4.9c0.05-0.86,0.35-1.49,1.36-1.47c0.42-0.17,0.41-0.49,0.29-0.85c-0.14-0.6-0.28-1.2,0.6-1.34h-0.04
		c-0.14-0.54-0.18-1.03,0.53-1.15c-0.29-0.77-0.08-1.41,0.52-1.95c0.3-0.15,0.6-0.3,0.89-0.44l0.05-0.04
		c0.07-0.39,0.14-0.78,0.21-1.18c-0.15-0.6-0.19-1.15,0.53-1.39c-0.19-1.12-0.17-2.12,1.31-2.31c0.21-0.04,0.28-0.16,0.21-0.37
		c-0.8-1.17-0.23-1.8,0.85-2.21c-0.41-1.08-0.29-1.92,1.02-2.24l0.02-0.04c-0.16-0.65-0.54-1.42,0.71-1.3l0.17-0.1l-0.02-0.2
		c-0.56-0.94-0.51-1.65,0.73-1.9c0.12-0.18,0.25-0.35,0.37-0.53c-0.71-1.6,0.03-2.64,1.32-3.48c0.18-0.03,0.27-0.14,0.27-0.32
		c-0.29-0.38-0.62-0.77,0.23-0.85c0.18-0.05,0.26-0.16,0.23-0.35c-0.43-0.53-0.31-0.87,0.32-1.03c-0.13-0.55-0.12-1.01,0.62-1.04
		c-0.11-0.51-0.19-1,0.6-0.92l0.13-0.16c-0.1-0.26-0.26-0.55,0.26-0.38c0.15-0.15,0.3-0.31,0.45-0.46
		c-0.59-0.69-0.12-0.73,0.38-0.75c-0.1-0.36,0.03-0.57,0.4-0.64c0.12-0.41,0.37-0.53,0.78-0.3l0.05-0.01
		c-0.21-0.71-0.01-1,0.74-0.75h0.15l0.03-0.15c-0.09-0.46,0.1-0.44,0.39-0.22c0.13-0.12,0.26-0.24,0.39-0.36
		c-0.06-0.04-0.13-0.08-0.19-0.12c0.1-0.05,0.2-0.09,0.3-0.14c7.93-4.42,16.31-8.01,23.99-12.91c-4.53,1.59-9.45,2.07-13.66,4.54
		c-4.91,2.87-10,5.44-14.41,9.13c-5.49,4.6-6.61,11.56-9.68,17.47c-1.82,3.51-3.42,7.14-5.1,10.73c-0.86,1.83-2.52,1.56-3.83,1.1
		c-3.79-1.35-7.49-2.96-11.22-4.46c-0.15,0.12-0.3,0.24-0.45,0.36c0.25,3.54,3.23,5.42,4.99,8.01c4.32,6.36,8.84,12.58,13.26,18.88
		c0.59,0.84,1.13,1.68,2.22,1.91c0.53-0.81,1.2-0.63,1.94-0.32c6.82,2.78,13.43,5.98,19.85,9.59c7.63,2.89,15.46,5.06,23.49,6.44
		c1.81,0.31,2.23,1.12,1.92,2.81c-0.53,2.96-1.97,5.52-3.24,8.16c1.24,2.68,3.98,4,5.7,6.29c2.9,3.87,5.31,7.93,6.63,13.23
		c3.17-5.34,5.37-10.44,7.26-16.5c2.49,7.94,5.02,15.02,9.2,21.39c3,4.57,6.33,8.84,10.2,12.7c0.5,0.5,1.29,1.03,0.95,1.83
		c-0.3,0.71-1.15,0.42-1.75,0.36c-13.32-1.42-26.49-0.15-39.61,2.1c-0.37,0.06-0.81-0.27-1.22-0.42c-1.58,0.18-3.16,0.37-4.74,0.55
		c-1.06,1.55-2.46,0.86-3.79,0.57c-6.01,1.74-12.24,2.22-18.36,3.28c-6.57,1.14-13.12,2.34-19.69,3.51
		c-15.68,3.52-31.65,3.21-47.57,3.88c-14.91,0.63-29.36-1.52-43.69-5.21c-6.47,9.89-12.13,20.23-17.17,30.92
		c-5.03,10.68-10.14,21.32-15.23,31.97c-1.83,3.83-3.66,7.65-5.53,11.46c-0.47,0.97-0.78,2.14-2.12,2.34
		c-1.47,3.85-4.93,4.08-8.19,4.21c-4.58,0.17-8.9-1.19-13.01-3.17c-0.91-0.44-1.72-1.1-2.8-0.56c-5.15,9.46-10.12,19.01-14.72,28.76
		c-1.04,2.22-2.21,4.38-3.44,6.5c-0.42,0.72-0.86,1.22,0.12,1.7c5.08,2.48,6.01,7.23,6.69,12.13c0.09,0.62,0.34,1.23,0.51,1.84
		c1.16,1.07,0.46,2.46,0.57,3.7c0.12,1.38,0.09,2.78,0,4.16c-0.11,1.63,0.49,2.23,2.19,2.36c18.96,1.37,37.86,3.4,56.75,5.49
		c13.75,1.52,27.48,3.33,41.24,4.72c13.03,1.32,26.06,2.7,39.13,3.69c18.61,1.4,37.22,2.78,55.88,2.49
		c24.1-0.37,48.19-1.34,71.68-7.61c15.14-4.04,28.94-10.62,40.26-21.76c0.2-0.19,0.46-0.36,0.58-0.59c3.13-5.72,7.9-5.84,13.43-4.2
		c5.48,1.62,11.23,2.44,16.13,5.65c6.47,4.24,6.59,8.1,0.11,12.32c-8.16,5.31-17.43,8.01-26.73,10.45
		c-23.44,6.15-47.29,10.07-71.38,12.6c-23.46,2.46-47.01,3.21-70.57,2.6c-21.87-0.57-43.74-1.52-65.57-3.11
		c-14.45-1.05-28.92-1.89-43.38-2.86c-1.66-0.11-2.81,0.4-4.13,1.57c-5.03,4.46-11.5,5.76-17.79,7.18
		c-18.87,4.26-38.1,5.86-57.34,7.39c-14.73,1.17-29.48,2.28-44.25,1.97c-16.14-0.34-32.32-0.81-48.13-4.69
		c-1.51-0.37-2.97-1-4.37-1.7c-1.23-0.61-2.6-1.4-2.64-2.95c-0.05-1.76,1.45-2.5,2.82-3.06c5.42-2.25,11.18-3.11,16.93-4.04
		c0.87-0.14,1.96,0.13,2.11-1.23c-6.11-2.76-12.53-4.88-18.08-8.82c-5.65-4.01-6.19-8.71-1.33-13.81c1.7-1.79,3.71-3.29,5.58-4.92
		c0.13-0.11,0.26-0.23,0.4-0.34c0.15-0.09,0.28-0.2,0.37-0.35c0.36-1.84,2-2.64,3.16-3.82l-0.06,0.11c0.38-0.39,0.77-0.79,1.15-1.18
		c0.61-0.84,1.27-1.61,2.4-1.74c7.03-5.41,15.4-7.88,23.59-10.74c1.17-1.05,2.59-1.62,4.04-2.14c2.02-1.15,4.05-2.29,6.07-3.44
		c0.9-0.5,1.79-1.01,2.69-1.51c1.85-1.4,3.88-2.48,6.03-3.36c1.1-0.96,2.38-1.46,3.83-1.56c1.89-3.47,5.36-4.44,8.75-5.51
		c1.49-1.15,3.19-0.29,4.78-0.47c0.09-0.01,0.2-0.03,0.27,0.01c0.51,0.27-0.05,0.29-0.1,0.43c1.95,0.49,3.92,0.91,5.83,1.49
		c1.6,0.49,1.67-0.86,2.03-1.63c4.53-9.89,9-19.8,13.51-29.7c0.87-1.91,1.86-3.76,2.79-5.64c0.03-0.28,0.05-0.56,0.08-0.83
		c-0.03-1.33-0.58-2.44-1.28-3.57c-3.1-5.02-4.98-10.43-4.96-16.39c0-0.9-0.14-1.86,0.6-2.6c2.62-6.16,5.18-12.33,7.86-18.46
		c4.86-11.12,9.88-22.17,13.76-33.69c-9.01,0.08-18.02-0.2-26.99,1.05c-0.85,0.12-1.65-0.04-2.35-0.57
		c-0.53,1.39-2.04,1.59-3.07,2.1c-5.28,2.62-4.99,7.72-5.92,12.32c-2.29,11.33-6.7,21.81-12.83,31.58
		c0.98,4.28,0.24,8.22-2.63,11.57c-2.95,3.44-6.84,3.66-10.89,2.56c-6.89-1.86-13.16-5.15-19.31-8.67c-0.62-0.36-1.3-0.62-1.96-0.92
		c-1.97,10.81-3.88,21.63-3.35,32.7c0.11,2.2-1.63,1.84-2.96,1.84c-31.9,0.01-63.8,0-95.7-0.01c-0.04,1.11-704.69,2.21-704.69,3.32
		C0,740.86,0,791.38-0.01,841.89H1272.73z M1127.95,559.77c-1.91,1.55-3.85,0.05-5.76-0.04c-2.17-0.1-4.79-0.03-6.33-1.21
		c-1.69-1.28-0.31-4.04-0.59-6.13c-0.98-7.36-4.36-13.76-7.94-20.09c-0.3-0.53-0.61-1.06-1.23-2.13c7.2,3.01,14.4,4.35,20.78,7.91
		c0.88,1.15,0.35,2.47,0.36,3.7c0.04,5.32,0.19,10.62,0.99,15.88C1128.34,558.38,1128.45,559.12,1127.95,559.77z"/>
	<path class="st2" d="M1065.22,516.6c-0.01,0-0.01,0-0.02,0c0,0.01,0,0.02,0.01,0.02L1065.22,516.6z"/>
	<path class="st2" d="M1067.45,511.59c-0.02,0-0.03,0.01-0.04,0.02c0,0.01,0,0.02,0,0.03
		C1067.41,511.64,1067.45,511.59,1067.45,511.59z"/>
	<path class="st2" d="M1069.83,506.7c-0.02,0.01-0.03,0.01-0.04,0.02c0,0.01,0.01,0.02,0.01,0.03L1069.83,506.7z"/>
</g>
<path class="st2" d="M869.41,547.49c-8.94,7.25-17.21,15.23-25.78,22.89c-1.78,1.59-3.61,3.14-5.31,4.83
	c-0.77,0.76-1.32,0.59-2.14,0.22c-1.5-0.67-3.05-1.21-4.58-1.81c-1.25-5.15-0.53-10.31,0.15-15.41c2.14-16.05,5.3-31.89,10.61-47.22
	c2.02-5.83,4.66-11.45,7.01-17.17c4.03-6.49,7.97-13.02,13.55-18.4c10.98-10.57,24.08-15.97,39.24-16.61
	c10.43-0.44,20.58,0.93,30.38,4.61c-3.31,2.86-7.31,4.6-10.98,6.88c-13.72,8.5-27.49,16.94-41.09,25.63
	c-3.99,2.55-8.26,4.91-11.12,8.93c-4.49,1.99-4.4,6.18-4.22,9.94c0.5,10.27,2.92,20.16,7.09,29.6
	C871.72,545.83,870.35,546.46,869.41,547.49z"/>
<path class="st3" d="M740.22,567.59c5.32-0.59,9.54,1.74,13.17,5.24c10.07,9.73,18.77,20.63,26.45,32.29
	c4.8,7.28,10.82,12.94,18.37,17.24c12.27,6.99,24.41,14.2,36.1,22.14c2.24,1.52,4.69,2.51,7.19,3.46c0.98,4.28,0.24,8.22-2.63,11.57
	c-2.95,3.44-6.84,3.66-10.89,2.56c-6.89-1.86-13.16-5.15-19.31-8.67c-0.62-0.36-1.3-0.62-1.96-0.92
	c-6.87-4.9-13.12-10.46-18.27-17.21c-0.97-1.26-2.48-1.8-3.97-2.39c-22.82-9.01-40.62-24.04-53.52-44.89
	c-0.77-1.25-1.33-2.64-1.86-4.01c-1.74-4.54-1.12-7.24,2.66-10.26C734.46,571.56,737.38,569.63,740.22,567.59z"/>
<path class="st4" d="M1121.44,355.57c0.46,6-0.96,11.56-4.05,16.67c-1.64,2.71-4.02,4.32-7.42,3.58c-0.76-0.17-1.58-0.41-1.58,0.77
	c0.02,6.16-0.93,12.37,0.77,18.46c0.58,1.4,0,2.32-1.22,2.98c-8.38,3.82-16.98,7.03-25.89,9.35c-1.6,0.42-2.22,1.25-2.16,2.95
	c0.16,4.51,0.15,9.03,0.2,13.54c-0.13,0.24-0.3,0.47-0.39,0.73c-1.93,5.95-3.83,11.91-5.77,17.86c-0.36,1.12-0.73,2.72-2.26,2.15
	c-1.34-0.51-0.12-1.69,0.12-2.52c1.48-5.22,3.02-10.43,4.54-15.64c0.73-1.23,1.84-2.32,1.57-3.92c-0.66-4.02-0.34-8.06-0.3-12.09
	c0.02-1.66-0.43-2.14-2.14-2.2c-2.38-0.09-4.99,0.66-7.08-1.22c0.06-3.56-1.94-5.36-5.13-6.45c-5.73-1.97-8.86-6.14-10.33-12.01
	c-1.5-6.02-2.55-12.11-3.5-18.21c-0.28-2.55,0.67-3.2,3.24-2.68c2.13,0.44,4.45,0.37,6.61,0.02c1.94-0.32,4.16,0.24,5.8-1.38
	c0.62-0.5,1.6-0.52,1.95-1.4c0.04,0.32,0.08,0.63,0.11,0.95c0.08-0.24,0.16-0.48,0.25-0.71c1.24-3.08,0.94-6.33,1.09-9.53
	l-0.03,0.03c1.53-1.08,2.43-0.62,3.07,1.08c0.69,1.83,0.57,3.93,1.91,5.52c1.13,2.93,3.43,3.85,6.35,3.71
	c2.01-0.1,4.03-0.33,6.04-0.27c4.66,0.12,8.21-1.18,9.49-6.26c0.32-1.27,1.34-2.36,2.03-3.54c0.74-0.85,1.71-0.78,2.73-0.85
	c2.45-0.16,5.05,0.53,7.29-1.08l-0.05,0.03c1.18,0.04,1.51-0.75,1.67-1.71l-0.03,0.03c0.17-0.22,0.34-0.45,0.51-0.67l0.02,0.14
	c0.17-0.4,0.34-0.8,0.5-1.2c0.14-0.43,0.29-0.86,0.43-1.29l0.26,0.05l-0.04,0.26c-0.05-0.07-0.09-0.11-0.1-0.14
	c0.98-0.66,2.08-0.48,3.16-0.47c1.88,0.03,3.6,0.58,5.18,1.58C1120.2,352,1121.07,353.66,1121.44,355.57z"/>
<path class="st3" d="M1150.57,459.29c7.71-3.2,14.22-2.68,19.62,4.8c3.96,5.49,10.02,5.79,16.49,5c5.72-0.7,5.92-1.49,3.75,5.14
	c-2.79,8.54-7.07,16.33-12.49,23.5c-5.81,0-11.63-0.01-17.44-0.01c3.51-7.99,3.57-15.83-0.83-23.56c-2.8-4.91-6.73-8.7-11.31-11.89
	C1148.31,460.7,1149.03,459.69,1150.57,459.29z"/>
<path class="st3" d="M1168.81,415.11c5.26,1.15,9.82,3.81,14.3,6.64c-1.19,3.35,0.14,6.21,1.99,8.81c3.42,4.8,6.32,9.99,10.41,14.3
	c0.71,0.75,1.04,1.23-0.01,1.91c-6.42,4.1-12.53,9.04-21.05,7.21c-0.28-0.98,0.6-1.71,1.04-2.57c4.45-8.62,2.81-17.72-4.47-24.08
	c-2.29-2-4.8-3.74-7.12-5.7c-1.6-1.35-2.85-1.02-4.31,0.28c-5.32,4.72-9.27,10.21-10.51,17.4c-0.21,1.19-0.08,2.63-1.26,3.53
	c-0.52-0.3-1.04-0.59-1.56-0.89c-0.88-0.48-1.71-1.16-2.65-1.4c-3.27-0.8-3.25-2.86-2.69-5.61c1.15-5.73,3.59-10.95,5.92-16.23
	c0.37-0.63,0.75-1.26,1.12-1.89l0.01-0.02c0.17-0.34,0.33-0.67,0.5-1.01c0.26-0.36,0.52-0.73,0.78-1.09c3.2-0.08,6.4-0.15,9.61-0.23
	c4.2,5.2,4.74,5.25,9.8,0.87C1168.72,415.28,1168.76,415.19,1168.81,415.11z"/>
<path class="st3" d="M1208.42,500.03c2.78-5.32,5.49-10.67,6.78-16.58c1.6-7.32-1.84-12.48-9.2-12.87c-5.11-0.27-8.12-2.33-9.7-7.02
	c-0.59-1.73-1.69-3.3-2.23-5.04c-0.41-1.3-2-2.78-0.69-4.02c1.1-1.05,2.6,0.28,3.87,0.64c15.36,4.38,27.5,13.4,37.3,25.85
	c1.28,1.62,1.52,2.52,0.01,4.3c-3.4,3.99-6.65,8.18-9.41,12.62c-1.76,2.82-3.5,4.5-6.9,3.65c-3.15-0.75-6.35-1.08-9.59-1.05
	C1208.61,500.33,1208.54,500.17,1208.42,500.03z"/>
<path class="st3" d="M1205.58,457c4.15-3.66,8.4-5.82,12.74-7.83c1.43-0.67,2.45,0.16,3.52,0.92c4.88,3.49,8.67,8.27,13.87,11.49
	c-5.29,0-10.38-0.37-15.4,0.1C1214.73,462.19,1210.93,458.31,1205.58,457z"/>
<path class="st1" d="M1160.51,497.73c5.81,0,11.63,0.01,17.44,0.01c0.19,0.02,0.37,0.05,0.56,0.07c-0.44,1.35-1.59,1.03-2.55,1.04
	c-15.28,0.08-29.3,3.98-41.49,13.53c-0.13,0.1-0.34,0.09-0.98,0.23c0.82-3.13,2.47-5.62,3.8-8.23c0.38-0.74,1.24-1.49,1.17-2.16
	c-0.58-5.13,3.09-3.94,5.88-4.12c0.45-0.03,0.89-0.23,1.33-0.35C1150.61,497.74,1155.56,497.73,1160.51,497.73z"/>
<path class="st1" d="M1221.12,672.1c-1.96-2.61-1.92-5.91-3.07-8.81c-8.47-21.31-22.82-37.03-43.76-46.59
	c-0.93-0.42-2.66-0.65-2.04-2c0.51-1.11,1.81-0.01,2.67,0.37c23.92,10.75,39.53,28.74,46.88,53.9c0.28,0.95,0.25,1.99,0.36,2.99
	C1221.81,672,1221.46,672.05,1221.12,672.1z"/>
<path class="st3" d="M785.48,569.96c3.46,3.36,5.35,7.58,6.62,12.15c0.26,0.95,0.29,1.83-0.72,2.39c-0.75,0.42-1.36,0.08-1.52-0.61
	c-1.27-5.61-4.6-10.08-7.94-14.54C783.1,569.56,784.29,569.76,785.48,569.96z"/>
<path class="st2" d="M1146.26,441.93c0.52,0.3,1.04,0.59,1.56,0.89c1.24,4.4,0.39,8.89,0.53,13.34c0.05,1.76,0.57,2.73,2.22,3.13
	c-1.54,0.4-2.26,1.4-2.21,2.98c-2.18,0.09-2.95-1.06-2.73-3.1c0.29-2.72,0.69-5.44,0.83-8.17
	C1146.63,447.98,1148.22,444.91,1146.26,441.93z"/>
<path class="st3" d="M806.72,572.56c2.69,3.29,3.97,7.19,4.84,11.26c0.22,1.03,0.24,2.23-0.99,2.52c-1.28,0.31-1.41-0.96-1.52-1.81
	c-0.61-4.36-3.26-7.9-4.67-11.94C805.16,572.58,805.94,572.57,806.72,572.56z"/>
<path class="st3" d="M797.58,571.72c1.67,3.48,3.13,7.05,4,10.82c0.25,1.07,0.58,2.44-0.84,2.8c-1.46,0.37-1.44-1.16-1.65-2.03
	c-1.01-4.13-2.7-7.99-4.59-11.78C795.53,571.6,796.56,571.66,797.58,571.72z"/>
<path class="st1" d="M1208.63,500.51c3.24-0.03,6.44,0.3,9.59,1.05c-0.57,0.06-1.13,0.11-1.69,0.17
	C1213.91,501.26,1211.15,501.7,1208.63,500.51z"/>
<path class="st5" d="M1094.56,309.5c-0.12-0.2-0.24-0.39-0.37-0.59C1094.31,309.11,1094.43,309.3,1094.56,309.5z"/>
<path class="st6" d="M871.03,653.63c2.62-6.16,5.18-12.33,7.86-18.46c4.86-11.12,9.88-22.17,13.76-33.69
	c0.79-1.97,1.65-3.92,2.35-5.92c5.72-16.18,13.8-30.72,27.3-41.93c9.59-7.96,19.38-15.14,32.32-16.25
	c4.31-0.37,8.71-0.01,12.85-1.64c1.2-0.47,1.69,0.48,2.27,1.12c10.06,11.12,18.89,23.2,27.39,35.52c0.74,1.07,0.65,2.02,0.06,2.75
	c-2.93,3.61-4.54,8-7.14,11.82c-6.75,9.93-13.23,20.04-19.81,30.08c-6.47,9.89-12.13,20.23-17.17,30.92
	c-5.03,10.68-10.14,21.32-15.23,31.97c-1.83,3.83-3.66,7.65-5.53,11.46c-0.47,0.97-0.78,2.14-2.12,2.34
	c-1.25-4.17-4.45-6.94-7.28-9.94c-1.02-1.08-1.1-1.73-0.38-3.03c18.13-32.46,31.06-67.03,41.37-102.65c0.29-0.99,1.01-2.5-0.34-2.85
	c-1.13-0.29-1.22,1.38-1.49,2.28c-3.3,11.17-6.64,22.33-10.63,33.27c-8.3,22.78-17.46,45.17-29.06,66.51
	c-1.66,3.06-2.95,3.51-5.18,0.75c-0.44-0.55-0.99-1.42-2.03-1.11c-4.5-4.29-9.57-7.85-14.84-11.08c-5.01-3.07-9.94-6.37-15.83-7.65
	c-0.36-1.31-1.64-1.37-2.57-1.64C878.33,655.5,874.67,654.6,871.03,653.63z"/>
<path class="st1" d="M895.36,745.13c1.16,1.07,0.46,2.46,0.57,3.7c0.12,1.38,0.09,2.78,0,4.16c-0.11,1.63,0.49,2.23,2.19,2.36
	c18.96,1.37,37.86,3.4,56.75,5.49c13.75,1.52,27.48,3.33,41.24,4.72c13.03,1.32,26.06,2.7,39.13,3.69
	c18.61,1.4,37.22,2.78,55.88,2.49c24.1-0.37,48.19-1.34,71.68-7.61c15.14-4.04,28.94-10.62,40.26-21.76
	c0.2-0.19,0.46-0.36,0.58-0.59c3.13-5.72,7.9-5.84,13.43-4.2c5.48,1.62,11.23,2.44,16.13,5.65c6.47,4.24,6.59,8.1,0.11,12.32
	c-8.16,5.31-17.43,8.01-26.73,10.45c-23.44,6.15-47.29,10.07-71.38,12.6c-23.46,2.46-47.01,3.21-70.57,2.6
	c-21.87-0.57-43.74-1.52-65.57-3.11c-14.45-1.05-28.92-1.89-43.38-2.86c-1.66-0.11-2.81,0.4-4.13,1.57
	c-5.03,4.46-11.5,5.76-17.79,7.18c-18.87,4.26-38.1,5.86-57.34,7.39c-14.73,1.17-29.48,2.28-44.25,1.97
	c-16.14-0.34-32.32-0.81-48.13-4.69c-1.51-0.37-2.97-1-4.37-1.7c-1.23-0.61-2.6-1.4-2.64-2.95c-0.05-1.76,1.45-2.49,2.82-3.06
	c5.42-2.25,11.18-3.11,16.93-4.04c0.87-0.14,1.96,0.13,2.11-1.23c0.54,0.11,1.1,0.16,1.62,0.33c14.25,4.54,28.75,6.84,43.78,5.53
	c3.94-0.34,7.95-3.06,11.99-0.16c0.71,0.51,1.64,0.87,2.52,0.99c10.97,1.55,21.97,2.38,33.05,1.28c1.3-0.13,2.26-0.66,3.14-1.52
	c4.29-4.27,3.31-12.45-1.87-15.52C895.02,759.56,895.76,752.41,895.36,745.13z"/>
<path class="st4" d="M1112.16,471.7c2.78-0.53,5.94-0.48,5.86-4.7c-0.02-1.16,1.29-1.14,2.17-1.24c4.29-0.49,8.59-0.89,12.88-1.41
	c1.2-0.14,1.78,0.29,2.4,1.29c3.1,5.06,5.37,10.5,7,16.15c1.04,3.61-0.21,7.29-0.96,10.9c-0.46-0.03-0.92-0.05-1.38-0.09
	c-5.77-0.48-10.85-0.38-14.34,5.9c-2.45,4.41-7.85,6.22-12.28,8.67c-3.3,1.82-5.84,4.08-7.28,7.82c-1.9,4.97-4.51,9.65-6.29,14.71
	c-1.87,5.35-6.04,6.14-9.73,2.03c-0.99-1.11-1.42-0.87-1.86,0.35c-0.5,1.39-0.98,2.81-2.12,3.83c-2.23,1.99-5.73,1.08-7.01-1.98
	c-0.59-1.42-0.79-1.97-2.11-0.53c-2.34,2.57-6.53,1.82-7.33-1.6c-0.66-2.82-1.96-3.77-4.54-3.96c-0.88-0.06-1.71-0.67-2.22-1.51
	c-0.78-2.89,1.39-5.13,1.69-7.79c0-0.26,0-0.52,0-0.78h-0.04c0.6-0.19,0.58-0.67,0.55-1.16l-0.01,0.03l0.22,0.05
	c0.88-0.58,1.39-1.35,1.19-2.46l0.05-0.04c0.94-0.22,0.94-0.89,0.8-1.64c0-0.32-0.01-0.63-0.01-0.95l-0.04,0.04
	c0.95-0.49,1.05-1.46,1.3-2.34c0.21-0.04,0.28-0.16,0.21-0.36c0.3-0.74,0.6-1.49,0.9-2.24c0,0-0.03,0.05-0.04,0.05
	c0.65-0.61,0.99-1.37,1.01-2.27l0.02-0.04c0.24-0.43,0.47-0.87,0.71-1.3l0.17-0.1l-0.02-0.2c0.24-0.63,0.49-1.27,0.73-1.9
	c0.12-0.18,0.25-0.35,0.37-0.52c0.44-1.16,0.88-2.32,1.32-3.48c0.18-0.03,0.27-0.14,0.27-0.31c0.07-0.28,0.15-0.57,0.23-0.85
	c0.18-0.05,0.26-0.16,0.23-0.35c0.12-0.35,0.24-0.69,0.36-1.04l-0.03,0.05c0.21-0.36,0.42-0.72,0.63-1.08h-0.01
	c0.2-0.31,0.4-0.62,0.6-0.92l0.13-0.16c0.09-0.13,0.18-0.25,0.26-0.38c0.15-0.15,0.3-0.31,0.44-0.46c0.15-0.25,0.31-0.5,0.46-0.75
	l-0.06,0.09c0.15-0.25,0.31-0.5,0.46-0.75l-0.1,0.07c0.27-0.12,0.53-0.23,0.8-0.35l0.05-0.01c0.25-0.25,0.5-0.5,0.75-0.75h0.15
	c0,0,0.03-0.15,0.03-0.14c0.21,0.06,0.34-0.02,0.4-0.22c0.13-0.12,0.26-0.24,0.39-0.36l0.14-0.08l-0.04-0.18
	c7.93-4.42,16.31-8.01,23.99-12.91l0.07-0.05c0.41,0.01,0.88,0.12,1.03-0.47l0.11-0.09c0.44,0.05,0.88,0.11,1.01-0.48l0.09-0.07
	C1108.87,473.63,1110.54,472.74,1112.16,471.7z"/>
<path class="st1" d="M970.25,617.02c6.59-10.04,13.07-20.15,19.81-30.08c2.6-3.82,4.2-8.21,7.14-11.82
	c0.59-0.73,0.68-1.67-0.06-2.75c-8.5-12.33-17.33-24.4-27.39-35.52c-0.58-0.64-1.07-1.59-2.27-1.12c-4.14,1.63-8.54,1.27-12.85,1.64
	c-12.95,1.11-22.73,8.29-32.32,16.25c-13.5,11.21-21.58,25.75-27.3,41.93c-0.71,2-1.57,3.95-2.35,5.92
	c-9.01,0.07-18.02-0.2-26.99,1.05c-0.85,0.12-1.65-0.04-2.35-0.57c3.56-2.8,7.2-5.5,10.66-8.42c3.85-3.24,7.74-6.42,11.7-9.52
	c2.21-1.72,5.08-2.88,6.56-5.52c4.34-3.16,8.65-6.37,13.05-9.44c1.09-0.76,1.14-1.46,0.65-2.46c10.03-9.22,19.08-19.6,31.21-26.37
	c6.88-3.84,14.24-5.64,22.02-5.64c7.57-0.01,12.65-3.75,16.36-10c1.99-3.36,3.61-6.85,4.87-10.54c0.26-0.76,0.23-2.27,1.46-1.95
	c1.31,0.34,0.76,1.77,0.54,2.65c-1.66,6.69-4.75,12.66-9.75,17.42c-1.92,1.83-1.74,2.85-0.13,4.64
	c10.67,11.82,19.84,24.76,28.73,37.96c9.86,14.65,19.35,29.5,27.78,45.01c1.02,1.88,2.5,1.22,3.85,1.09
	c7.08-0.69,14.14-1.48,21.21-2.23c0.85,0.08,1.71,0.2,2.45-0.39c1.65,0.04,3.3,0.07,4.95,0.11c-15.68,3.52-31.65,3.21-47.57,3.88
	C999.03,622.86,984.58,620.71,970.25,617.02z"/>
<path class="st3" d="M785.86,747.55c4.7-0.99,8.82,0.39,12.89,2.74c8.94,5.17,17.53,10.91,26.71,15.7
	c6.8,3.55,13.52,3.78,20.62,1.69c9.88-2.91,19.74-3.47,29.67-0.13c5.87,1.97,11.66,0.75,17.38-0.95c5.18,3.07,6.16,11.25,1.87,15.52
	c-0.87,0.87-1.84,1.39-3.14,1.52c-11.08,1.1-22.08,0.27-33.05-1.28c-0.87-0.12-1.8-0.48-2.52-0.99c-4.04-2.9-8.05-0.19-11.99,0.16
	c-15.03,1.31-29.53-0.99-43.78-5.53c-0.52-0.17-1.08-0.22-1.62-0.33c-6.11-2.76-12.53-4.88-18.08-8.82
	c-5.65-4.01-6.19-8.71-1.33-13.81c1.7-1.79,3.71-3.29,5.58-4.92c0.13-0.11,0.26-0.23,0.4-0.34c0.15-0.09,0.28-0.2,0.37-0.35
	C785.85,747.43,785.86,747.55,785.86,747.55z"/>
<path class="st1" d="M1108.08,610.43c3.61-3.35,6.33-7.37,8.76-11.6c4.53-4.51,5.21-9.51,2.1-15.14c-1.43-2.58-3.03-5-4.74-7.4
	c-1.4-1.95-3.9-3.21-4.03-6.01c0.19-0.28,0.37-0.56,0.56-0.84c1.24,2.68,3.98,4,5.7,6.29c2.9,3.87,5.31,7.93,6.63,13.23
	c3.17-5.34,5.37-10.44,7.26-16.5c2.49,7.94,5.02,15.02,9.2,21.39c3,4.57,6.33,8.84,10.2,12.7c0.5,0.5,1.29,1.03,0.95,1.83
	c-0.3,0.71-1.15,0.42-1.75,0.36c-13.32-1.42-26.49-0.15-39.61,2.1C1108.93,610.91,1108.49,610.58,1108.08,610.43z"/>
<path class="st3" d="M1046.28,513.96c-3.19-2.86-5.18-6.64-7.63-10.06c-5.48-7.64-10.69-15.47-16.17-23.11
	c-2.24-3.12-0.33-5.8,0.83-8.22c1.01-2.1,3.43-0.65,5.25-0.29c4.73,0.94,7.7,3.51,9.15,8.34c1.45,4.83,3.69,9.41,6.5,13.68
	c1.03,1.57,2.11,2.1,3.87,1.69c1.25-0.29,2.55-0.36,3.82-0.57c4.67-0.78,4.71-0.78,3.66,3.85c-0.99,4.41-2.97,8.3-6.31,11.45
	c-0.92,0.87-1.68,1.91-2.52,2.87C1046.58,513.72,1046.43,513.84,1046.28,513.96z"/>
<path class="st1" d="M906.19,694.2c0.11-0.42,0.23-0.85,0.34-1.27c2.88-5.32,5.77-10.65,8.65-15.98c1.04-0.31,1.59,0.56,2.03,1.11
	c2.23,2.75,3.52,2.31,5.18-0.75c11.6-21.34,20.77-43.73,29.06-66.51c3.99-10.95,7.33-22.1,10.63-33.27
	c0.27-0.91,0.35-2.58,1.49-2.28c1.35,0.35,0.63,1.86,0.34,2.85c-10.31,35.62-23.24,70.18-41.37,102.65
	c-0.72,1.29-0.64,1.95,0.38,3.03c2.83,3,6.03,5.77,7.28,9.94c-1.47,3.85-4.93,4.09-8.2,4.21c-4.58,0.17-8.9-1.19-13.01-3.17
	C908.09,694.32,907.28,693.65,906.19,694.2z"/>
<path class="st1" d="M1099.55,611.56c-13.62-7.62-24.37-18.58-34.45-30.19c-20.6-23.72-40.96-47.67-61.47-71.47
	c-5.04-5.85-10.68-10.95-17.92-14.11c-4.69-2.05-8.47-1.2-12.18,2.14c-4.53,4.08-9.26,7.93-13.96,11.82
	c-0.74,0.61-1.72,2.05-2.71,0.57c-0.85-1.28,0.84-1.55,1.49-2.11c4.85-4.13,9.8-8.16,14.64-12.3c3.81-3.26,7.92-4,12.63-2.2
	c7.76,2.97,13.73,8.33,19.02,14.45c20.86,24.12,41.49,48.43,62.43,72.47c8.81,10.11,18.19,19.71,29.64,26.96
	c2.11,1.34,4.2,2.69,6.63,3.4C1102.29,612.54,1100.89,611.85,1099.55,611.56z"/>
<path class="st3" d="M1127.95,559.77c-1.91,1.55-3.85,0.05-5.76-0.04c-2.17-0.1-4.79-0.03-6.33-1.21c-1.69-1.28-0.31-4.04-0.59-6.13
	c-0.98-7.36-4.36-13.76-7.94-20.09c-0.3-0.53-0.61-1.06-1.23-2.13c7.2,3.01,14.4,4.35,20.78,7.91c-0.32,4.84-0.38,9.7,0.22,14.52
	C1127.4,554.99,1126.75,557.49,1127.95,559.77z"/>
<path class="st3" d="M1110.72,569.44c-0.19,0.28-0.37,0.56-0.56,0.84c-0.35-0.09-0.82-0.06-1.03-0.28
	c-6.45-6.61-14.1-11.67-21.73-16.73c0.38-0.41,0.76-0.83,1.14-1.24c7.63,2.89,15.46,5.06,23.49,6.44c1.81,0.31,2.23,1.12,1.92,2.81
	C1113.44,564.23,1111.99,566.8,1110.72,569.44z"/>
<path class="st1" d="M871.03,653.63c3.64,0.97,7.3,1.87,10.91,2.95c0.93,0.28,2.21,0.33,2.57,1.64c-1.06,2.57-2.13,5.13-3.19,7.7
	c-0.14,0.54-0.28,1.09-0.41,1.63l0.01-0.1c-2.3,2.48-2.25,6.11-4.25,8.73c-0.03-1.33-0.58-2.44-1.28-3.57
	c-3.1-5.02-4.98-10.43-4.96-16.39C870.43,655.33,870.29,654.37,871.03,653.63z"/>
<path class="st3" d="M820.12,727.92c4.82,1.35,8.91,3.95,12.52,7.35c0.75,0.71,2.04,1.47,0.97,2.71c-1.14,1.33-1.88,0.03-2.69-0.67
	c-3.97-3.4-8.11-6.44-13.65-6.63c-0.4-0.01-0.79-0.41-1.19-0.62C817.25,729.01,818.67,728.44,820.12,727.92z"/>
<path class="st3" d="M828.88,722.97c5.53,1.32,9.51,4.98,13.34,8.85c0.66,0.67,0.83,1.48,0.05,2.18c-0.73,0.65-1.32,0.18-1.88-0.39
	c-4.05-4.11-8.61-7.42-14.2-9.12C827.09,723.98,827.98,723.47,828.88,722.97z"/>
<path class="st3" d="M838.74,718.05c4.21,2.1,8.08,4.68,11.25,8.22c0.72,0.8,1.87,1.7,0.65,2.78c-1.26,1.11-1.91-0.29-2.63-1.05
	c-3.67-3.89-8.04-6.66-13.1-8.38C836,718.65,837.29,718.15,838.74,718.05z"/>
<path class="st1" d="M1088.55,552.03c-0.38,0.41-0.76,0.83-1.14,1.24c-6.47-3-12.95-6-19.42-8.99c-0.41-0.51-0.82-1.01-1.23-1.52
	c0.53-0.8,1.2-0.62,1.94-0.32C1075.52,545.22,1082.13,548.42,1088.55,552.03z"/>
<path class="st1" d="M1127.95,559.77c-1.2-2.28-0.56-4.78-0.86-7.17c-0.6-4.82-0.54-9.67-0.22-14.52c0.88,1.15,0.35,2.47,0.36,3.7
	c0.04,5.32,0.19,10.62,0.99,15.88C1128.34,558.38,1128.45,559.12,1127.95,559.77z"/>
<path class="st1" d="M852.43,712.5c-1.65,0.01-3.3,0.02-4.95,0.03c1.5-1.15,3.19-0.29,4.78-0.47c0.09-0.01,0.2-0.03,0.27,0.01
	C853.05,712.34,852.48,712.36,852.43,712.5z"/>
<path class="st1" d="M785.86,747.55l-0.01-0.12c0.36-1.84,2-2.64,3.16-3.82C788.69,745.51,786.74,746.1,785.86,747.55z"/>
<path class="st1" d="M1074.12,496.94c-0.44,1.16-0.88,2.33-1.32,3.48C1072.09,498.82,1072.83,497.78,1074.12,496.94z"/>
<path class="st1" d="M1070.8,504.48c-0.02,0.9-0.36,1.65-1.01,2.27C1069.37,505.65,1069.48,504.8,1070.8,504.48z"/>
<path class="st1" d="M1068.72,509.3c-0.25,0.88-0.36,1.84-1.3,2.34C1067.22,510.51,1067.23,509.49,1068.72,509.3z"/>
<path class="st1" d="M792.5,740.8c-0.81,0.61-1.2,1.78-2.44,1.81C790.67,741.74,791.34,740.93,792.5,740.8z"/>
<path class="st1" d="M1069.83,506.7c-0.3,0.75-0.6,1.49-0.9,2.24C1068.12,507.74,1068.71,507.11,1069.83,506.7z"/>
<path class="st1" d="M1072.42,500.95c-0.24,0.63-0.49,1.27-0.73,1.9C1071.13,501.9,1071.19,501.19,1072.42,500.95z"/>
<path class="st1" d="M1071.54,503.14c-0.24,0.43-0.48,0.87-0.71,1.3C1070.66,503.79,1070.28,503.02,1071.54,503.14z"/>
<path class="st1" d="M1065.72,514.66c0.48,0.76,0.03,1.38-0.3,2.01l-0.22-0.04C1064.9,515.85,1065.11,515.2,1065.72,514.66z"/>
<path class="st1" d="M790.13,742.51c0.15,0.92-0.37,1.2-1.17,1.22C789.34,743.32,789.74,742.91,790.13,742.51z"/>
<path class="st1" d="M1063.82,519.95c-0.24,0.69-0.24,1.6-1.36,1.47C1062.51,520.56,1062.81,519.93,1063.82,519.95z"/>
<path class="st1" d="M1075.2,494.38c-0.12,0.35-0.24,0.7-0.36,1.04C1074.41,494.88,1074.53,494.54,1075.2,494.38z"/>
<path class="st1" d="M1076.39,492.43c-0.2,0.31-0.4,0.62-0.6,0.92C1075.67,492.84,1075.6,492.35,1076.39,492.43z"/>
<path class="st1" d="M1075.8,493.35c-0.21,0.36-0.42,0.72-0.63,1.08C1075.03,493.86,1075.03,493.38,1075.8,493.35z"/>
<path class="st1" d="M1077.69,490.68c-0.16,0.25-0.31,0.51-0.46,0.75C1076.61,490.71,1077.16,490.7,1077.69,490.68z"/>
<path class="st1" d="M1079.58,488.99c-0.25,0.25-0.5,0.5-0.75,0.75C1078.62,489.03,1078.83,488.74,1079.58,488.99z"/>
<path class="st1" d="M1074.61,495.77c-0.08,0.28-0.15,0.57-0.23,0.85C1074.1,496.24,1073.76,495.85,1074.61,495.77z"/>
<path class="st1" d="M1065.22,516.6c0.03,0.49,0.05,0.97-0.55,1.16C1064.52,517.22,1064.48,516.73,1065.22,516.6z"/>
<path class="st1" d="M1064.71,518.54c-0.2,0.19-0.4,0.38-0.6,0.56c-0.14-0.6-0.28-1.2,0.6-1.34
	C1064.71,518.02,1064.71,518.28,1064.71,518.54z"/>
<path class="st1" d="M1067.46,512.54c-0.2,0.15-0.39,0.31-0.59,0.46c-0.15-0.61-0.2-1.17,0.58-1.41
	C1067.46,511.91,1067.46,512.23,1067.46,512.54z"/>
<path class="st1" d="M1078.09,490.02c-0.15,0.25-0.31,0.5-0.46,0.75C1077.47,490.33,1077.61,490.07,1078.09,490.02z"/>
<path class="st1" d="M1080.15,488.63c-0.06,0.2-0.19,0.28-0.4,0.22C1079.67,488.38,1079.86,488.4,1080.15,488.63z"/>
<path class="st1" d="M1080.65,488.01l0.04,0.18c0,0-0.15,0.09-0.14,0.08c-0.06-0.04-0.12-0.08-0.19-0.12
	C1080.45,488.1,1080.55,488.05,1080.65,488.01z"/>
<path class="st1" d="M1076.78,491.89c-0.09,0.13-0.18,0.26-0.26,0.38C1076.42,492.01,1076.27,491.72,1076.78,491.89z"/>
<path class="st1" d="M785.48,747.77c-0.13,0.11-0.26,0.23-0.4,0.34C785.21,748,785.34,747.89,785.48,747.77z"/>
<path class="st1" d="M1078.79,489.74c-0.26,0.12-0.53,0.23-0.8,0.35C1078.11,489.63,1078.36,489.5,1078.79,489.74z"/>
<path class="st1" d="M1101.37,349.46c3.02-0.06,6.04-0.11,9.07-0.17c-0.15,0.43-0.29,0.86-0.43,1.29c-0.33,0.33-0.71,0.64-0.5,1.2
	l-0.02-0.14c-0.17,0.22-0.34,0.45-0.51,0.67l0.03-0.03c-0.56,0.57-1.12,1.14-1.67,1.71l0.05-0.03c-2.75,0.61-5.55,0.65-8.34,0.66
	c-0.88,0-1.92-0.22-1.67,1.26c-0.7,1.18-1.71,2.27-2.03,3.54c-1.27,5.08-4.83,6.38-9.49,6.26c-2.01-0.05-4.03,0.18-6.04,0.27
	c-2.92,0.14-5.22-0.78-6.35-3.71c-0.57-2.11-0.98-4.29-1.75-6.33c-0.75-1.99-1.98-2.2-3.24-0.28l0.03-0.03
	c-1.1,3-0.24,6.31-1.46,9.29c-0.35,0.88-1.32,0.9-1.94,1.4c-5.34,0.86-10.68,2.34-15.99-0.16c-2.01-2.15-3.81-4.41-3.99-7.53
	c-0.02-0.34-0.19-0.74-0.42-0.99c-2.4-2.53-4.97-5.04,1.45-5.12c0.99-0.01,0.76-1.05,0.73-1.77c0.67-0.69,1.34-1.38,2.01-2.08
	c0.16-0.1,0.32-0.2,0.48-0.3c5.24-1.47,10.53-1.37,15.84-0.43l-0.05-0.02c0.35,0.18,0.69,0.37,1.04,0.55
	c1.23,1.05,1.8,3.17,4.08,2.51c0.82,0.28,1.25-0.19,1.58-0.84l0.02-0.03c0.2-0.37,0.4-0.74,0.6-1.1l-0.04,0.05
	c0.38-0.38,0.76-0.77,1.14-1.15l-0.04,0.03c0.57-0.37,1.14-0.75,1.72-1.12l-0.07,0.02c5.53-0.94,11.11-0.76,16.68-0.6
	C1094.94,347.53,1097.13,351.53,1101.37,349.46z M1065.24,354.55c0.15-0.94-0.04-1.79-0.63-2.54c-0.26-0.26-0.53-0.52-0.79-0.79
	c-2.05-0.92-4.32-1.38-6.39-0.87c-2.79,0.69-6.12-0.86-8.39,1.96l0.04-0.04c-1.39,2.76-0.89,5.57-0.17,8.37
	c0.53,2,1.72,3.34,3.77,3.86c2.78,0.95,5.57,0.52,8.35,0.01c1.49-0.27,3.14-0.3,3.65-2.21l-0.04,0.04c0.92-2.57,1.54-5.15,0.58-7.86
	L1065.24,354.55z M1092.46,360.16c1.02-2.33,0.82-4.82,0.97-7.26c0.12-2.05-0.86-3.38-2.77-3.87c-4.67-1.19-9.33-0.43-13.84,0.73
	c-2.1,0.54-2.49,3.07-1.93,4.93c0.83,2.78-1.04,6.65,3.06,8.2c3.27,1.42,6.79,0.42,10.17,0.78
	C1089.36,363.8,1092.45,363.09,1092.46,360.16z"/>
<path class="st3" d="M1054.58,420.12c0.86,5.28,0.99,10.65,2.1,15.9c0.63,2.98,1.29,5.88,3.37,8.98c-4.26-0.88-7.83-1.79-10.61-4.58
	c-3.6-3.63-5.91-7.93-7.01-12.96c-0.58-2.63-0.14-4.25,2.77-4.64c0.62-0.08,1.21-0.41,1.81-0.63
	C1049.53,421.5,1052.05,420.81,1054.58,420.12z"/>
<path class="st2" d="M1076.33,426.44c0.06-2.07-1.49-2.26-2.96-2.52c-3.1-0.55-6.24-1-7.59-4.52c-0.51-1.34-1.57-0.82-2.58-0.66
	c-2.28,0.37-4.46,1.66-6.88,0.75c2.68-0.58,5.34-1.27,8.05-1.68c1.46-0.22,1.85-0.56,1.34-2.05c-0.85-2.5-1.46-5.09-2.23-7.84
	c1.69-0.31,3.3-0.61,4.91-0.91c2.1,1.87,4.7,1.13,7.08,1.22c1.71,0.06,2.16,0.54,2.14,2.2c-0.05,4.03-0.37,8.07,0.3,12.09
	C1078.17,424.12,1077.06,425.21,1076.33,426.44z"/>
<path class="st2" d="M1102.69,418.88c-5.94,2.61-11.99,4.64-18.61,4.52c-1.3-0.02-2.92-1.7-3.99,0.47
	c-0.06-4.52-0.05-9.03-0.2-13.54c-0.06-1.7,0.57-2.53,2.16-2.95c8.92-2.32,17.51-5.54,25.89-9.35c0.04,0.15,0.08,0.3,0.12,0.45
	c0.16-0.06,0.38-0.08,0.48-0.2c1.54-1.81,2.51-4.96,5.86-2.46c0.82,3.85,1.71,7.7,2.42,11.57c0.22,1.22,0.95,1.89,1.75,2.62
	c-2.68-0.09-4.67,0.82-5.31,3.68c-0.64-0.68-1.18-0.77-2.07-0.17C1108.42,415.39,1105.53,417.1,1102.69,418.88z"/>
<path class="st6" d="M1168.81,415.11c-0.05,0.07-0.1,0.16-0.16,0.22c-5.06,4.38-5.6,4.33-9.8-0.87
	C1162.19,414.37,1165.55,414.06,1168.81,415.11z"/>
<path class="st2" d="M1147.97,416.79c-0.62-1.72-2.11-1.15-3.3-1.18c-4.22-0.11-8.39-0.46-12.33-2.19c2.96,0.4,5.91,0.8,8.87,1.2
	c2.28,1.25,5.04-0.49,7.25,1.17C1148.3,416.12,1148.13,416.45,1147.97,416.79z"/>
<path class="st1" d="M1114.4,395.82c-3.35-2.5-4.32,0.65-5.86,2.46c-0.1,0.12-0.32,0.14-0.48,0.2c-0.04-0.15-0.08-0.3-0.12-0.45
	c1.23-0.66,1.81-1.58,1.23-2.98C1111,394.68,1113.05,392.9,1114.4,395.82z"/>
<path class="st6" d="M1148.46,415.78c-2.21-1.65-4.98,0.08-7.25-1.17c2.68,0.03,5.36,0.05,8.04,0.08
	C1148.98,415.05,1148.72,415.42,1148.46,415.78z"/>
<path class="st2" d="M1126.87,412.23c-1.43,0.09-2.84,0.09-3.96-1.01C1124.35,411.08,1125.68,411.38,1126.87,412.23z"/>
<path class="st2" d="M1129.6,412.79c-0.79,0.03-1.61,0.19-2.25-0.47C1128.14,412.24,1128.99,411.95,1129.6,412.79z"/>
<path class="st2" d="M1131.85,413.35c-0.83,0.03-1.68,0.17-2.31-0.59C1130.32,412.9,1131.26,412.41,1131.85,413.35z"/>
<path class="st2" d="M1120.77,410.57c-0.65,0.04-1.3,0.07-1.76-0.53C1119.67,409.95,1120.34,409.86,1120.77,410.57z"/>
<path class="st2" d="M1122.42,411.13c-0.39-0.17-0.79-0.33-1.18-0.5C1121.75,410.52,1122.2,410.54,1122.42,411.13z"/>
<path class="st4" d="M905.94,566.6c0.49,1.01,0.44,1.7-0.65,2.46c-4.4,3.07-8.71,6.28-13.05,9.44c-1.05,0.22-1.67-0.33-2.23-1.15
	c-6.59-9.58-12.9-19.35-20.36-28.3c-0.41-0.49-0.42-0.99-0.25-1.55c0.94-1.04,2.31-1.68,2.82-3.1c5.05-3.69,9.45-8.12,14.13-12.23
	c5.79,10.35,11.58,20.7,17.39,31.04C904.4,564.39,904.7,565.8,905.94,566.6z"/>
<path class="st1" d="M886.36,532.18c-4.68,4.11-9.09,8.54-14.13,12.23c-4.17-9.43-6.58-19.32-7.09-29.6
	c-0.18-3.76-0.28-7.95,4.22-9.94c1.52,0.06,2.6,0.98,3.43,2.07C878.66,514.62,882.79,523.24,886.36,532.18z"/>
<path class="st1" d="M1110.66,349.59l-0.17-0.06l0.07-0.08C1110.57,349.48,1110.61,349.53,1110.66,349.59z"/>
<path class="st4" d="M1070.27,350.97c-2.28,0.66-2.85-1.46-4.08-2.51c-0.13-0.59-0.63-0.48-1.04-0.55l0.05,0.02
	c-5.33-1.69-10.62-1.82-15.84,0.43c-0.16,0.1-0.32,0.2-0.48,0.3c-2.03-2.61-1.56-5.66-1.12-8.51c0.68-4.36,1.9-8.64,2.72-12.98
	c0.26-1.38,1.06-0.82,1.59-0.71c11.49,2.3,22.97,1.94,34.45-0.09c2.68-0.47,5.37-0.2,7.86,1.01c2.47,1.2,4.44,3.01,4.16,5.97
	c-0.51,5.37-0.45,10.53,3,15.08c0.15,0.19-0.1,0.68-0.16,1.03c-4.25,2.07-6.43-1.93-9.53-3.24c-5.59-0.74-11.18-1.16-16.68,0.6
	l0.07-0.02c-0.78,0.06-1.39,0.38-1.72,1.12l0.04-0.03c-0.69,0.07-1.01,0.52-1.14,1.15l0.04-0.05c-0.5,0.2-0.65,0.6-0.6,1.1
	l-0.02,0.03C1071.27,350.32,1070.31,349.78,1070.27,350.97z"/>
<path class="st6" d="M1115.3,333.46c0.69,1.47,0.71,2.94-0.03,4.41C1115.28,336.4,1115.29,334.93,1115.3,333.46z"/>
<path class="st2" d="M1146.84,418.7c-0.05-0.88,0.18-1.6,1.13-1.9C1147.58,417.43,1147.21,418.07,1146.84,418.7z"/>
<path class="st2" d="M1067.98,544.28c6.47,3,12.95,6,19.42,8.99c7.64,5.06,15.28,10.12,21.73,16.73c0.21,0.22,0.68,0.19,1.03,0.28
	c0.14,2.8,2.64,4.06,4.03,6.01c1.71,2.39,3.31,4.82,4.74,7.4c3.11,5.63,2.43,10.62-2.1,15.14c-2.57-3.52-6.46-5.55-9.57-8.46
	c0.97-1.93-0.13-3.4-1.19-4.77c-1.76-2.25-3.59-4.44-5.51-6.56c-4.77-5.29-9.6-10.53-17.09-11.94l0.03,0.02
	c-0.19,0-0.38,0.01-0.56,0.01c-4.83-7.01-9.67-14-14.47-21.03C1068.14,545.61,1068.14,544.89,1067.98,544.28z"/>
<path class="st3" d="M1026.83,426.84c1.13-0.31,1.84,0.05,2.47,1.11c3.12,5.24,7.1,9.8,11.46,14.02c1.31,1.27,1.43,2.12,0.28,3.68
	c-2.16,2.92-4.5,5.78-5.85,9.23c-0.23,0.37-0.46,0.75-0.69,1.12l0.03-0.04c-0.17,0.4-0.34,0.79-0.5,1.19l0,0
	c-0.68,0.59-0.99,1.36-1.03,2.25l-0.01,0.04c-0.83,0.89-0.93,2.06-1.26,3.15c-0.17,0.06-0.34,0.11-0.51,0.16
	c-0.68-0.2-1.35-0.4-2.03-0.6l0.01,0.01c-0.32-0.18-0.64-0.35-0.96-0.53c-0.02-0.15-0.11-0.22-0.26-0.21
	c-0.15-1.46-0.31-2.93-0.45-4.4c-0.53-5.81-1.43-11.53-4.01-16.84c-0.28-0.58-0.44-1.59-1.43-1.41c-0.76,0.15-0.7,1.01-0.91,1.59
	c-1.33,3.7-2.64,7.4-4.03,11.33c-4.18-4.98-9.93-6.57-15.79-7.91c-0.63-0.85-2.07-0.24-2.58-1.54c2.71-2.03,5.46-4.09,8.21-6.15
	c4.57,0.46,9.19,0.13,13.72,1.07c1.3,0.27,2.06-0.14,2.55-1.41C1024.39,432.78,1025.63,429.82,1026.83,426.84z"/>
<path class="st3" d="M1114.05,437.23c-3.67,5.51-7.92,10.16-10.71,15.77c-2.79,5.6-5.64,11.19-7.7,17.11
	c-0.48,1.39-1.13,1.73-2.43,1.3c-0.87-0.29-1.76-0.56-2.66-0.76c-6.59-1.51-6.61-1.51-5.82-8.11c0.69-5.77,1.48-11.53,2.11-17.31
	c0.17-1.54,0.74-2.23,2.3-2.51c2.73-0.49,5.5-1.21,7.77-2.76C1102.15,436.38,1107.96,437.47,1114.05,437.23z"/>
<path class="st2" d="M1001.34,443.8c5.86,1.35,11.6,2.93,15.79,7.91c1.4-3.93,2.71-7.64,4.03-11.33c0.21-0.58,0.15-1.45,0.91-1.59
	c0.99-0.19,1.15,0.83,1.43,1.41c2.57,5.31,3.47,11.04,4.01,16.84c0.14,1.47,0.3,2.93,0.45,4.4c-2.24-1.45-1.26-3.93-1.37-5.74
	c-0.3-4.63-1.9-8.86-2.93-12.89c-5.93,7.5-7.89,16.68-9.06,26.92c-2.89-3.57-4.83-6.99-7.69-9.26c-4.46-3.54-4.73-7.37-2.54-12.02
	C1005.84,445.27,1002.44,445.28,1001.34,443.8z"/>
<path class="st3" d="M1102.69,418.88c2.84-1.77,5.73-3.48,8.5-5.36c0.9-0.61,1.43-0.51,2.07,0.17c3.92,7.23,9.21,13.45,14.87,19.96
	c-4.38,0.8-8.38,1.52-12.43,2.26c0.38-8.26-5.83-11.75-11.17-15.86C1103.96,419.61,1103.31,419.27,1102.69,418.88z"/>
<path class="st3" d="M1046.26,465.36c7.87-0.57,14.72-1.33,21.65-0.82c2.16,0.16,2.64,0.79,1.68,2.85
	c-1.64,3.5-3.02,7.11-4.51,10.68c-0.43,1.02-0.83,1.93-2.15,0.85C1057.6,474.56,1052.25,470.23,1046.26,465.36z"/>
<path class="st2" d="M1026.83,426.84c-1.2,2.97-2.44,5.93-3.58,8.93c-0.48,1.27-1.25,1.68-2.55,1.41
	c-4.53-0.94-9.15-0.61-13.72-1.07C1012.35,430.36,1018.84,427.01,1026.83,426.84z"/>
<path class="st1" d="M1083.48,567.1c7.49,1.41,12.32,6.66,17.09,11.94c1.91,2.12,3.75,4.31,5.51,6.56c1.07,1.37,2.17,2.84,1.19,4.77
	c-2.62-1.29-3.49-4.13-5.34-6.13c-5.01-5.42-9.55-11.31-16.67-14.28C1084.18,569.52,1083.34,568.51,1083.48,567.1z"/>
<path class="st2" d="M1112.16,471.7c-1.61,1.04-3.29,1.93-5.21,2.23C1108.35,472.42,1109.94,471.33,1112.16,471.7z"/>
<path class="st2" d="M1031.71,462.58c0.34-1.08,0.43-2.26,1.26-3.15C1032.97,460.65,1033.13,461.94,1031.71,462.58z"/>
<path class="st2" d="M1029.17,462.15c0.68,0.2,1.35,0.4,2.03,0.6C1030.15,463.83,1029.66,462.97,1029.17,462.15z"/>
<path class="st2" d="M1032.98,459.39c0.04-0.89,0.35-1.65,1.03-2.25C1034.17,458.12,1033.99,458.95,1032.98,459.39z"/>
<path class="st2" d="M1056.56,618.24c-0.74,0.6-1.6,0.47-2.45,0.39C1054.86,618.05,1055.72,618.2,1056.56,618.24z"/>
<path class="st2" d="M1028.22,461.64c0.32,0.18,0.64,0.35,0.96,0.53C1028.86,461.99,1028.54,461.81,1028.22,461.64z"/>
<path class="st2" d="M1105.73,474.58c-0.14,0.59-0.61,0.47-1.03,0.47C1104.91,474.59,1105.28,474.49,1105.73,474.58z"/>
<path class="st2" d="M1106.85,474.01c-0.13,0.59-0.57,0.53-1.01,0.48C1106.02,474,1106.4,473.92,1106.85,474.01z"/>
<path class="st2" d="M1034.02,457.14c0.17-0.4,0.34-0.79,0.5-1.19C1034.59,456.45,1034.49,456.88,1034.02,457.14z"/>
<path class="st2" d="M1034.49,455.99c0.23-0.37,0.46-0.75,0.69-1.12C1035.15,455.37,1035.02,455.8,1034.49,455.99z"/>
<path class="st1" d="M1082.94,567.13c0.19,0,0.38-0.01,0.56-0.01C1083.32,567.12,1083.13,567.13,1082.94,567.13z"/>
<path class="st4" d="M876.6,677.02c1.99-2.94,3.29-6.19,4.32-9.56l-0.01,0.1c0.54-0.44,0.74-0.97,0.41-1.63
	c1.06-2.57,2.13-5.13,3.19-7.7c5.89,1.28,10.82,4.58,15.83,7.65c5.27,3.23,10.34,6.79,14.84,11.08c-2.88,5.33-5.77,10.65-8.65,15.98
	c-8.89-5.54-18.29-10.04-28.15-13.58C877.23,678.93,876.02,678.7,876.6,677.02z"/>
<path class="st4" d="M1063.83,351.22c0.26,0.26,0.53,0.52,0.79,0.79c0.09,0.88-0.07,1.82,0.63,2.54l-0.02-0.05
	c0.33,2.66-0.42,5.24-0.58,7.86l0.04-0.04c-3.61,2.87-7.87,2.15-12,2.19c-2.04-0.52-3.24-1.86-3.77-3.86
	c0.06-2.79,0.11-5.58,0.16-8.37l-0.04,0.04C1053.84,350.11,1058.85,350.86,1063.83,351.22z M1055.77,358.41
	c0.19,0.19,0.38,0.37,0.56,0.56c1.62,1.14,3.11,0.88,4-0.81c0.55-1.05,0.76-2.15-1-2.97c-1.93-0.9-3.15-1.01-4.11,1.03
	C1054.08,357.27,1055.47,357.7,1055.77,358.41z"/>
<path class="st4" d="M1092.39,360.1c-2.3,3.37-5.89,2.84-9.22,2.98c-1.74,0.07-3.49-0.13-5.23-0.2c-2.88-2.92-2.55-6.67-2.52-10.27
	c0.02-2.22,1.96-2.81,3.68-3.04c2.89-0.38,5.83-0.61,8.74-0.61c3.99,0,5.42,1.65,5.18,5.68
	C1092.91,356.46,1092.61,358.28,1092.39,360.1z M1082.89,353.05c-0.47-0.09-0.81,0.02-0.84,0.58l-0.09,0.18
	c-1.44,0.79-1.31,1.7-0.2,2.68c1.38,1.04,2.92,1.59,4.04-0.1c0.81-1.22,0.47-2.63-0.9-3.54c-0.58-0.63-1.16-0.82-1.73,0.02
	C1083.12,352.98,1083.02,353.04,1082.89,353.05z"/>
<path class="st1" d="M1056.33,358.96c-0.18-0.18-0.37-0.37-0.55-0.55c-0.18-0.73-0.37-1.46-0.55-2.19c1.32-0.91,2.59-1.94,4.29-0.64
	c0.98,0.75,0.63,1.53,0.29,2.37C1059.07,359.76,1057.61,359.04,1056.33,358.96z"/>
<path class="st1" d="M1084.91,352.84c1.37,0.91,1.71,2.32,0.9,3.54c-1.11,1.68-2.66,1.13-4.04,0.1c-0.67-0.95-0.36-1.83,0.2-2.69
	c0,0,0.09-0.18,0.09-0.17c0.28-0.19,0.56-0.39,0.84-0.58c0.13-0.01,0.23-0.07,0.28-0.18
	C1083.75,352.86,1084.33,352.85,1084.91,352.84z"/>
<path class="st3" d="M785.86,747.55c4.7-0.99,8.82,0.39,12.89,2.74c8.94,5.17,17.53,10.91,26.71,15.7
	c6.8,3.55,13.52,3.78,20.62,1.69c9.88-2.91,19.74-3.47,29.67-0.13c5.87,1.97,11.66,0.75,17.38-0.95c5.18,3.07,6.16,11.25,1.87,15.52
	c-0.87,0.87-1.84,1.39-3.14,1.52c-11.08,1.1-22.08,0.27-33.05-1.28c-0.87-0.12-1.8-0.48-2.52-0.99c-4.04-2.9-8.05-0.19-11.99,0.16
	c-15.03,1.31-29.53-0.99-43.78-5.53c-0.52-0.17-1.08-0.22-1.62-0.33c-6.11-2.76-12.53-4.88-18.08-8.82
	c-5.65-4.01-6.19-8.71-1.33-13.81c1.7-1.79,3.71-3.29,5.58-4.92c0.13-0.11,0.26-0.23,0.4-0.34c0.15-0.09,0.28-0.2,0.37-0.35
	C785.85,747.43,785.86,747.55,785.86,747.55z"/>
<polygon class="st2" points="763.86,841.89 803.27,681.24 749,681.24 0,681.24 0,841.89 "/>
<rect x="1259.8" y="687.06" class="st2" width="36.64" height="154.83"/>
<text transform="matrix(1 0 0 1 158.4956 46.6646)" class="st0 st7 st8">Login</text>
<text transform="matrix(1 0 0 1 229.4489 46.6646)" class="st0 st7 st8">/</text>
<text transform="matrix(1 0 0 1 253.442 46.6646)" class="st0 st7 st8">Register</text>
<g>
	<path class="st4" d="M898.95,369.76c-0.62,0.65-0.75,1.67-0.5,2.54s0.82,1.61,1.44,2.27c0.5,0.53,1.05,1.02,1.55,1.55
		c-0.11-2.24-0.23-4.49-0.34-6.73C900.44,369.02,899.5,369.19,898.95,369.76z"/>
	<path class="st4" d="M898.63,344.98c-0.79,0.59-1.21,1.61-1.19,2.6c0.02,0.99,0.42,1.94,1.01,2.75c0.48,0.66,1.07,1.22,1.71,1.74
		c-0.14-2.52-0.29-5.03-0.44-7.54C899.33,344.59,898.95,344.75,898.63,344.98z"/>
	<path class="st4" d="M898.38,359.65c0.15,0.16,0.31,0.31,0.48,0.46c0.59,0.53,1.23,1.01,1.83,1.52c-0.1-1.79-0.19-3.58-0.29-5.37
		c-0.04-0.73-0.08-1.46-0.13-2.19c-0.92-0.39-2.1-0.15-2.77,0.61c-0.68,0.78-0.78,1.95-0.44,2.93
		C897.33,358.39,897.81,359.07,898.38,359.65z"/>
	<path class="st4" d="M898.38,359.65c-1.2,0.33-1.91,1.74-1.76,2.99c0.15,1.29,0.99,2.4,1.93,3.3c0.8,0.76,1.7,1.41,2.49,2.18
		c-0.11-2.16-0.23-4.32-0.35-6.48c-0.61-0.52-1.24-0.99-1.83-1.52C898.69,359.97,898.53,359.82,898.38,359.65z"/>
	<path class="st9" d="M911.89,394.14c0.05,0,0.09,0,0.13,0c3.8,0,7.6,0.06,11.4,0.17c1.12,0.03,2.24,0.05,3.36,0.07
		c-4.15,1.11-8.36,2.01-12.6,2.71C913.32,396.2,912.53,395.23,911.89,394.14z"/>
	<path class="st4" d="M926.78,394.38c0.5,0.01,1.01,0.02,1.51,0.04c1.78,0.05,3.56-0.17,4.8-1.62c0.84-0.99,1.2-2.32,1.23-3.62
		c0.03-1.12-0.31-2.18-0.34-3.28c-0.02-0.8,0.14-1.55,0.08-2.36c-0.16-2.28-0.35-4.57-0.56-6.85c-0.38-4.22-0.84-8.45-1.35-12.66
		c-0.33-0.4-0.69-0.77-1.04-1.15c-2.12-2.3-4.03-4.8-5.68-7.45c-0.73-1.18-1.44-2.46-1.5-3.85s0.69-2.92,2.04-3.29
		c1.64-0.45,3.18,0.9,4.34,2.15c0.55,0.59,1.09,1.18,1.63,1.78c1.8,1.97,3.57,3.97,5.31,5.99c2.37,2.76,4.71,5.59,6.37,8.82
		c4.28,8.33,3.61,18.25,5.82,27.34c0.91,3.72,1.39,4.9,2.2,6.24c-7.21,7.6-3.43,3.65-8.76,9.03c-2.85,2.88-5.77,5.68-8.67,8.51
		l-0.02-0.02c-2.69-4.96-6.49-9.52-10.57-13.37c-2.91-2.75-6.62-4.78-9.42-7.65C918.42,396.39,922.63,395.49,926.78,394.38z"/>
	<path class="st10" d="M931.1,368.22c-1.83-2.18-3.48-4.52-4.92-6.98c-0.99-1.69-1.89-3.48-2.19-5.41
		c-0.16-1.02-0.12-2.09,0.13-3.08c0.27,0.95,0.78,1.84,1.31,2.69c1.52,2.44,3.25,4.75,5.17,6.89l0.09,2.36
		C930.83,365.86,930.96,367.04,931.1,368.22z"/>
	<path class="st0" d="M923.99,355.82c0.3,1.94,1.2,3.72,2.19,5.41c1.44,2.46,3.09,4.8,4.92,6.98c0.33,2.92,0.62,5.8,0.88,8.61
		c0.21,2.34,0.4,4.63,0.56,6.82c0.02,0.33,0,0.69-0.03,1.07c-0.03,0.37-0.06,0.78-0.05,1.23c0.02,0.6,0.1,1.15,0.19,1.69
		s0.17,1.04,0.15,1.51c-0.03,1.09-0.33,2.04-0.86,2.66c-0.7,0.82-1.75,1.14-3.59,1.08c-0.89-0.03-1.78-0.04-2.67-0.06
		c-0.73-0.01-1.47-0.03-2.2-0.05c-3.79-0.11-6.12-0.17-9.91-0.17h-0.92c-1.25-0.01-2.16-0.01-3.45,0.07
		c-0.79,0.05-1.88-0.02-2.57-0.61c-0.42-0.36-0.73-0.96-0.89-1.71c-0.19-0.88-0.24-1.9-0.29-2.89l-0.03-0.51
		c-0.05-0.91-0.09-1.81-0.13-2.72c-0.02-0.52-0.04-1.04-0.07-1.56c-0.1-2.19-0.21-4.39-0.32-6.58v-0.04
		c-0.11-2.24-0.23-4.49-0.34-6.73l-0.11-2.11c-0.1-1.88-0.2-3.77-0.3-5.65l-0.01-0.27c-0.09-1.7-0.18-3.4-0.28-5.1l-0.13-2.19
		c-0.03-0.67-0.07-1.34-0.12-2.02c-0.14-2.51-0.29-5.02-0.44-7.54l-0.02-0.34c-0.04-0.74-0.09-1.49-0.13-2.24
		c-0.05-0.75-0.11-1.51-0.17-2.27c-0.12-1.54-0.25-3.14-0.24-4.66c0-0.29,0-0.58-0.01-0.86c-0.02-1.61,0-2.57,0.7-3.51
		c1.22-1.63,3.48-1.53,6.54-1.22c0.46,0.05,0.91,0.09,1.35,0.13c3.3,0.25,4.83,0.55,8.61,0.9c0.45,0.04,0.94,0.07,1.45,0.11
		c1.99,0.13,4.26,0.27,5.46,1.28c0.78,0.65,1.41,1.66,1.82,2.92c0.71,2.17,0.87,4.63,1.02,7.02c0.05,0.75,0.09,1.49,0.15,2.22
		l0.35,4.17l0.08,2.18c-1.14-1.19-2.61-2.4-4.17-1.97c-1.34,0.37-2.1,1.89-2.04,3.29c0.02,0.39,0.09,0.78,0.2,1.15
		C923.86,353.73,923.83,354.8,923.99,355.82z"/>
	<path class="st11" d="M930.68,364.68l-0.09-2.36c0.17,0.19,0.34,0.38,0.51,0.56c0.35,0.38,0.71,0.75,1.04,1.15
		c0.25,2.05,0.49,4.11,0.71,6.16c-0.6-0.64-1.19-1.3-1.75-1.98C930.96,367.04,930.83,365.86,930.68,364.68z"/>
	<path class="st11" d="M900.16,329.64c2.12-2.85,6.19-1.93,9.23-1.7c3.52,0.27,7.03,0.58,10.54,0.91c2.41,0.23,5.8,0.11,7.75,1.73
		c1.11,0.93,1.84,2.24,2.29,3.61c1,3.04,0.97,6.42,1.24,9.59c0.24,2.81,0.47,5.62,0.71,8.43c-0.54-0.59-1.08-1.19-1.63-1.78
		c-0.05-0.06-0.11-0.12-0.17-0.18l-0.08-2.18l-0.35-4.17c-0.06-0.73-0.11-1.47-0.15-2.22c-0.15-2.38-0.3-4.85-1.02-7.02
		c-0.41-1.26-1.04-2.26-1.82-2.92c-1.21-1.01-3.47-1.15-5.46-1.28c-0.51-0.03-1-0.06-1.45-0.11c-3.79-0.35-5.32-0.65-8.61-0.9
		c-0.43-0.03-0.88-0.08-1.35-0.13c-3.06-0.32-5.32-0.42-6.54,1.22c-0.7,0.94-0.72,1.9-0.7,3.51c0,0.28,0.01,0.57,0.01,0.86
		c-0.01,1.52,0.12,3.12,0.24,4.66c0.06,0.76,0.12,1.52,0.17,2.27c0.05,0.74,0.09,1.49,0.13,2.24l0.02,0.34
		c0.15,2.52,0.3,5.03,0.44,7.54c0.04,0.67,0.08,1.35,0.12,2.02l0.13,2.19c0.09,1.7,0.18,3.4,0.28,5.1l0.01,0.27
		c0.1,1.88,0.2,3.76,0.3,5.65l0.11,2.11c0.12,2.24,0.23,4.49,0.34,6.73v0.04c0.11,2.19,0.22,4.39,0.32,6.58
		c0.03,0.52,0.05,1.04,0.07,1.56c0.04,0.9,0.08,1.81,0.13,2.72l0.03,0.51c0.05,0.99,0.1,2.01,0.29,2.89
		c0.16,0.75,0.48,1.35,0.89,1.71c0.69,0.6,1.78,0.66,2.57,0.61c1.28-0.08,2.19-0.07,3.45-0.07h0.92c3.8,0,6.12,0.06,9.91,0.17
		c0.73,0.02,1.47,0.03,2.2,0.05c0.89,0.02,1.78,0.03,2.67,0.06c1.84,0.06,2.88-0.26,3.59-1.08c0.53-0.62,0.84-1.57,0.86-2.66
		c0.01-0.47-0.07-0.98-0.15-1.51s-0.17-1.09-0.19-1.69c-0.01-0.44,0.02-0.86,0.05-1.23c0.03-0.38,0.06-0.74,0.03-1.07
		c-0.16-2.19-0.34-4.49-0.56-6.82c-0.25-2.81-0.55-5.7-0.88-8.61c0.57,0.67,1.15,1.33,1.75,1.98c0.23,2.17,0.45,4.33,0.64,6.5
		c0.21,2.28,0.39,4.57,0.56,6.85c0.06,0.81-0.1,1.57-0.08,2.36c0.03,1.1,0.37,2.16,0.34,3.28c-0.03,1.3-0.39,2.63-1.23,3.62
		c-1.24,1.45-3.01,1.67-4.8,1.62c-1.62-0.05-3.25-0.06-4.87-0.11c-3.8-0.11-7.6-0.17-11.4-0.17c-0.05,0-0.09,0-0.13,0
		c-1.5,0-3.02-0.03-4.51,0.06c-1.28,0.08-2.67-0.12-3.67-0.98c-0.75-0.64-1.18-1.58-1.39-2.55c-0.25-1.16-0.28-2.46-0.35-3.64
		c-0.08-1.43-0.13-2.86-0.2-4.29c-0.1-2.2-0.21-4.41-0.32-6.61l0,0c-0.11-2.24-0.23-4.49-0.34-6.73c-0.02-0.43-0.04-0.86-0.06-1.28
		c-0.11-2.16-0.23-4.32-0.35-6.48c-0.1-1.79-0.19-3.58-0.29-5.37c-0.04-0.73-0.08-1.46-0.13-2.19c-0.03-0.67-0.07-1.34-0.11-2.01
		c-0.14-2.52-0.29-5.03-0.44-7.54c-0.05-0.86-0.1-1.71-0.15-2.57c-0.14-2.33-0.42-4.71-0.41-7.04
		C899.17,333.02,898.93,331.29,900.16,329.64z"/>
	<g>
		<path class="st12" d="M938.2,385.56c0.12,0,0.24-0.04,0.34-0.12c0.24-0.19,0.29-0.54,0.1-0.78c-3.04-3.92-4.66-9-4.45-13.95
			c0.01-0.26,0.03-0.53,0.04-0.79c0.08-1.37,0.17-2.78-0.34-4.12c-0.27-0.7-0.69-1.37-1.36-2.15c-0.2-0.23-0.55-0.26-0.79-0.06
			c-0.23,0.2-0.26,0.55-0.06,0.79c0.58,0.68,0.94,1.25,1.16,1.83c0.42,1.11,0.35,2.35,0.27,3.65c-0.02,0.27-0.03,0.54-0.04,0.81
			c-0.23,5.21,1.48,10.57,4.68,14.69C937.87,385.49,938.03,385.56,938.2,385.56z"/>
	</g>
	<g>
		<path class="st12" d="M900.55,362.08c0.16,0,0.32-0.07,0.43-0.2c0.2-0.24,0.16-0.59-0.07-0.79c-0.19-0.16-0.39-0.32-0.58-0.47
			c-0.36-0.29-0.74-0.6-1.09-0.91c-0.21-0.19-0.4-0.38-0.57-0.56c-0.21-0.23-0.56-0.24-0.79-0.03s-0.24,0.56-0.03,0.79
			c0.19,0.21,0.4,0.41,0.64,0.63c0.37,0.34,0.76,0.65,1.14,0.95c0.19,0.15,0.38,0.31,0.57,0.46
			C900.3,362.03,900.42,362.08,900.55,362.08z"/>
	</g>
	<path class="st6" d="M930.93,421.37c1.08-1.08,2.17-2.16,3.26-3.23c2.9-2.83,5.83-5.63,8.67-8.51c5.33-5.38,1.55-1.43,8.76-9.03
		c0.66,1.08,1.54,2.26,3.05,4.99c8.62,15.62,18.34,30.6,28.22,45.47l0.03-0.02c1.05-2.31,2.09-4.63,3.13-6.95v59.85
		c-0.72-0.01-1.43-0.06-2.15-0.15c-5.77-0.74-10.9-4.21-14.78-8.54c-3.88-4.33-6.68-9.5-9.44-14.62c-2.84-5.27-5.68-10.53-8.51-15.8
		c-2.57-4.76-5.13-9.53-7.65-14.32c-2.58-4.91-5.11-9.85-7.53-14.84c-1.21-2.49-2.39-5-3.54-7.53c-0.58-1.26-1.14-2.53-1.7-3.8
		C930.31,423.34,930.05,422.26,930.93,421.37z"/>
	<g>
		<path class="st3" d="M975.77,455.06l2.03-11.71c-1.43-2.18-2.85-4.36-4.26-6.55c-1.86,2.92-4.22,6.36-4.22,6.36L975.77,455.06z"/>
		<path class="st3" d="M958.2,462.39c0,0-4.23,0.49-7.84,0.93c0.27,0.5,0.54,1.01,0.81,1.51c2.84,5.27,5.68,10.53,8.51,15.8
			c1.08,2.01,2.17,4.02,3.33,5.99c0.08-3.29,0.2-5.99,0.39-6.08c0.52-0.24,10.31-11.87,10.31-11.87S958.24,463,958.2,462.39z"/>
		<path class="st3" d="M964.78,422.9c-2.61-4.27-5.16-8.58-7.64-12.93c-3.91,4.32-8.69,8.77-8.69,8.77s10.57,4.2,12.11,5.16
			C961.16,424.27,962.89,423.72,964.78,422.9z"/>
		<path class="st3" d="M935.98,435.68c1.94,4,3.96,7.97,6.02,11.92c1.34-2.51,2.54-5.08,2.27-5.88c-0.58-1.7,13.93,4.27,13.93,4.27
			l-10.77-16.6l-12.48,4.1C935.29,434.22,935.63,434.95,935.98,435.68z"/>
	</g>
</g>
<path class="st6" d="M942.1,458.27c0,0,27.52-18.21,39.63-16.33s17.48,9.26,25.17,18.52c7.69,9.26,6.01,27.55,6.01,27.55
	s-33.88,0.29-35.11,0.47s-23.39,3.95-23.39,3.95s-12.52-4.03-12.32-7.64C942.3,481.17,942.1,458.27,942.1,458.27z"/>
<path class="st6" d="M1235.71,461.58c-2.43-2.29-6.13-5.34-10.39-8.68C1228.69,455.86,1231.8,459.16,1235.71,461.58z"/>
<path class="st6" d="M1205.99,470.58c-5.11-0.27-8.12-2.33-9.7-7.02c-0.59-1.73-1.69-3.3-2.23-5.04c-0.41-1.3-2-2.78-0.69-4.02
	c1.1-1.05,2.6,0.28,3.87,0.64c15.36,4.38,27.5,13.4,37.3,25.85c1.28,1.62,1.52,2.52,0.01,4.3c-3.4,3.99-6.65,8.18-9.41,12.62
	c-1.36,2.19-2.72,3.68-4.85,3.85c4.63,0.64,15.27,2.33,19.04-1.33c4.6-4.47,7.15-28.72-3.61-38.85c-5.29,0-10.38-0.37-15.4,0.1
	c-5.58,0.51-9.38-3.37-14.73-4.67c4.15-3.66,8.4-5.82,12.74-7.83c0.97-0.45,1.75-0.22,2.48,0.22c-9.74-7.46-20.98-15.57-27-19.87
	c-0.03,0.11-0.06,0.22-0.09,0.33c-1.38-1-2.78-2.19-4.24-3.41l0,0l0,0c-1.96-1.63-4.03-3.32-6.35-4.69
	c-1.19,3.35,0.14,6.2,1.99,8.81c3.42,4.8,6.32,9.99,10.41,14.3c0.71,0.75,1.04,1.23-0.01,1.91c-6.42,4.1-12.53,9.04-21.05,7.21
	c-0.28-0.98,0.6-1.71,1.04-2.57c4.45-8.62,2.81-17.72-4.47-24.08c-2.29-2-4.8-3.74-7.12-5.7c-1.6-1.35-2.85-1.02-4.31,0.28
	c-5.32,4.72-9.27,10.21-10.51,17.4c-0.21,1.19-0.08,2.63-1.26,3.53c1.24,4.4,0.4,8.89,0.53,13.34c0.05,1.76,0.57,2.73,2.22,3.13
	c7.71-3.2,14.22-2.68,19.62,4.81c3.96,5.49,10.02,5.79,16.49,5c5.72-0.7,5.92-1.49,3.75,5.14c-2.79,8.54-7.07,16.33-12.49,23.5
	c0.19,0.02,0.37,0.05,0.56,0.07c3.47,0.32,6.93,0.7,10.4,0.95c6.5,0.46,13.01,0.85,19.52,1.27c2.78-5.32,5.49-10.67,6.78-16.58
	C1216.79,476.13,1213.35,470.96,1205.99,470.58z"/>
<g>
	<path class="st6" d="M1083.48,567.1c0,0.01,0,0.01,0,0.02c0.01,0,0.02,0,0.03,0L1083.48,567.1z"/>
	<path class="st6" d="M1159.68,474.16c-2.8-4.91-6.73-8.7-11.31-11.89c-2.18,0.09-2.95-1.06-2.73-3.1c0.29-2.72,0.69-5.44,0.83-8.17
		c0.16-3.02,1.75-6.09-0.2-9.07c-0.88-0.48-1.71-1.16-2.65-1.4c-3.27-0.8-3.25-2.86-2.69-5.61c1.15-5.73,3.59-10.95,5.92-16.23
		c-0.05-0.88,0.18-1.6,1.13-1.9l0.01-0.02c-0.62-1.72-2.11-1.15-3.3-1.18c-4.22-0.11-8.39-0.46-12.33-2.19
		c-0.16-0.05-0.33-0.07-0.49-0.07c-0.82,0.03-1.66,0.16-2.28-0.56c-0.78,0.03-1.58,0.18-2.22-0.47c-0.15-0.06-0.31-0.09-0.47-0.09
		c-1.43,0.09-2.84,0.09-3.96-1.01c-0.16-0.06-0.32-0.09-0.49-0.1c-0.39-0.17-0.79-0.33-1.18-0.5c-0.15-0.05-0.31-0.07-0.47-0.06
		c-0.65,0.04-1.3,0.07-1.76-0.53c-0.14-0.04-0.29-0.05-0.43-0.03c-2.68-0.09-4.67,0.82-5.31,3.68c3.92,7.23,9.21,13.45,14.87,19.96
		c-4.38,0.8-8.38,1.52-12.43,2.26c0.38-8.26-5.83-11.75-11.17-15.86c-0.58-0.44-1.22-0.79-1.84-1.18
		c-5.94,2.61-11.99,4.64-18.61,4.52c-1.3-0.02-2.92-1.7-3.99,0.47c-0.13,0.24-0.3,0.47-0.39,0.73c-1.93,5.95-3.83,11.91-5.77,17.86
		c-0.36,1.12-0.73,2.72-2.26,2.15c-1.34-0.51-0.12-1.69,0.12-2.52c1.48-5.22,3.02-10.43,4.54-15.64c0.06-2.07-1.49-2.26-2.96-2.52
		c-3.1-0.55-6.24-1-7.59-4.52c-0.51-1.34-1.57-0.82-2.58-0.66c-2.28,0.37-4.46,1.66-6.88,0.75c-0.71-0.15-1.23,0.22-1.75,0.63
		c0.86,5.28,0.99,10.65,2.1,15.9c0.63,2.98,1.29,5.88,3.37,8.98c-4.26-0.88-7.83-1.79-10.61-4.58c-3.6-3.63-5.91-7.93-7.01-12.96
		c-0.58-2.63-0.14-4.25,2.77-4.64c0.62-0.08,1.21-0.41,1.81-0.63c0,0-14.82,2.95-22.32,4.79c0.7-0.07,1.41-0.12,2.14-0.13
		c1.13-0.31,1.84,0.05,2.47,1.11c3.12,5.24,7.1,9.8,11.46,14.02c1.31,1.27,1.43,2.12,0.28,3.68c-2.16,2.92-4.5,5.78-5.85,9.23
		c-0.04,0.48-0.16,0.91-0.66,1.1c0.06,0.49-0.03,0.91-0.5,1.17l0,0c0.16,0.98-0.02,1.8-1.03,2.25l-0.01,0.04
		c0,1.22,0.16,2.5-1.26,3.15c-0.17,0.06-0.34,0.11-0.51,0.17c-1.05,1.08-1.53,0.22-2.03-0.6l0.01,0.01
		c-0.32-0.18-0.64-0.35-0.96-0.53c-0.02-0.15-0.11-0.22-0.26-0.21c-2.24-1.45-1.25-3.93-1.37-5.74c-0.3-4.63-1.9-8.86-2.93-12.89
		c-5.93,7.5-7.89,16.68-9.06,26.92c-2.89-3.57-4.83-6.99-7.69-9.26c-4.46-3.54-4.73-7.37-2.54-12.02c1.49-3.17-1.91-3.16-3.02-4.64
		c-0.54-0.72-1.67-0.39-2.3-1.1c-2.12,1.82-3.7,3.17-3.7,3.17c-5.16-3.58-11.36-5.38-19.05-3.46c-10.1,2.53-22.17,8.55-31.82,14.02
		c-3.03,2.71-6.76,4.35-10.45,6.23c-0.88,0.55-1.69,1.06-2.43,1.53c-3.11,2.41-6.7,4.05-10.03,6.11
		c-13.72,8.5-27.49,16.94-41.09,25.63c-3.99,2.55-8.26,4.91-11.12,8.93c1.52,0.06,2.6,0.98,3.43,2.07
		c5.88,7.68,10.01,16.31,13.57,25.24c5.79,10.35,11.58,20.7,17.39,31.04c0.66,1.17,0.96,2.58,2.2,3.38
		c10.03-9.22,19.08-19.6,31.21-26.37c6.88-3.84,14.24-5.64,22.02-5.64c7.57-0.01,12.65-3.75,16.36-10
		c1.99-3.36,3.61-6.85,4.87-10.54c0.26-0.76,0.23-2.27,1.46-1.95c1.31,0.34,0.76,1.77,0.54,2.65c-1.66,6.69-4.75,12.66-9.75,17.42
		c-1.92,1.83-1.74,2.85-0.13,4.64c10.67,11.82,19.84,24.76,28.73,37.96c9.86,14.65,19.35,29.5,27.78,45.01
		c1.02,1.88,2.5,1.22,3.85,1.09c7.08-0.69,14.14-1.48,21.21-2.23c0.74-0.58,1.6-0.44,2.45-0.39c1.65,0.04,3.3,0.07,4.95,0.11
		c6.56-1.17,13.11-2.37,19.68-3.51c6.13-1.06,12.36-1.54,18.36-3.28c-13.62-7.62-24.37-18.58-34.45-30.19
		c-20.6-23.72-40.96-47.67-61.47-71.47c-5.04-5.85-10.68-10.95-17.92-14.11c-4.69-2.05-8.47-1.2-12.18,2.14
		c-4.53,4.08-9.26,7.93-13.96,11.82c-0.74,0.61-1.72,2.05-2.71,0.57c-0.85-1.28,0.84-1.55,1.49-2.11c4.85-4.13,9.8-8.16,14.64-12.3
		c3.81-3.26,7.92-4,12.63-2.2c7.76,2.97,13.73,8.33,19.02,14.45c20.86,24.12,41.49,48.43,62.43,72.47
		c8.81,10.11,18.19,19.71,29.64,26.96c2.11,1.34,4.2,2.69,6.63,3.4c1.58-0.18,3.16-0.37,4.74-0.55c3.61-3.35,6.33-7.37,8.76-11.6
		c-2.57-3.52-6.46-5.55-9.57-8.46c-2.62-1.29-3.49-4.13-5.34-6.13c-5.01-5.42-9.55-11.31-16.67-14.28c-1.07-0.45-1.9-1.45-1.78-2.85
		c-0.18,0-0.35,0.01-0.53,0.01c-4.83-7.01-9.67-14-14.47-21.03c-0.33-0.49-0.34-1.2-0.49-1.81c-0.41-0.51-0.82-1.01-1.23-1.52
		c-1.09-0.23-1.63-1.07-2.22-1.91c-4.42-6.29-8.93-12.52-13.26-18.88c-1.77-2.59-4.74-4.47-4.99-8.01
		c-3.19-2.86-5.18-6.64-7.63-10.06c-5.48-7.64-10.69-15.47-16.17-23.11c-2.24-3.12-0.33-5.8,0.83-8.22c1.01-2.1,3.43-0.65,5.25-0.29
		c4.73,0.94,7.7,3.51,9.15,8.34c1.45,4.83,3.69,9.41,6.5,13.68c1.03,1.57,2.11,2.1,3.87,1.69c1.25-0.29,2.55-0.36,3.82-0.57
		c4.67-0.78,4.71-0.78,3.66,3.85c-0.99,4.41-2.97,8.3-6.31,11.45c-0.92,0.87-1.68,1.91-2.52,2.87c3.73,1.51,7.43,3.12,11.22,4.46
		c1.3,0.46,2.97,0.74,3.83-1.1c1.68-3.58,3.28-7.22,5.1-10.73c3.07-5.91,4.19-12.87,9.68-17.47c4.41-3.69,9.5-6.26,14.41-9.13
		c4.22-2.47,9.13-2.96,13.66-4.54l0.07-0.05c0.21-0.45,0.57-0.56,1.03-0.47l0.11-0.09c0.18-0.49,0.56-0.56,1.01-0.48l0.09-0.07
		c1.41-1.52,3-2.6,5.21-2.23c2.78-0.53,5.94-0.48,5.86-4.7c-0.02-1.16,1.29-1.14,2.17-1.24c4.29-0.49,8.59-0.89,12.88-1.41
		c1.2-0.14,1.78,0.29,2.4,1.29c3.1,5.06,5.37,10.5,7,16.15c1.04,3.61-0.21,7.29-0.96,10.9c0.21,2.66-0.74,6.28,4.17,5.05
		c4.95-0.01,9.9-0.02,14.85-0.03C1164.02,489.74,1164.07,481.89,1159.68,474.16z M1069.59,467.39c-1.64,3.5-3.02,7.11-4.51,10.68
		c-0.43,1.02-0.83,1.93-2.15,0.85c-5.33-4.37-10.69-8.7-16.67-13.56c7.87-0.57,14.72-1.33,21.65-0.82
		C1070.07,464.71,1070.56,465.34,1069.59,467.39z M1103.34,453c-2.79,5.6-5.64,11.19-7.7,17.11c-0.48,1.39-1.13,1.73-2.43,1.3
		c-0.87-0.29-1.76-0.56-2.66-0.76c-6.59-1.51-6.61-1.51-5.82-8.11c0.69-5.77,1.48-11.53,2.11-17.31c0.17-1.54,0.74-2.23,2.3-2.51
		c2.73-0.49,5.5-1.21,7.77-2.76c5.23-3.58,11.04-2.49,17.13-2.72C1110.38,442.74,1106.13,447.39,1103.34,453z"/>
	<path class="st6" d="M1008.69,434.41C1008.68,434.41,1008.68,434.41,1008.69,434.41c-0.95,0.82-2.29,1.97-3.76,3.24
		c0.68-0.51,1.37-1.02,2.05-1.53C1007.53,435.52,1008.1,434.95,1008.69,434.41z"/>
	<path class="st6" d="M1129.54,412.76c0.01,0.01,0.02,0.02,0.03,0.03c0.01,0,0.02,0,0.03,0
		C1129.6,412.79,1129.54,412.76,1129.54,412.76z"/>
	<path class="st6" d="M1034.49,455.99c0.01,0,0.02-0.01,0.03-0.02c0-0.01,0-0.01,0-0.02L1034.49,455.99z"/>
</g>
<path class="st0" d="M872.22,544.4l-33.9,30.81l-4.74,7.28c0,0,1.94,15.26,3.47,18.04s9.85,10.52,13.6,11.43s4.7-1.39,4.7-1.39
	s2.33-5.31,5.49-6.77c3.15-1.47,5.8-4.43,5.8-4.43l20.37-16.3c0,0,3.41-1.21,5.23-4.57c0,0-9.19-10.42-13.57-17.93
	C875.07,554.4,872.22,544.4,872.22,544.4z"/>
<path class="st0" d="M1084.24,380.67c-6.65,0-13.42,0-20.18,0c-1.15,0-1.19,0.64-0.72,1.44c0.52,0.9,1.27,1.54,2.21,2.02
	C1071.62,387.26,1079.77,385.67,1084.24,380.67z"/>
</svg>
