<?xml version="1.0" encoding="utf-8"?>
<!-- Generator: Adobe Illustrator 24.0.2, SVG Export Plug-In . SVG Version: 6.00 Build 0)  -->
<svg version="1.1" id="Layer_1" xmlns="http://www.w3.org/2000/svg" xmlns:xlink="http://www.w3.org/1999/xlink" x="0px" y="0px"
	 viewBox="0 0 400 400" style="enable-background:new 0 0 400 400;" xml:space="preserve">
<style type="text/css">
	.st0{fill:#009934;}
	.st1{clip-path:url(#SVGID_2_);fill:url(#SVGID_3_);}
</style>
<g>
	<path class="st0" d="M79.25,103.21l135.82,193.57h-55.45L23.79,103.21H79.25z M107.76,103.21l135.82,193.57h55.45L163.21,103.21
		H107.76z M376.21,243.57c0,29.15-23.56,52.87-52.64,53.18l-27.5-39.19h26.92c7.72,0,13.99-6.28,13.99-13.99
		c0-6.53-4.22-10.2-6.04-11.47l-39.33-27.6v46.72l-39.22-55.89v-4.98v-87.15h70.59c29.34,0,53.21,23.87,53.21,53.21
		c0,18.01-9,33.94-22.73,43.57C367.21,209.63,376.21,225.57,376.21,243.57z M336.99,156.43c0-7.72-6.28-13.99-13.99-13.99h-31.37
		v53.06l39.33-27.6C332.77,166.62,336.99,162.96,336.99,156.43z"/>
	<g>
		<defs>
			<path id="SVGID_1_" d="M79.25,103.21l135.82,193.57h-55.45L23.79,103.21H79.25z M107.76,103.21l135.82,193.57h55.45
				L163.21,103.21H107.76z M376.21,243.57c0,29.15-23.56,52.87-52.64,53.18l-27.5-39.19h26.92c7.72,0,13.99-6.28,13.99-13.99
				c0-6.53-4.22-10.2-6.04-11.47l-39.33-27.6v46.72l-39.22-55.89v-4.98v-87.15h70.59c29.34,0,53.21,23.87,53.21,53.21
				c0,18.01-9,33.94-22.73,43.57C367.21,209.63,376.21,225.57,376.21,243.57z M336.99,156.43c0-7.72-6.28-13.99-13.99-13.99h-31.37
				v53.06l39.33-27.6C332.77,166.62,336.99,162.96,336.99,156.43z"/>
		</defs>
		<clipPath id="SVGID_2_">
			<use xlink:href="#SVGID_1_"  style="overflow:visible;"/>
		</clipPath>
		<linearGradient id="SVGID_3_" gradientUnits="userSpaceOnUse" x1="241.7121" y1="322.2192" x2="241.7121" y2="103.2147">
			<stop  offset="0" style="stop-color:#191E45"/>
			<stop  offset="1" style="stop-color:#009934;stop-opacity:0"/>
		</linearGradient>
		<rect x="23.79" y="103.21" class="st1" width="435.84" height="219"/>
	</g>
</g>
</svg>
