<?xml version="1.0" encoding="utf-8"?>
<!-- Generator: Adobe Illustrator 24.0.2, SVG Export Plug-In . SVG Version: 6.00 Build 0)  -->
<svg version="1.1" id="Layer_1" xmlns="http://www.w3.org/2000/svg" xmlns:xlink="http://www.w3.org/1999/xlink" x="0px" y="0px"
	 viewBox="0 0 200 200" style="enable-background:new 0 0 200 200;" xml:space="preserve">
<style type="text/css">
	.st0{fill:#009934;}
</style>
<path class="st0" d="M184.65,0H15.35C6.87,0,0,6.87,0,15.35v169.3C0,193.13,6.87,200,15.35,200h169.3c8.48,0,15.35-6.87,15.35-15.35
	V15.35C200,6.87,193.13,0,184.65,0z M196,184.65c0,6.26-5.09,11.35-11.35,11.35H15.35C9.09,196,4,190.91,4,184.65V15.35
	C4,9.09,9.09,4,15.35,4h169.3C190.91,4,196,9.09,196,15.35V184.65z"/>
<g>
	<path class="st0" d="M136.98,171c-4.85-0.22-9.11-1.86-12.43-5.5c-8.97-9.85-15.28-21.19-19.26-33.9c-2.7-8.61,0.72-15.38,7.82-20
		c4.76-3.1,10.1-4.96,15.71-5.9c1.51-0.25,1.72-0.85,1.44-2.22c-2.29-11.38-4.51-22.78-6.76-34.17c-1.92-9.74-3.84-19.47-5.75-29.21
		c-0.77-3.94-3.27-5.66-7.2-4.89c-17.32,3.39-34.63,6.8-51.95,10.15c-1.23,0.24-1.46,0.69-1.23,1.85c0.98,4.91,2.1,9.81,2.76,14.77
		c0.8,6.07-3.04,11.26-9.02,12.58c-4.49,0.99-9.03,1.8-13.54,2.7c-2.01,0.4-2.02,0.41-1.61,2.49c2.16,10.94,4.33,21.88,6.49,32.81
		c3.04,15.35,6.13,30.7,9.06,46.07c0.65,3.39,3.23,6.08,7.66,5.19c14.99-3.02,30.02-5.85,45.03-8.75c0.5-0.1,1.01-0.19,1.51-0.24
		c1.75-0.19,3.08,0.73,3.41,2.35c0.32,1.52-0.67,3.02-2.38,3.39c-2.55,0.56-5.11,1.03-7.67,1.53c-13.01,2.51-26.02,5.01-39.02,7.52
		c-7.21,1.4-12.98-2.37-14.41-9.59c-3.65-18.36-7.24-36.73-10.85-55.1c-1.87-9.48-3.72-18.97-5.62-28.45
		c-0.26-1.27,0.03-2.29,0.74-3.31c6.98-10.05,13.98-20.09,20.88-30.19c1.21-1.78,2.62-2.74,4.76-3.15
		c18.29-3.49,36.55-7.12,54.83-10.64c5.76-1.11,11.44,2.59,12.99,8.25c0.13,0.49,0.25,0.99,0.35,1.5c0.63,3.22,0.63,3.19,3.79,3.81
		c11.39,2.23,22.8,4.41,34.17,6.75c6.76,1.39,10.29,7.01,8.96,13.75c-2.43,12.4-4.84,24.8-7.26,37.2c-0.17,0.86-0.32,1.73-0.94,2.4
		c-0.99,1.06-2.2,1.27-3.5,0.7c-1.31-0.56-1.95-1.87-1.65-3.44c0.87-4.62,1.76-9.24,2.66-13.86c1.56-8.03,3.15-16.06,4.7-24.09
		c0.75-3.86-0.86-6.17-4.77-6.94c-10.79-2.12-21.58-4.25-32.37-6.37c-1.97-0.39-1.98-0.38-1.6,1.62c1.13,5.93,2.29,11.85,3.41,17.78
		c0.18,0.96,0.58,1.48,1.65,1.66c4.89,0.84,9.76,1.78,14.64,2.67c1.27,0.23,2.37,0.68,2.88,2c0.87,2.25-0.73,4.41-3.14,4.03
		c-4.24-0.67-8.46-1.51-12.68-2.27c-1.48-0.27-1.66-0.1-1.39,1.35c0.65,3.47,1.35,6.93,1.93,10.41c0.17,1.05,0.65,1.5,1.63,1.69
		c1.4,0.28,2.8,0.59,4.19,0.96c1.75,0.46,2.56,1.78,2.23,3.46c-0.31,1.57-1.72,2.5-3.46,2.28c-2.8-0.35-2.81-0.35-2.34,2.4
		c0.24,1.41,0.62,2.81,0.77,4.22c0.14,1.32,0.68,1.78,2.05,1.83c5.46,0.18,10.79,1.14,15.84,3.28c4.39,1.86,8.8,3.78,11.85,7.69
		c3.36,4.31,4.49,9.19,3.05,14.47c-3.66,13.33-10.31,25.03-19.7,35.16C145.98,169.09,141.81,170.8,136.98,171z M137.16,164.81
		c2.96,0.06,5.7-1.06,7.86-3.39c8.68-9.36,14.75-20.21,18.16-32.51c1.28-4.61-0.45-8.97-4.39-11.67
		c-12.58-8.62-31.74-8.39-44.18,0.53c-3.43,2.46-4.97,6.67-3.84,10.88c3.31,12.28,9.3,23.11,17.82,32.54
		C130.81,163.63,133.6,164.84,137.16,164.81z M52.16,51.68c-2.61,3.74-4.95,7.08-7.29,10.43c-1.76,2.52-3.51,5.04-5.25,7.56
		c-0.17,0.24-0.46,0.48-0.33,0.81c0.12,0.3,0.42,0.21,0.67,0.16c3.41-0.65,6.85-1.19,10.23-1.99c2.73-0.65,4.61-3.31,4.18-5.85
		C53.78,59.23,52.97,55.7,52.16,51.68z"/>
	<path class="st0" d="M55.65,109.93c-1.9-0.01-3.1-1.07-3.29-2.67c-0.18-1.52,0.64-2.71,2.35-3.07c5.3-1.13,10.62-2.19,15.93-3.27
		c14.44-2.94,28.87-5.87,43.31-8.8c2.03-0.41,3.33,0.04,4.01,1.35c0.91,1.77-0.01,3.73-2.14,4.23c-3.69,0.85-7.4,1.58-11.11,2.34
		c-15.94,3.24-31.88,6.48-47.82,9.71C56.39,109.84,55.88,109.9,55.65,109.93z"/>
	<path class="st0" d="M52.32,94.42c-1.53,0.01-2.78-1.12-3.01-2.65c-0.22-1.48,0.65-2.79,2.27-3.15c3.34-0.74,6.71-1.4,10.06-2.08
		c16.23-3.31,32.46-6.63,48.7-9.93c2.57-0.52,4.14,0.2,4.55,2.05c0.42,1.92-0.71,3.22-3.43,3.78c-11.27,2.31-22.54,4.6-33.81,6.9
		c-7.87,1.6-15.73,3.2-23.6,4.8C53.44,94.24,52.84,94.33,52.32,94.42z"/>
	<path class="st0" d="M94.74,112.21c1.86-0.02,3.05,0.92,3.33,2.43c0.28,1.46-0.63,2.93-2.28,3.31c-3.33,0.77-6.7,1.41-10.05,2.08
		c-8.41,1.7-16.83,3.39-25.24,5.08c-0.5,0.1-1,0.21-1.51,0.28c-1.72,0.26-3-0.65-3.36-2.35c-0.35-1.66,0.49-3.03,2.25-3.42
		c2.94-0.66,5.9-1.23,8.86-1.82c8.97-1.8,17.93-3.6,26.9-5.39C94.09,112.32,94.54,112.24,94.74,112.21z"/>
	<path class="st0" d="M134.17,145.57c-1.57,0.08-2.84-0.51-3.91-1.56c-2.04-2.01-4.09-4.02-6.1-6.06c-1.47-1.49-1.53-2.97-0.26-4.32
		c1.31-1.4,2.9-1.41,4.45,0.07c1.67,1.59,3.31,3.21,4.88,4.89c0.79,0.85,1.29,0.83,2.08-0.02c3.81-4.08,7.68-8.1,11.52-12.15
		c0.94-0.99,1.99-1.63,3.4-1.18c2.24,0.72,2.86,3.29,1.17,5.06c-3.57,3.74-7.19,7.43-10.79,11.14c-0.93,0.95-1.82,1.95-2.8,2.84
		C136.78,145.2,135.54,145.68,134.17,145.57z"/>
</g>
</svg>
