<?xml version="1.0" encoding="utf-8"?>
<!-- Generator: Adobe Illustrator 24.0.2, SVG Export Plug-In . SVG Version: 6.00 Build 0)  -->
<svg version="1.1" id="Layer_1" xmlns="http://www.w3.org/2000/svg" xmlns:xlink="http://www.w3.org/1999/xlink" x="0px" y="0px"
	 viewBox="0 0 200 200" style="enable-background:new 0 0 200 200;" xml:space="preserve">
<style type="text/css">
	.st0{fill:#FFFFFF;}
</style>
<path class="st0" d="M107.65,164.23c-0.02,1.08-1,2.16-2.21,2.37c-0.44,0.08-0.91,0.05-1.36,0.05c-4.21,0-8.41,0.03-12.62-0.02
	c-1.05-0.01-1.72,0.24-2.1,1.28c-0.26,0.7-0.75,1.32-1.07,2.01c-0.72,1.58-1.09,3.24-1.02,5c0.06,1.57-0.01,3.14,0.02,4.71
	c0.02,1.31-0.44,2.36-1.53,3.11c-0.71,0-1.42,0-2.13,0c-1.05-0.89-1.39-2-1.29-3.37c0.11-1.41,0.05-2.84,0.02-4.25
	c-0.07-2.85,0.63-5.51,1.93-8.02c1.48-2.83,2.72-5.75,3.58-8.84c1.18-4.25,1.54-8.58,1.13-12.92c-0.35-3.75-1.94-7.09-4.33-10.02
	c-2.54-3.11-4.23-6.64-5.13-10.55c-0.32-1.38-0.54-2.77-0.54-4.2c0.01-6.03,0.02-12.06-0.01-18.09c-0.01-2.25-0.43-4.43-1.62-6.39
	c-2.03-3.35-4.97-5.24-8.92-5.43c-1.17-0.06-1.21,0.01-1.22,1.17c-0.02,1.87-0.01,3.75-0.01,5.62c0,11.86,0,23.71,0,35.57
	c0,0.46,0.03,0.92-0.02,1.37c-0.15,1.31-1.37,2.49-2.5,2.45c-1.36-0.05-2.34-1.12-2.4-2.63c-0.01-0.15,0-0.3,0-0.46
	c0-14.14,0.01-28.27-0.01-42.41c0-2.19,0.98-3.76,2.78-4.89c0.8-0.5,1.65-0.71,2.59-0.73c0.97-0.02,1-0.06,1-1.05
	c0.01-4.31,0.01-8.61,0.01-12.92c0-0.81,0-1.61,0-2.71c-0.77,1.15-1.4,2.05-1.99,2.98c-2.72,4.27-5.42,8.54-8.13,12.81
	c-1.49,2.35-3.06,4.65-4.48,7.04c-1.86,3.11-3.02,6.49-3.56,10.09c-0.54,3.54-0.33,7.04,0.22,10.56c0.4,2.54,0.68,5.1,0.99,7.65
	c0.07,0.61,0.04,1.21-0.28,1.77c-0.5,0.86-1.18,1.35-2.22,1.28c-1.08-0.08-1.76-0.6-2.16-1.6c-0.37-0.92-0.32-1.89-0.46-2.83
	c-0.43-2.84-0.63-5.72-1.05-8.56c-0.24-1.62-0.29-3.22-0.24-4.84c0.13-4.45,1.19-8.69,2.96-12.76c1.05-2.43,2.52-4.62,3.93-6.84
	c4.18-6.57,8.4-13.13,12.6-19.69c1.09-1.7,2.14-3.43,3.26-5.12c0.47-0.71,0.66-1.42,0.66-2.27c-0.03-6.33,0.03-12.67-0.03-19
	c-0.05-6.11,4.1-11.32,10.4-12.57c0.34-0.07,0.7-0.08,1.06-0.08c3.9-0.01,7.8-0.03,11.7-0.01c1.58,0.01,2.37,0.7,2.48,2.07
	c0.13,1.62-0.71,2.58-2.41,2.6c-3.24,0.03-6.49,0.03-9.73,0c-1.08-0.01-2.12,0.19-3.14,0.44c-2.68,0.66-5.5,3.89-5.48,7.21
	c0.1,15.4,0.05,30.8,0.02,46.21c0,0.96,0.35,1.41,1.18,1.82c4.95,2.41,7.77,6.46,8.83,11.8c0.12,0.59,0.09,1.21,0.09,1.82
	c0.01,5.73,0.01,11.45,0.01,17.18c0,0.35,0.02,0.71,0,1.06c-0.05,0.68,0.3,0.87,0.92,0.86c1.67-0.02,3.34-0.03,5.02,0.01
	c1.37,0.03,2.3,0.79,2.53,1.97c0.31,1.59-0.71,2.85-2.45,2.92c-1.37,0.06-2.74,0-4.1,0.02c-0.95,0.01-0.97,0.03-0.68,0.91
	c0.78,2.38,2.04,4.51,3.6,6.46c2.48,3.09,4.16,6.55,4.98,10.44c0.7,3.31,0.62,6.62,0.3,9.95c-0.26,2.73-0.86,5.38-1.61,8.01
	c-0.26,0.89-0.21,0.93,0.7,0.93c3.75,0.01,7.5,0,11.25,0.01c0.4,0,0.82-0.03,1.21,0.03C106.65,161.97,107.67,163.09,107.65,164.23z
	 M57.76,166.48c-0.33-2.55-0.8-5.08-1.09-7.63c-0.46-3.95-1-7.9-1.53-11.84c-0.56-4.25-1.01-8.51-1.61-12.75
	c-0.17-1.19-0.12-2.43-0.54-3.58c-0.53-1.43-1.92-2.04-3.29-1.44c-0.95,0.41-1.4,1.19-1.34,2.18c0.07,1.36,0.25,2.71,0.42,4.06
	c0.25,2,0.52,4,0.79,5.99c0.26,2,0.52,4,0.78,5.99c0.24,1.85,0.5,3.7,0.73,5.55c0.34,2.7,0.55,5.42,1.03,8.1
	c0.49,2.79,0.82,5.59,1.05,8.4c0.26,3.22,0.56,6.45,0.36,9.69c-0.09,1.4,0.23,2.59,1.26,3.57c0.81,0,1.62,0,2.43,0
	c1.01-0.98,1.26-2.17,1.27-3.57c0.04-3.09-0.34-6.16-0.4-9.24C58.05,168.79,57.9,167.62,57.76,166.48z M154.2,91.49
	c0-0.41,0.02-0.81-0.01-1.22c-0.09-1.48-1.01-2.41-2.36-2.44c-1.45-0.03-2.43,0.89-2.54,2.41c-0.03,0.45-0.01,0.91-0.01,1.37
	c0,20.36,0,40.73,0,61.09c0,0.61,0,1.22-0.01,1.82c-0.03,1.24-0.36,2.4-1.02,3.45c-1.54,2.46-3.78,3.75-6.68,3.76
	c-8.21,0.02-16.41,0.01-24.62,0.01c-0.46,0-0.92-0.03-1.37,0.02c-1.14,0.13-1.98,0.95-2.16,2.03c-0.18,1.1,0.36,2.03,1.45,2.55
	c0.57,0.27,1.16,0.31,1.78,0.31c8.26-0.01,16.51,0,24.77-0.01c2,0,3.93-0.44,5.7-1.36c4.51-2.35,7-6.12,7.05-11.2
	c0.1-10.43,0.03-20.87,0.03-31.3C154.2,112.36,154.2,101.92,154.2,91.49z M102.42,31.71c0.45,0.04,0.91,0.01,1.37,0.01
	c12.31,0,24.62,0,36.93,0c1.64,0,3.25,0.22,4.66,1.1c2.55,1.58,3.92,3.83,3.91,6.91c-0.02,12.82-0.01,25.63-0.01,38.45
	c0,0.65-0.04,1.31,0.18,1.95c0.4,1.16,1.19,1.77,2.36,1.73c1.17-0.04,2.12-0.84,2.32-2.02c0.08-0.44,0.05-0.91,0.05-1.36
	c0-6.48,0-12.97,0-19.45c0-6.23-0.01-12.46,0.01-18.69c0-1.17-0.07-2.32-0.31-3.46c-0.54-2.62-1.84-4.84-3.8-6.6
	c-2.54-2.28-5.55-3.3-9.03-3.28c-12.51,0.09-25.03,0.03-37.54,0.03c-0.35,0-0.71-0.02-1.06,0.01c-1.44,0.1-2.19,0.94-2.17,2.39
	C100.32,30.8,101.05,31.6,102.42,31.71z M110.78,107.42c-0.16,2.06-0.01,4.15-0.04,6.23c-0.03,2.13-1.4,3.48-3.55,3.5
	c-2.94,0.02-5.88,0.01-8.81,0.01c-2.74,0-5.48-0.11-8.2,0.04c-2.24,0.12-3.95-1.68-3.86-3.89c0.08-1.97,0.06-3.95,0.01-5.93
	c-0.06-2.11,1.63-3.81,3.82-3.77c5.62,0.11,11.25,0.12,16.87,0C109.07,103.55,110.94,105.4,110.78,107.42z M106.06,110.94
	c0-0.46,0.01-0.91,0-1.37c-0.02-1.23-0.02-1.24-1.27-1.25c-3.54-0.01-7.09-0.04-10.63,0.01c-3.51,0.05-2.84-0.72-2.9,3.1
	c-0.02,0.98,0.04,1.01,1.04,1.01c2.08,0.02,4.15,0.01,6.23,0.01c2.02,0,4.05,0,6.07,0C106.15,112.46,106.06,112.54,106.06,110.94z
	 M136.01,78.63c-0.1,2.02-0.02,4.05-0.02,6.07c0,2.03-0.06,4.05,0.02,6.07c0.08,1.96-0.76,3.85-3.55,4.04
	c-2.87,0.19-5.77,0.11-8.65,0c-1.48-0.06-2.7-0.78-3.26-2.32c-0.18-0.5-0.19-0.99-0.19-1.49c0-4.15,0.06-8.3-0.03-12.45
	c-0.04-2.01,1.18-3.58,3.56-3.7c2.83-0.15,5.67-0.12,8.5-0.01C134.51,74.92,136.13,76.26,136.01,78.63z M131.31,89.18
	c-0.01-2.89-0.01-5.77,0-8.66c0-0.58-0.25-0.81-0.82-0.8c-1.52,0.02-3.04,0.02-4.56,0c-0.65-0.01-0.91,0.23-0.89,0.89
	c0.03,1.42,0.01,2.84,0.01,4.25c0,1.42,0.02,2.84-0.01,4.25c-0.01,0.67,0.26,0.88,0.9,0.87c1.52-0.03,3.04-0.02,4.56,0
	C131.07,89.99,131.31,89.76,131.31,89.18z M94.41,67.79c1.42,0,2.83-0.02,4.25,0c2.18,0.03,3.76,1.49,3.82,3.67
	c0.07,2.58,0.08,5.16,0,7.74c-0.08,2.3-1.57,3.76-3.89,3.82c-2.83,0.07-5.66,0.06-8.49,0c-2.25-0.04-3.74-1.63-3.75-3.89
	c-0.02-2.48,0.06-4.96-0.02-7.43c-0.07-2.24,1.65-4.06,4-3.93C91.68,67.86,93.05,67.79,94.41,67.79z M92,72.72
	c-0.49,0-0.75,0.22-0.74,0.73c0,1.31,0,2.63,0,3.94c0,0.5,0.22,0.74,0.73,0.74c1.62-0.01,3.24-0.01,4.85,0
	c0.5,0,0.74-0.21,0.74-0.72c-0.01-1.31-0.01-2.63,0-3.94c0-0.5-0.21-0.75-0.72-0.75c-0.81,0.01-1.62,0-2.43,0
	C93.62,72.72,92.81,72.72,92,72.72z M117.92,103.11c0.6,0.04,1.21-0.01,1.82,0.02c0.89,0.04,0.94,0.07,0.96,0.96
	c0.03,1.37-0.02,2.73,0.02,4.1c0.04,1.49,0.76,2.27,2.21,2.63c0.6,0.15,1.2,0.18,1.8,0.18c1.87,0,3.74-0.02,5.62,0.01
	c0.89,0.01,0.92,0.06,0.95,0.97c0.03,0.96-0.02,1.92,0.02,2.88c0.06,1.49,0.85,2.26,2.27,2.28c1.5,0.03,2.34-0.75,2.4-2.3
	c0.04-1.06,0.01-2.12,0.01-3.19c0,0,0,0,0,0c0-0.96,0.01-1.92,0-2.88c-0.03-1.83-0.85-2.66-2.7-2.68c-2.18-0.02-4.35,0.01-6.53-0.01
	c-1.1-0.01-1.12-0.03-1.13-1.08c-0.02-1.42,0.03-2.83-0.02-4.25c-0.05-1.54-0.94-2.48-2.45-2.53c-1.77-0.06-3.54-0.06-5.31,0
	c-1.38,0.05-2.47,1.17-2.5,2.4C115.32,101.89,116.47,103.02,117.92,103.11z M110.99,69.69c-0.48-1.14-1.69-1.67-2.87-1.3
	c-1.17,0.37-1.71,1.13-1.72,2.54c-0.02,2.99-0.01,5.97-0.01,8.96c0,0.71,0,1.42,0,2.13c0,2.33-0.02,4.66,0.01,6.98
	c0.02,1.51,0.85,2.52,2.23,2.57c2.17,0.08,4.35,0.07,6.53,0c1.21-0.04,2.11-0.98,2.23-2.11c0.11-0.99-0.61-2.11-1.63-2.49
	c-0.57-0.21-1.16-0.32-1.78-0.29c-0.66,0.03-1.32,0-1.97-0.01c-0.42,0-0.67-0.2-0.68-0.63c-0.01-0.4-0.02-0.81-0.02-1.21
	c0-4.35-0.01-8.7,0.01-13.05C111.32,71.05,111.27,70.35,110.99,69.69z M131.86,125.04c1.51-0.07,3.04-0.02,4.55-0.02
	c1.62,0,3.24,0.03,4.86-0.01c1.63-0.04,2.57-0.94,2.59-2.54c0.04-3.04,0.03-6.07,0-9.11c-0.01-1.23-0.84-2.22-1.9-2.39
	c-1.36-0.22-2.34,0.4-2.77,1.76c-0.19,0.58-0.25,1.18-0.24,1.79c0.02,1.47,0.02,2.94,0,4.4c-0.01,1.15-0.03,1.17-1.22,1.18
	c-1.97,0.02-3.95-0.02-5.92,0.01c-1.62,0.03-2.89,1.17-2.84,2.55C129.02,123.82,130.33,125.11,131.86,125.04z M132.74,64.85
	c1.67,0,3.34-0.01,5.01,0c1.18,0.01,1.2,0.03,1.21,1.16c0.02,1.37,0,2.73,0.01,4.1c0.01,0.6-0.01,1.22,0.1,1.81
	c0.28,1.43,1.43,2.39,2.62,2.25c1.33-0.15,2.16-1.13,2.18-2.65c0.03-1.47,0.01-2.93,0.01-4.4c0-1.37,0.01-2.73,0-4.1
	c-0.01-2.07-0.7-2.84-2.73-3.07c-0.25-0.03-0.51-0.01-0.76-0.02c-2.38,0-4.75,0.01-7.13-0.01c-0.67-0.01-1.32,0.1-1.93,0.33
	c-0.93,0.36-1.47,1.07-1.5,2.07c-0.03,0.99,0.42,1.74,1.3,2.23C131.63,64.84,132.18,64.85,132.74,64.85z M86.71,64.85
	c1.62-0.02,3.24,0.03,4.86-0.02c1.31-0.04,2.27-0.93,2.4-2.1c0.13-1.1-0.69-2.21-1.9-2.58c-0.29-0.09-0.59-0.19-0.88-0.19
	c-2.88-0.02-5.77-0.09-8.65,0.02c-1.75,0.07-2.72,1.12-2.63,2.85c0.08,1.41,0.02,2.83,0.02,4.25c0,1.52,0.01,3.04,0,4.55
	c0,0.99,0.34,1.8,1.25,2.25c1.78,0.88,3.47-0.49,3.44-2.09c-0.03-1.62-0.02-3.24,0-4.86C84.64,64.54,84.28,64.87,86.71,64.85z
	 M115.43,69.9c-0.14,1.16,0.42,2.12,1.49,2.53c0.57,0.22,1.17,0.29,1.78,0.29c2.33-0.02,4.66-0.01,6.99-0.01c2.33,0,4.66,0,6.99,0
	c0.5,0,1,0,1.5-0.16c1.29-0.41,1.89-1.25,1.8-2.61c-0.07-1.1-0.98-1.99-2.2-2.13c-0.35-0.04-0.71-0.02-1.06-0.02
	c-4.71,0-9.42,0-14.12,0c-0.35,0-0.71-0.02-1.06,0.02C116.51,67.92,115.56,68.88,115.43,69.9z M110.79,95.2
	c-0.35-0.05-0.71-0.03-1.06-0.03c-2.18,0-4.35,0-6.53,0c-2.33,0-4.66,0.01-6.98-0.01c-0.67,0-1.3,0.08-1.9,0.42
	c-0.83,0.47-1.25,1.24-1.22,2.13c0.03,0.81,0.44,1.54,1.23,1.97c0.65,0.36,1.33,0.42,2.05,0.41c4.45-0.01,8.91,0,13.36-0.01
	c0.35,0,0.71,0.02,1.06-0.04c1.24-0.2,2.08-1.2,2.07-2.43C112.87,96.38,112.03,95.39,110.79,95.2z M99.85,42.92
	c1.77,0.02,3.54,0.01,5.31,0.01c0.2,0,0.4,0,0.61,0c1.67,0,3.34,0.03,5.01-0.02c1.29-0.04,2.4-1.01,2.61-2.15
	c0.15-0.84-0.51-1.99-1.4-2.5c-0.47-0.27-0.97-0.26-1.47-0.26c-3.54,0-7.08,0-10.62,0c-0.3,0-0.61-0.01-0.91,0.05
	c-1.65,0.32-2.44,2-1.65,3.49C97.87,42.56,98.78,42.91,99.85,42.92z M86.36,97.77c0.05,1.04,0.57,1.79,1.65,2.11
	c0.99,0.29,1.85,0.06,2.56-0.76c0.53-0.61,0.69-1.32,0.69-2.11c-0.02-2.33-0.02-4.65,0-6.98c0.01-0.62-0.09-1.22-0.33-1.77
	c-0.35-0.79-0.92-1.29-1.85-1.34c-1.61-0.09-2.68,0.83-2.74,2.51c-0.05,1.36-0.01,2.73-0.01,4.09c0,0,0.01,0,0.01,0
	C86.34,94.94,86.29,96.35,86.36,97.77z M117.98,117.14c1.06,0,2.13-0.08,3.18,0.02c1.2,0.11,2.31-1.28,2.32-2.34
	c0.01-1.22-1.01-2.32-2.28-2.34c-1.87-0.04-3.73-0.02-5.6-0.02c-0.35,0-0.71-0.02-1.06,0.04c-1.21,0.2-2.12,1.32-2.02,2.46
	c0.09,1.11,1.21,2.31,2.29,2.21C115.86,117.07,116.92,117.14,117.98,117.14z M99.28,86.93c-1.31-0.04-2.63,0.06-3.93-0.03
	c-1.17-0.08-2.25,1.24-2.28,2.21c-0.04,1.21,0.83,2.29,2.04,2.45c0.69,0.09,1.41,0.02,2.12,0.02c0,0,0,0,0,0
	c0.76,0,1.52,0.07,2.27-0.02c1.23-0.14,2.12-1.27,2.04-2.43C101.43,87.9,100.53,86.97,99.28,86.93z M131.09,98.24
	c-1.32,0.12-2.22,1.18-2.2,2.46c0.02,1.29,0.93,2.27,2.27,2.4c0.4,0.04,0.81,0.01,1.21,0.01c0.46,0,0.92,0.04,1.37-0.01
	c1.34-0.14,2.22-1.11,2.24-2.4c0.01-1.31-0.83-2.33-2.16-2.46C132.92,98.15,132,98.16,131.09,98.24z M121.63,40.4
	c-0.05-1.25-1.29-2.42-2.51-2.38c-1.34,0.04-2.38,1.12-2.37,2.47c0.01,1.29,1.15,2.42,2.45,2.42
	C120.35,42.9,121.68,41.53,121.63,40.4z M200,15.35v169.3c0,8.48-6.87,15.35-15.35,15.35H15.35C6.87,200,0,193.13,0,184.65V15.35
	C0,6.87,6.87,0,15.35,0h169.3C193.13,0,200,6.87,200,15.35z M196,15.35C196,9.09,190.91,4,184.65,4H15.35C9.09,4,4,9.09,4,15.35
	v169.3C4,190.91,9.09,196,15.35,196h169.3c6.26,0,11.35-5.09,11.35-11.35V15.35z"/>
</svg>
