<?xml version="1.0" encoding="utf-8"?>
<!-- Generator: Adobe Illustrator 24.0.2, SVG Export Plug-In . SVG Version: 6.00 Build 0)  -->
<svg version="1.1" id="Layer_1" xmlns="http://www.w3.org/2000/svg" xmlns:xlink="http://www.w3.org/1999/xlink" x="0px" y="0px"
	 viewBox="0 0 858 841.89" style="enable-background:new 0 0 858 841.89;" xml:space="preserve">
<style type="text/css">
	.st0{display:none;}
	.st1{display:inline;fill:#191E45;}
	.st2{opacity:0.3;fill:#05060D;}
	.st3{fill:url(#SVGID_1_);}
	.st4{fill:#F99780;}
	.st5{fill:#FFFFFF;}
	.st6{fill:#F18C27;}
	.st7{fill:none;stroke:#061420;stroke-width:0.4827;stroke-linecap:round;stroke-linejoin:round;stroke-miterlimit:10;}
	.st8{fill:#061420;}
	.st9{fill:none;stroke:#FFFFFF;stroke-width:1.5739;stroke-miterlimit:10;}
	.st10{fill:none;stroke:#FC8A00;stroke-width:1.7338;stroke-miterlimit:10;}
	.st11{fill:#F6B879;}
	.st12{fill:#FC8A00;}
	.st13{fill:#009934;}
	.st14{fill:#006257;}
	.st15{fill:none;stroke:#061420;stroke-width:0.4098;stroke-linecap:round;stroke-linejoin:round;stroke-miterlimit:10;}
	.st16{fill:#10142E;}
	.st17{fill:none;stroke:#061420;stroke-width:0.3952;stroke-linecap:round;stroke-linejoin:round;stroke-miterlimit:10;}
	.st18{fill:#E6EDFB;}
	.st19{fill:#80CC99;}
	.st20{fill:#272F6D;}
	.st21{fill:#C8D4F4;}
	.st22{opacity:0.4;clip-path:url(#SVGID_3_);}
	.st23{opacity:0.4;clip-path:url(#SVGID_5_);}
	.st24{fill:none;stroke:#061420;stroke-width:0.8814;stroke-linecap:round;stroke-linejoin:round;stroke-miterlimit:10;}
	.st25{fill:none;stroke:#FFFFFF;stroke-width:0.3952;stroke-linecap:round;stroke-linejoin:round;stroke-miterlimit:10;}
	.st26{fill:none;stroke:#193549;stroke-width:0.3952;stroke-linecap:round;stroke-linejoin:round;stroke-miterlimit:10;}
	.st27{fill:none;stroke:#061420;stroke-width:0.6587;stroke-linecap:round;stroke-linejoin:round;stroke-miterlimit:10;}
	.st28{fill:none;stroke:#4B1812;stroke-width:0.3952;stroke-linecap:round;stroke-linejoin:round;stroke-miterlimit:10;}
	.st29{fill:none;stroke:#061420;stroke-width:0.988;stroke-linecap:round;stroke-linejoin:round;stroke-miterlimit:10;}
	.st30{fill:#4B1812;}
	.st31{fill:#90271D;}
	.st32{fill:#CCEBD6;}
	.st33{fill:#66C285;}
	.st34{fill:none;stroke:#FFFFFF;stroke-width:1.3793;stroke-linecap:round;stroke-linejoin:round;stroke-miterlimit:10;}
	.st35{fill-rule:evenodd;clip-rule:evenodd;fill:#FFFFFF;}
	.st36{opacity:0.3;fill:#312F75;enable-background:new    ;}
	.st37{fill-rule:evenodd;clip-rule:evenodd;fill:#FFBC00;}
	.st38{fill-rule:evenodd;clip-rule:evenodd;fill:#FC8A00;}
	.st39{fill:none;stroke:#DD7500;stroke-width:2.2349;stroke-linecap:round;stroke-linejoin:round;stroke-miterlimit:10;}
	.st40{fill:#FFBC00;}
	.st41{opacity:0.5;}
	.st42{fill:#DD7500;}
	.st43{opacity:0.1;}
	.st44{fill:#3D2416;}
	.st45{fill:#00766B;}
	.st46{fill:#00B593;}
	.st47{fill:#EF8919;}
	.st48{fill:#FFC100;}
	.st49{fill:#CCCCCC;}
</style>
<g id="Layer_1_1_" class="st0">
	<rect x="-436.43" class="st1" width="1601.85" height="841.89"/>
</g>
<g id="Layer_2_1_">
	<ellipse class="st2" cx="713.59" cy="773.49" rx="83.5" ry="13.16"/>
	<g>
		
			<linearGradient id="SVGID_1_" gradientUnits="userSpaceOnUse" x1="30.8557" y1="405.025" x2="382.7537" y2="405.025" gradientTransform="matrix(1 0 0 -1 0 844)">
			<stop  offset="0" style="stop-color:#191E45"/>
			<stop  offset="1" style="stop-color:#009934;stop-opacity:0"/>
		</linearGradient>
		<path class="st3" d="M323.38,556.43c-1.62,0-3.22-0.09-4.81-0.27v0.27H90.22c-33.56,0-60.61-37.82-59.32-83.78
			c1.2-42.57,26.97-76.77,58.33-77.47c0.29-0.01,0.58-0.01,0.87-0.01c21.51-0.06,38.12,1.08,58.79-8.36
			c29.1-13.3,31.98-52.77,67.61-57.75c22.87-3.2,35.73,16.58,60.63-0.23c5.57-3.76,11.38-7.31,18.04-7.31
			c18.18,0,32.92,20.01,32.92,44.71c0,0.36,0,0.72-0.01,1.07c-0.26,15.01,6.65,28.42,16.95,33.89
			c22.3,11.85,36.78,39.53,37.68,71.45C383.99,518.61,356.94,556.43,323.38,556.43z"/>
	</g>
	<ellipse class="st2" cx="202.62" cy="795.41" rx="130.3" ry="13.93"/>
	<ellipse class="st2" cx="485.57" cy="722.32" rx="224.74" ry="13.16"/>
	<g>
		<g>
			<path class="st4" d="M246.39,724.09c-0.3,28.2-0.65,51.71-0.65,51.71h-31.29l-8.35-51.71H246.39z"/>
			<g>
				<path class="st5" d="M245.97,759.85c0,0,2.21-4.02,1.79-8.1c-0.42-4.09-13.95-3.14-15.3,1.37c-1.37,4.51,1.97,10.91,1.97,10.91
					S242.18,763.25,245.97,759.85z"/>
				<path class="st6" d="M285.49,794.33l-73.82-0.01l-1.63-35.84c24.36,11.95,35.94,1.4,35.94,1.4c14.64,1.51,35.56,7.55,39.02,28.7
					C285.29,790.37,285.46,792.28,285.49,794.33z"/>
				<path class="st5" d="M285.49,794.33l-73.82-0.01l-0.4-6.42l73.72,0.68C285.29,790.37,285.46,792.28,285.49,794.33z"/>
				<path class="st5" d="M284.99,788.56l-32.07-0.27c-0.59-22.72,11.08-23.94,11.5-24c0.01,0,0.01,0,0.01,0
					C279.81,767.47,282.84,775.43,284.99,788.56z"/>
				<g>
					<path class="st7" d="M250.35,760.6c0,0,0.39-8.85,6.39-10.18C262.72,749.08,270.37,761.33,250.35,760.6z"/>
					<path class="st7" d="M250.47,760.57c0,0-7.25-7.15-13.24-5.82C231.22,756.09,234.5,769.31,250.47,760.57z"/>
				</g>
				<path class="st7" d="M255.29,761.37c0,0-5.89,0.75-5.93,6.48"/>
				<path class="st8" d="M251.04,768.21c0.35,0.81,0,1.6-0.76,1.77c-0.77,0.17-1.67-0.34-2.02-1.15c-0.35-0.81,0-1.6,0.76-1.77
					C249.79,766.89,250.7,767.41,251.04,768.21z"/>
				<line class="st9" x1="233.94" y1="767.47" x2="226.81" y2="776.56"/>
				<line class="st9" x1="240.45" y1="773.7" x2="236.23" y2="779.07"/>
				<path class="st5" d="M222.32,787.99c0,0-1-7.58-11.41-9.97l0.35,9.86L222.32,787.99z"/>
			</g>
			<path class="st8" d="M246.19,742.96c0,0-18.66,4.98-36.84,1.23l-3.24-20.09h40.29L246.19,742.96z"/>
		</g>
		<g>
			<path class="st10" d="M100.29,338.37c0,0,1.57-14.39,7.15-14.41c5.58-0.01,5.62,11.09,5.44,15.83"/>
			<path class="st11" d="M126.4,392.1c-27.87-9.16-54.25-4.72-54.25-4.72s-11.72-0.81-10.12-11.82
				c1.6-11.02,19.23-32.42,34.49-38.45c15.25-6.05,26.62,3.58,28.59,22.51C125.86,366.76,126.42,378.88,126.4,392.1z"/>
			<path class="st6" d="M119.82,448.98c-8.42,17.5-42.84,13.52-50.97,2.93c-8.13-10.6-1.34-23.27-0.11-32.62
				c1.23-9.35,3.41-31.9,3.41-31.9s26.38-4.44,54.25,4.72C126.38,413.9,124.78,438.67,119.82,448.98z"/>
			<g>
				<path class="st11" d="M81.27,419.46c0,0-0.76,8.01-1.87,14.74c-1.11,6.74,2.64,10.75,15.33,11.33
					c12.68,0.58,16.99,0.53,17.21-6.81c0.22-7.34,0.42-16.69,0.42-16.69L81.27,419.46z"/>
				<polygon class="st8" points="81.28,419.37 81.05,421.62 112.28,425.1 114.58,422.11 				"/>
				<path class="st11" d="M84.8,405.21c0,0-0.9,6.65-5.31,13.85c0,0,17.91,3.35,35.09,3.05c0,0-2.1-8.49-1.48-14.44L84.8,405.21z"/>
				<path class="st12" d="M100.73,414.02c-0.13,1.48-1.8,2.7-3.35,2.56S95,415,95.12,413.52c0.13-1.48,1.85-2.52,3.4-2.38
					C100.08,411.27,100.85,412.54,100.73,414.02z"/>
			</g>
			<path class="st8" d="M72.15,387.38l-0.34,3.41c0,0,25.92,0.13,54.48,10.61c0,0,0.12-5.23,0.11-9.31
				C126.4,392.1,103.44,383.37,72.15,387.38z"/>
		</g>
		<g>
			<path class="st4" d="M112.53,724.09c0.3,28.2,0.65,51.71,0.65,51.71h31.29l8.35-51.71H112.53z"/>
			<g>
				<path class="st5" d="M112.95,759.85c0,0-2.21-4.02-1.79-8.1c0.42-4.09,13.95-3.14,15.3,1.37c1.37,4.51-1.97,10.91-1.97,10.91
					S116.72,763.25,112.95,759.85z"/>
				<path class="st6" d="M73.43,794.33l73.82-0.01l1.63-35.84c-24.36,11.95-35.94,1.4-35.94,1.4c-14.64,1.51-35.56,7.55-39.02,28.7
					C73.63,790.37,73.46,792.28,73.43,794.33z"/>
				<path class="st5" d="M73.43,794.33l73.82-0.01l0.4-6.42l-73.72,0.68C73.63,790.37,73.46,792.28,73.43,794.33z"/>
				<path class="st5" d="M73.93,788.56l32.07-0.27c0.59-22.72-11.08-23.94-11.5-24c-0.01,0-0.01,0-0.01,0
					C79.11,767.47,76.08,775.43,73.93,788.56z"/>
				<g>
					<path class="st7" d="M108.57,760.6c0,0-0.39-8.85-6.39-10.18C96.2,749.08,88.55,761.33,108.57,760.6z"/>
					<path class="st7" d="M108.45,760.57c0,0,7.25-7.15,13.24-5.82C127.69,756.09,124.42,769.31,108.45,760.57z"/>
				</g>
				<path class="st7" d="M103.62,761.37c0,0,5.89,0.75,5.93,6.48"/>
				<path class="st8" d="M107.88,768.21c-0.35,0.81,0,1.6,0.76,1.77c0.77,0.17,1.67-0.34,2.02-1.15c0.35-0.81,0-1.6-0.76-1.77
					C109.13,766.89,108.22,767.41,107.88,768.21z"/>
				<line class="st9" x1="124.97" y1="767.47" x2="132.11" y2="776.56"/>
				<line class="st9" x1="118.47" y1="773.7" x2="122.69" y2="779.07"/>
				<path class="st5" d="M136.6,787.99c0,0,1-7.58,11.41-9.97l-0.35,9.86L136.6,787.99z"/>
			</g>
			<path class="st8" d="M112.73,742.96c0,0,18.66,4.98,36.83,1.23l3.24-20.09h-40.29L112.73,742.96z"/>
		</g>
		<g>
			<path class="st13" d="M233.03,444.02l21.28,293.72c0,0-28.27,7.6-49.65,0L183,517.4l-28.87,219.84c0,0-26.33,8.68-51.35,0
				l33.82-293.23L233.03,444.02L233.03,444.02z"/>
			<path class="st14" d="M232.13,741.1c-9.92,0.11-19.97-0.69-27.48-3.36l-21.64-220.33c2.55-8.27,4.06-18.78,4.91-29.54l5.01-1.86
				L232.13,741.1z"/>
			<path class="st15" d="M188.31,444.02c0,0,3.39,45.17-5.32,73.39"/>
			<path class="st15" d="M197.02,444.02v17.54c0,4.73-3.51,8.73-8.21,9.36l0,0"/>
			<line class="st15" x1="197.02" y1="484.48" x2="180.09" y2="490.82"/>
			<path class="st15" d="M221.43,444.02c0,0,0.69,25.61,14.12,29.62"/>
			<line class="st15" x1="184.92" y1="509.83" x2="218.34" y2="740.6"/>
			<line class="st15" x1="141.76" y1="444.02" x2="110.69" y2="740.29"/>
			<path class="st16" d="M233.03,444.02l1.55,12.12c0,0-1.38-1.6-5.69-1.12c-3.81,0.42-7.41,2.31-9.54,2.53
				c-4.54,0.45-7.04,0.07-8.79-1.6c-1.72-1.63-1.45-3.3-1.48-5.47c-0.01-0.93-0.79-1.69-1.72-1.71l-41.68-0.11
				c-0.91,0-1.63,0.77-1.56,1.68c0.22,2.44,0.13,6.85-2.99,8.25c-6.06,2.73-10.08-4.58-15.66-6.27c-5.59-1.68-10.31,1.69-10.31,1.69
				l1.42-10.03h96.45V444.02z"/>
		</g>
		<g>
			<g>
				<path class="st5" d="M160.78,444.02h50.06c-1.52-26.79-7.05-113.16-15.88-137.95c-5.15-0.02-11.85,0.08-22.96,0.8
					c-5.62,0.37-12.54,1.73-19.67,3.82C157.26,343.43,161.58,416.31,160.78,444.02z"/>
				<path class="st17" d="M192.42,314.99c0,0,0.52,17.03-11.53,18.86c-14.76,2.25-23.93-11.96-23.93-11.96"/>
				<path class="st17" d="M166.74,382.14c0,0,9.53,22.53,37.51,23.76"/>
				<path class="st17" d="M187.18,373.06c0,0,1,11.73,10.48,14.84"/>
				<path class="st18" d="M191.83,306.08c8.78,24.66,12.43,109.08,11.49,137.95h7.54c-1.52-26.79-7.05-113.16-15.88-137.95H191.83z"
					/>
			</g>
			<g>
				<g>
					<polygon class="st19" points="299.34,199.54 276.7,200.96 267.79,248.79 269.86,250.31 292.63,247.13 301.39,201.07 					"/>
					<polygon class="st13" points="301.44,201.04 278.81,202.46 269.89,250.29 292.68,247.11 					"/>
					<path class="st5" d="M280.67,207.76c-0.34,1.37,0.05,2.64,0.88,2.84s1.78-0.73,2.13-2.08c0.34-1.37-0.05-2.64-0.88-2.84
						C281.97,205.46,281.02,206.39,280.67,207.76z"/>
				</g>
				<path class="st8" d="M265.08,344.76c5.06-0.59,4.48-18.34,3.65-26.95c-0.81-8.61-7.33-16.54-13.1-16.52
					C255.63,301.3,247.64,346.8,265.08,344.76z"/>
				<g>
					<path class="st20" d="M194.95,306.08c8.83,24.8,14.36,111.16,15.88,137.95c0.29,5.04,0.45,7.98,0.45,7.98
						c4.72,4.72,15.19-0.06,20.09-1.23c4.89-1.15,9.07,1.84,9.07,1.84c-5.23-50.55-13.96-100.86-13.96-100.86l38.6-6.99
						c-15.91,0-9.45-43.47-9.45-43.47s-41.9,4.64-49.96,4.83C202.12,306.21,199.02,306.09,194.95,306.08z"/>
					<line class="st17" x1="226.48" y1="351.75" x2="218.22" y2="353.11"/>
					<path class="st21" d="M194.95,306.08c1.97,5.58,3.81,14.25,5.44,24.66c8.03-2.46,13.16,0.93,13.16,0.93
						c-4.29-17.03-14.68-25.06-15.35-25.55C197.19,306.09,196.1,306.08,194.95,306.08z"/>
					<path class="st8" d="M212.72,331.21c0,0-7.48,0.07-11.68,3.7l-0.64-4.17C200.39,330.74,206.5,328.5,212.72,331.21z"/>
					<g>
						<g>
							<defs>
								<path id="SVGID_2_" d="M194.95,306.08c8.83,24.8,14.36,111.16,15.88,137.95c0.29,5.04,0.45,7.98,0.45,7.98
									c4.72,4.72,15.19-0.06,20.09-1.23c4.89-1.15,9.07,1.84,9.07,1.84c-5.23-50.55-13.96-100.86-13.96-100.86l38.6-6.99
									c-15.91,0-9.45-43.47-9.45-43.47s-41.9,4.64-49.96,4.83C202.12,306.21,199.02,306.09,194.95,306.08z"/>
							</defs>
							<clipPath id="SVGID_3_">
								<use xlink:href="#SVGID_2_"  style="overflow:visible;"/>
							</clipPath>
							<g class="st22">
								<path class="st21" d="M239.57,423.41c-0.35,3.11-3.89,5.2-5.19,5.08c-1.28-0.12-0.57-1.2,0.77-1.67
									c1.34-0.47,2.71-1.62,3.21-3.64s-1.78-4.37-1.78-4.37s-0.4,2.48-1.04,3.52c-0.64,1.04-2.78,2.93-3.12,1.87
									c-0.34-1.05,0.5-1.86,1.9-3.17s1.27-3.98-1.46-5.35c-2.73-1.37-5.73-2.33-5.73-2.33c0.13,0.58-0.07,2.58-0.42,2.99
									c-0.35,0.4-1.34,0.19-0.77-1.58c0.57-1.78-1.2-2.9-1.2-2.9c-0.91,3.04-2.64,3.91-2.54,4.58c0.1,0.68,1.89,1.23,2.64,1.48
									c0.75,0.23,1.17,1.42-0.51,1c-1.69-0.41-2.65-1.75-2.65-1.75c-2.98,4.84,3.5,5,4.39,5.54c0.9,0.54,1.66,2.42-1.28,1.62
									c-2.94-0.81-4.31-3.22-4.31-3.22s-2.3,5.53,1.11,7.58c3.41,2.06,7.4,1.1,7.4,1.1c-1.38,2.56-7.28,0.41-7.28,0.41
									s2.15,3.69,6.13,5.12c3.1,1.1,4.64-1.23,5.19-2.32c0.29,0.51,0.59,1.02,0.9,1.52c0.41,0.69,0.86,1.37,1.28,2.06
									c0,0,0,0,0,0.01c0.13,0.21,0.4,0.25,0.6,0.12c0.21-0.13,0.25-0.4,0.12-0.6l-0.01-0.01c-0.44-0.67-0.88-1.32-1.31-2
									c-0.31-0.51-0.64-1.02-0.94-1.54c1.15,0.21,4.43,0.51,5.9-2.55C241.34,426.24,239.57,423.41,239.57,423.41z M229.06,417.54
									c0.8-0.75,1.67-0.96,1.95-0.64c0.28,0.31-0.77,3.58-2.49,2.93C228.14,419.67,228.25,418.29,229.06,417.54z"/>
								<path class="st21" d="M217.48,377.7c-2.71,1.56-6.5-0.06-7.16-1.17c-0.67-1.11,0.63-1.17,1.8-0.36
									c1.17,0.81,2.92,1.22,4.84,0.42c1.92-0.8,2.47-4.02,2.47-4.02s-2.24,1.15-3.45,1.25c-1.22,0.1-4-0.51-3.36-1.42
									c0.65-0.91,1.79-0.7,3.68-0.34c1.89,0.36,3.97-1.33,3.44-4.34c-0.52-3.01-1.51-6.01-1.51-6.01
									c-0.39,0.45-2.12,1.48-2.65,1.43c-0.52-0.05-0.96-0.97,0.81-1.56c1.77-0.59,1.62-2.69,1.62-2.69
									c-2.99,1.06-4.71,0.19-5.2,0.67c-0.5,0.48,0.12,2.25,0.37,3c0.25,0.74-0.45,1.79-1.11,0.18c-0.67-1.61-0.16-3.18-0.16-3.18
									c-5.66,0.47-1.96,5.77-1.86,6.81c0.08,1.04-0.97,2.77-2.06-0.07c-1.09-2.85,0.04-5.37,0.04-5.37s-5.82,1.43-5.46,5.38
									c0.36,3.97,3.5,6.62,3.5,6.62c-2.89,0.41-4.64-5.62-4.64-5.62s-1.71,3.92-0.48,7.97c0.96,3.14,3.75,3.01,4.95,2.79
									c-0.24,0.53-0.47,1.08-0.7,1.62c-0.31,0.74-0.59,1.5-0.9,2.25v0.01c-0.08,0.23,0.02,0.47,0.25,0.56
									c0.23,0.08,0.47-0.02,0.56-0.25l0.01-0.01c0.28-0.75,0.54-1.5,0.83-2.24c0.23-0.56,0.45-1.11,0.68-1.67
									c0.51,1.05,2.21,3.86,5.55,3.24C216.26,380.8,217.48,377.7,217.48,377.7z M215.99,365.75c1.09,0.21,1.75,0.77,1.67,1.19
									c-0.1,0.41-3.34,1.5-3.83-0.28C213.72,366.27,214.91,365.54,215.99,365.75z"/>
								<path class="st21" d="M219.08,312.4c-0.3-3.11,2.75-5.89,4.04-6.04c1.28-0.15,0.81,1.05-0.41,1.79
									c-1.22,0.74-2.32,2.15-2.39,4.22c-0.07,2.08,2.64,3.91,2.64,3.91s-0.12-2.5,0.3-3.65c0.41-1.15,2.13-3.44,2.67-2.48
									c0.56,0.97-0.1,1.92-1.21,3.48c-1.11,1.56-0.44,4.16,2.53,4.94c2.95,0.77,6.1,1.11,6.1,1.11c-0.25-0.53-0.46-2.54-0.19-3
									c0.25-0.46,1.27-0.47,1.09,1.39c-0.19,1.85,1.78,2.6,1.78,2.6c0.27-3.17,1.78-4.37,1.55-5.01c-0.23-0.64-2.1-0.82-2.88-0.9
									c-0.77-0.07-1.44-1.15,0.29-1.09c1.74,0.06,2.95,1.17,2.95,1.17c1.92-5.35-4.44-4.17-5.43-4.52
									c-0.98-0.35-2.12-2.03,0.92-1.85c3.05,0.19,4.87,2.26,4.87,2.26s1.11-5.88-2.65-7.2c-3.76-1.31-7.46,0.44-7.46,0.44
									c0.82-2.79,7.04-1.9,7.04-1.9s-2.85-3.17-7.05-3.75c-3.27-0.44-4.29,2.15-4.6,3.34c-0.39-0.44-0.79-0.87-1.19-1.31
									c-0.54-0.59-1.11-1.16-1.67-1.74c0,0,0,0-0.01-0.01c-0.17-0.17-0.45-0.17-0.62,0c-0.17,0.17-0.17,0.45,0,0.62l0.01,0.01
									c0.57,0.57,1.14,1.11,1.69,1.68c0.41,0.44,0.83,0.87,1.25,1.31c-1.17,0.02-4.43,0.41-5.25,3.71
									C216.76,310,219.08,312.4,219.08,312.4z M230.57,315.99c-0.63,0.91-1.44,1.28-1.77,1.03c-0.34-0.25,0.02-3.67,1.84-3.37
									C231.03,313.71,231.21,315.09,230.57,315.99z"/>
							</g>
						</g>
					</g>
				</g>
				<g>
					<path class="st4" d="M257.01,338.24c0,0,29.95-4.15,35.54-14.45c5.59-10.31,11.64-62.9,13.39-70.36
						c1.75-7.46,5.59-9.08,4.45-16.68c-1.14-7.6-2.81-14.67-5.33-18.07c-2.53-3.41-11.02-8.19-13.56-9.5
						c-2.53-1.31-5.15-1.05-5.24,2.09c-0.08,3.14,5.59,5.76,5.59,5.76s-0.27-0.62-4.2-1.05c-3.93-0.44-6.14,0.11-5.9,2.77
						c0.15,1.63,3.81,2.98,7.2,4.1c6.56,2.18,8.08,9.08,8.08,9.08s-3.65-6.07-7.22-7.33c-3.44-1.21-8.99-2.55-9.33,0.51
						c-0.16,1.35,0.99,3.21,5.88,5.08c4.56,1.74,6.13,7.21,6.13,7.21s-4.33-2.52-6.37-3.12c-1.79-0.53-4.72-1.68-6.23-1.68
						c-2.27,0-4.57,0.94-3,3.75c1.39,2.5,9.66,5.21,9.66,5.21c-0.02,0.51-0.58,4.16-0.58,4.16l-13.86,53.21l-16.49,2.35
						C255.63,301.3,251.57,323.62,257.01,338.24z"/>
					<path class="st17" d="M299.52,237.03c0,0-0.79-2.5-2.5-5.09"/>
					<path class="st17" d="M292.74,237.7c0,0,1.71,1.37,3.06,3.42"/>
					<path class="st17" d="M288.94,243.18c0,0-1-1.14-2.18-1.51"/>
					<path class="st8" d="M286.45,242.42c0,0,1.79,5.42,3.7,6.46c0,0-5.13,4.03-6.8,7.29L286.45,242.42z"/>
					<path class="st17" d="M303.8,228.53c0,0-4.04-8.64-11.53-11.35"/>
				</g>
				<line class="st17" x1="272.1" y1="299.36" x2="270.76" y2="306.08"/>
			</g>
			<g>
				<path class="st8" d="M96.14,396.02c-0.7,3.24,6.46,5.69,11.96,6.04c5.5,0.35,18.97,0,18.97,0l0.5-9.95
					C127.55,392.09,98.75,383.88,96.14,396.02z"/>
				<path class="st20" d="M96.14,396.02c0.4-1.15,2.67-5.79,13.67-6.01c12.59-0.22,17.7,3.04,17.7,3.04l-3.04,63.12
					c0,0,13.35-9.74,19.74-9.74c6.41,0,10.77,10.67,15.07,8.56c0.82-0.4,1.28-4.43,1.49-10.95c0.8-27.72-3.52-100.59-8.46-133.33
					c-1.28,0.37-2.54,0.77-3.82,1.2c-14.97,4.91-30.06,12.83-35.42,21.3C105.05,345.88,96.8,392.08,96.14,396.02z"/>
				<g>
					<g>
						<defs>
							<path id="SVGID_4_" d="M96.14,396.02c0.4-1.15,2.67-5.79,13.67-6.01c12.59-0.22,17.7,3.04,17.7,3.04l-3.04,63.12
								c0,0,13.35-9.74,19.74-9.74c6.41,0,10.77,10.67,15.07,8.56c0.82-0.4,1.28-4.43,1.49-10.95c0.8-27.72-3.52-100.59-8.46-133.33
								c-1.28,0.37-2.54,0.77-3.82,1.2c-14.97,4.91-30.06,12.83-35.42,21.3C105.05,345.88,96.8,392.08,96.14,396.02z"/>
						</defs>
						<clipPath id="SVGID_5_">
							<use xlink:href="#SVGID_4_"  style="overflow:visible;"/>
						</clipPath>
						<g class="st23">
							<path class="st21" d="M164.96,408.6c0.68,3.05-2.01,6.18-3.28,6.48c-1.26,0.29-0.93-0.94,0.19-1.83
								c1.12-0.87,2.04-2.42,1.86-4.49c-0.18-2.08-3.1-3.56-3.1-3.56s0.42,2.47,0.15,3.67s-1.69,3.67-2.36,2.78
								c-0.67-0.88-0.13-1.92,0.77-3.6c0.91-1.69-0.08-4.19-3.11-4.58c-3.02-0.41-6.18-0.36-6.18-0.36
								c0.31,0.51,0.76,2.47,0.57,2.96c-0.19,0.48-1.21,0.62-1.25-1.25c-0.04-1.86-2.08-2.36-2.08-2.36
								c0.12,3.17-1.23,4.55-0.92,5.16c0.31,0.62,2.19,0.56,2.98,0.54c0.79-0.02,1.57,0.97-0.16,1.11
								c-1.73,0.16-3.07-0.81-3.07-0.81c-1.26,5.54,4.91,3.59,5.94,3.82c1.02,0.23,2.35,1.75-0.69,1.95
								c-3.05,0.18-5.12-1.65-5.12-1.65s-0.39,5.98,3.51,6.82c3.89,0.85,7.35-1.34,7.35-1.34c-0.48,2.88-6.76,2.75-6.76,2.75
								s3.23,2.81,7.45,2.85c3.29,0.04,4-2.66,4.16-3.88c0.44,0.39,0.9,0.77,1.33,1.15c0.62,0.52,1.25,1.02,1.87,1.52
								c0,0,0,0,0.01,0.01c0.19,0.15,0.46,0.11,0.6-0.07c0.15-0.19,0.11-0.46-0.07-0.6l-0.01-0.01c-0.63-0.48-1.27-0.97-1.89-1.46
								c-0.46-0.39-0.93-0.76-1.39-1.15c1.16-0.17,4.35-0.96,4.77-4.33C167.56,410.71,164.96,408.6,164.96,408.6z M153.12,406.44
								c0.52-0.97,1.27-1.44,1.63-1.23c0.36,0.21,0.42,3.64-1.42,3.57C152.94,408.75,152.6,407.4,153.12,406.44z"/>
							<path class="st21" d="M152.31,354.63c0.57,2.56-1.68,5.19-2.75,5.43c-1.05,0.25-0.77-0.8,0.16-1.54
								c0.94-0.74,1.72-2.03,1.56-3.76c-0.16-1.74-2.6-2.99-2.6-2.99s0.35,2.08,0.12,3.07c-0.23,1-1.42,3.07-1.97,2.33
								c-0.56-0.75-0.11-1.61,0.65-3.02c0.76-1.42-0.07-3.51-2.61-3.85c-2.54-0.34-5.19-0.3-5.19-0.3c0.27,0.42,0.64,2.07,0.47,2.48
								s-1.02,0.52-1.04-1.04c-0.02-1.56-1.74-1.98-1.74-1.98c0.1,2.66-1.04,3.82-0.77,4.33c0.27,0.51,1.84,0.47,2.49,0.45
								c0.65-0.02,1.32,0.81-0.13,0.93c-1.45,0.13-2.58-0.68-2.58-0.68c-1.05,4.64,4.12,3.01,4.98,3.21s1.97,1.48-0.58,1.63
								c-2.55,0.16-4.29-1.38-4.29-1.38s-0.33,5.01,2.94,5.72c3.27,0.7,6.17-1.12,6.17-1.12c-0.4,2.41-5.67,2.3-5.67,2.3
								s2.71,2.35,6.25,2.4c2.76,0.04,3.36-2.24,3.48-3.25c0.37,0.33,0.75,0.64,1.12,0.97c0.52,0.44,1.05,0.86,1.57,1.28
								c0,0,0,0,0.01,0c0.16,0.12,0.39,0.1,0.51-0.06c0.12-0.16,0.1-0.39-0.06-0.51l-0.01-0.01c-0.52-0.41-1.06-0.81-1.58-1.23
								c-0.39-0.33-0.79-0.64-1.16-0.97c0.97-0.15,3.65-0.8,3.99-3.63C154.49,356.38,152.31,354.63,152.31,354.63z M142.38,352.8
								c0.44-0.81,1.06-1.21,1.37-1.04c0.31,0.18,0.35,3.05-1.19,3C142.22,354.75,141.94,353.63,142.38,352.8z"/>
							<path class="st21" d="M97.72,358.92c-0.3-3.11,2.75-5.89,4.04-6.04c1.28-0.15,0.81,1.05-0.41,1.79
								c-1.22,0.74-2.32,2.15-2.39,4.22c-0.07,2.08,2.64,3.91,2.64,3.91s-0.12-2.5,0.3-3.65c0.41-1.15,2.13-3.44,2.67-2.48
								c0.56,0.97-0.1,1.92-1.21,3.48c-1.11,1.56-0.44,4.16,2.53,4.94c2.95,0.77,6.1,1.11,6.1,1.11c-0.25-0.53-0.46-2.54-0.19-3
								c0.25-0.46,1.27-0.47,1.09,1.39c-0.19,1.85,1.78,2.6,1.78,2.6c0.27-3.17,1.78-4.37,1.55-5.01c-0.23-0.64-2.1-0.82-2.88-0.9
								c-0.77-0.07-1.44-1.15,0.29-1.09c1.74,0.06,2.95,1.17,2.95,1.17c1.92-5.35-4.44-4.17-5.43-4.52
								c-0.98-0.35-2.12-2.03,0.92-1.84c3.05,0.19,4.87,2.26,4.87,2.26s1.11-5.88-2.65-7.2c-3.76-1.31-7.46,0.44-7.46,0.44
								c0.82-2.79,7.04-1.9,7.04-1.9s-2.85-3.17-7.05-3.75c-3.27-0.44-4.29,2.15-4.6,3.34c-0.39-0.44-0.79-0.87-1.19-1.31
								c-0.54-0.59-1.11-1.16-1.67-1.74c0,0,0,0-0.01-0.01c-0.17-0.17-0.45-0.17-0.62,0c-0.17,0.17-0.17,0.45,0,0.62l0.01,0.01
								c0.57,0.57,1.14,1.11,1.69,1.68c0.41,0.44,0.83,0.87,1.25,1.31c-1.17,0.02-4.43,0.41-5.25,3.71
								C95.4,356.53,97.72,358.92,97.72,358.92z M109.21,362.52c-0.63,0.91-1.44,1.28-1.77,1.03c-0.34-0.25,0.02-3.67,1.84-3.37
								C109.67,360.24,109.85,361.62,109.21,362.52z"/>
						</g>
					</g>
				</g>
				<path class="st6" d="M127.02,403.04c0,0,14.33-10.89,19.03-39.64c5.58-34.21-6.6-43.65-12-46.11c-1.35-0.62-2.94-0.52-4.23,0.22
					l-8.15,4.63c-0.92,0.52-0.83,1.9,0.17,2.26c6.11,2.19,18.69,11.25,6.81,48.34L127.02,403.04z"/>
				<path class="st21" d="M142.12,337.49c3.56-3.71,10.84-4.45,12.89-4.58c-0.86-8.45-1.77-16.04-2.7-22.21
					c-1.28,0.37-2.54,0.77-3.82,1.2C145.57,316.89,142.12,337.49,142.12,337.49z"/>
				<line class="st17" x1="127.5" y1="393.03" x2="129.25" y2="361.58"/>
				<path class="st8" d="M155.02,332.9l0.4,4.58c0,0-4.02-2.62-12.46-0.76C142.96,336.72,147.37,333.1,155.02,332.9z"/>
				<g>
					<path class="st4" d="M178.06,378.39c-0.87,2.72-16.81,10.62-18.68,12.72c-1.86,2.1-19.2,30.24-28.47,42.35
						c-9.28,12.12-27.4,7.55-31.8,2.95c-8.94-9.33-1.79-31.32,1.03-44.43c0,0,4.38-2.61,14.97-1.87c8.26,0.59,12.4,2.92,12.4,2.92
						l-0.12,2.27c7.52-7.96,15.02-16.11,15.56-17.16c1-1.98,2.35-20.53,3.97-22.51c1.61-1.96,9.88-6.05,12.6-5.19
						c2.72,0.87,2.6,3.83,2.6,3.83s14.83,7.79,15.95,9.52C179.16,365.54,178.92,375.66,178.06,378.39z"/>
					<path class="st17" d="M162.11,354.28c0,0-6.56-1.65-7.62,2.39c-1.08,4.04-0.99,10.46-0.99,10.46"/>
					<path class="st17" d="M174.6,361.27c0,0,0.21,3.22-0.51,11.62"/>
					<path class="st17" d="M169.62,358.37c0,0-0.34,8.27-0.46,10.69"/>
					<path class="st17" d="M162.69,354.58c0,0,0.22,6.48-0.34,11.49"/>
					<path class="st17" d="M156.42,367.69c0,0,4.27-0.12,5.94,0.5c1.67,0.62,10.57,6.24,11.43,7.11"/>
					<path class="st17" d="M127.39,395.31c0,0-12.91,10.75-17.47,16.7"/>
				</g>
			</g>
		</g>
		<path class="st15" d="M148.44,448.07c0.44,7.38,0.04,22.56-10.05,25.58"/>
		<g>
			<line class="st24" x1="273.68" y1="196.33" x2="268.89" y2="192"/>
			<line class="st24" x1="270.55" y1="200.2" x2="261.5" y2="194.53"/>
			<line class="st24" x1="269.57" y1="204.82" x2="258.89" y2="204.79"/>
			<line class="st24" x1="270.5" y1="209.21" x2="265.79" y2="212.25"/>
		</g>
		<g>
			<g>
				<path class="st8" d="M146.43,268.13c0,0,0.79,10.28-0.37,20.51c-1.15,10.25,5.21,8.37,6.37,6.58c0,0,1.66,4.84,6.5,4.1
					c4.84-0.74,4.17-12.75,2.72-24.36C160.18,263.35,149.48,257.18,146.43,268.13z"/>
				<path class="st4" d="M171.69,235.94c15.4-2.94,26.82,3.44,27.39,17.51c0.75,18.3,4.83,21.31,3.06,29.47
					c-1.94,8.94-9.23,14.3-21.08,15.81c-15.52,1.98-28.49-5.72-30.9-29.41C147.89,247.34,159.22,238.33,171.69,235.94z"/>
				<path class="st4" d="M153.92,278.03l1.06,32.16c0,0,9.82,18.41,22.39,18.41c12.57,0,10.49-18.29,10.49-18.29v-13l-0.05-0.02
					L153.92,278.03z"/>
				<path class="st8" d="M165.55,296.8c0.35,0.62,6.7,10.4,22.29,7.98v-7.5l-0.05-0.02c-2.06,0.69-4.33,1.15-6.79,1.49
					C175.4,299.46,170.14,298.9,165.55,296.8z"/>
				<g>
					<path class="st6" d="M171.82,233.27c0,0-5.87-3.29-13.83-0.4c-7.96,2.9-18.49,12.35-11.56,35.25c0,0,2.65-5.94,13.21-13.27
						L171.82,233.27z"/>
					<path class="st25" d="M153.43,259.74c0,0-7.31-17.36,0.77-25.03"/>
					<path class="st11" d="M199.1,252.04c0,0,10.87-8.33,8.32-18.22c-2.55-9.88-22.81-9.52-32.77-2.84
						c-9.94,6.68-15.02,23.88-15.02,23.88S174.71,247.44,199.1,252.04z"/>
				</g>
				<g>
					<path class="st8" d="M199.1,252.04c0,0,4.97-8.93-0.48-13.46c-6.25-5.2-13.85,2.96-15.16,4.84c0,0,0.21-4.21-5.19-2.99
						c-5.39,1.22-8.82,8.87-14.43,12.85C163.85,253.28,185.43,256.89,199.1,252.04z"/>
					<path class="st26" d="M192.81,242.23c0,0-0.65,5.23-6.6,9.6"/>
					<path class="st26" d="M177.81,246.48c0,0-1.44,3.24-3.67,4.98"/>
					<path class="st26" d="M184.85,246.46c0,0-0.97,2.06-2.69,3.34"/>
					<path class="st26" d="M196.19,247.15c0,0-0.97,2.06-2.69,3.34"/>
				</g>
				<path class="st8" d="M163.44,253.52c0,0,0.47,8.13-3.46,10.39c0,0,2.26,10.2-3.51,12.17c-5.77,1.97-6.99-12.56-6.99-12.56
					S155.08,254.58,163.44,253.52z"/>
				<g>
					<path class="st4" d="M158.1,270.44c0.54,4.21-1.75,7.98-5.14,8.42c-3.37,0.44-6.56-2.64-7.09-6.85
						c-0.54-4.21,1.75-7.98,5.14-8.42C154.39,263.16,157.57,266.22,158.1,270.44z"/>
					<g>
						<path class="st27" d="M149.5,268.24c0,0-0.62,5.44,4.63,6.01"/>
						<path class="st27" d="M152.91,268.71c0,0-2.02,1.27-1.85,4.23"/>
					</g>
				</g>
			</g>
			<g>
				<path class="st8" d="M177.42,266.52c0.24,1.37-0.68,2.67-2.06,2.92c-1.37,0.24-2.67-0.68-2.92-2.06
					c-0.24-1.37,0.68-2.67,2.06-2.92C175.87,264.22,177.18,265.14,177.42,266.52z"/>
				<path class="st28" d="M187.59,261.53l-0.73,3.76l2.6,4.72c0.34,0.62-0.02,1.38-0.71,1.49l-4.38,0.76"/>
				<path class="st29" d="M168.06,262.85c0,0,3.33-3.22,8.62-3.34"/>
				<path class="st8" d="M195.84,263.33c0.24,1.37-0.68,2.67-2.06,2.92c-1.37,0.24-2.67-0.68-2.92-2.06
					c-0.24-1.37,0.68-2.67,2.06-2.92C194.31,261.04,195.61,261.96,195.84,263.33z"/>
				<path class="st29" d="M188.34,257.45c0,0,4.33-1.65,9.23,0.34"/>
				<g>
					<path class="st30" d="M187.85,278.43c0,0-7.68-0.37-11.65-1.6c0,0-2.38,8.48,4.56,9.31S187.85,278.43,187.85,278.43z"/>
					<path class="st5" d="M175.91,278.38c0,0,3.87,1.78,8.32,1.94c2.95,0.1,3.05-1.66,3.06-1.91c-1.84-0.15-7.78-0.57-11.09-1.6
						C176.19,276.82,176.02,277.45,175.91,278.38z"/>
					<path class="st31" d="M176.82,283.92c0.71,1.12,1.95,2,3.93,2.21c1.94,0.23,3.35-0.28,4.38-1.12
						c-0.74-1.19-2.46-2.04-4.48-2.13C179.14,282.84,177.76,283.24,176.82,283.92z"/>
				</g>
			</g>
		</g>
	</g>
	<g>
		<g>
			<path class="st5" d="M529.18,489.06h14.58c10.23,0,18.52-8.29,18.52-18.52v-20.51h-33.1V489.06z"/>
			<path class="st32" d="M494.94,411v78.05h49.53l0,0c-8.35,0-15.15-6.71-15.26-15.06v-0.2v-47.53c0-8.43-6.83-15.26-15.26-15.26
				L494.94,411L494.94,411z"/>
		</g>
		<g>
			<path class="st13" d="M335.12,702.13l30.27-251.96c1.03-8.6,8.33-15.08,17-15.08h125.53c7.26,0,13.73,4.57,16.14,11.42l2.38,6.74
				c0.88,2.48,1.17,5.13,0.86,7.74l-29.92,249.58c-0.73,6.12-5.92,10.72-12.09,10.72H352.12
				C341.85,721.3,333.9,712.33,335.12,702.13z"/>
			<path class="st33" d="M325.98,705.94l30.77-255.61c1.05-8.7,8.43-15.24,17.19-15.24h128.77c10.38,0,18.43,9.07,17.19,19.38
				l-30.6,254.16c-0.87,7.23-7.01,12.67-14.29,12.67H339.6C331.38,721.3,325,714.11,325.98,705.94z"/>
			<path class="st32" d="M331.95,703.94l30.59-254.08c0.66-5.46,5.29-9.57,10.79-9.57h129.05c6.52,0,11.57,5.7,10.79,12.17
				l-30.59,254.07c-0.66,5.46-5.29,9.57-10.79,9.57H342.74C336.22,716.1,331.17,710.41,331.95,703.94z"/>
			<path class="st33" d="M417.29,440.28l2.44,5.62c0.86,1.99,2.82,3.27,4.98,3.27h22.13c1.62,0,3.16-0.73,4.19-1.98l5.69-6.92
				h-39.43V440.28z"/>
			<path class="st13" d="M483.61,697.95l-1.03,8.58c-0.66,5.46-5.29,9.57-10.79,9.57H342.74c-6.52,0-11.57-5.7-10.79-12.17
				l0.72-5.98L483.61,697.95L483.61,697.95z"/>
			<polyline class="st34" points="366.12,703.89 360.97,707.12 364.73,710.16 			"/>
			<g>
				<line class="st34" x1="447.79" y1="703.89" x2="454.95" y2="703.89"/>
				<line class="st34" x1="446.86" y1="707.03" x2="454.02" y2="707.03"/>
				<line class="st34" x1="445.92" y1="710.16" x2="453.09" y2="710.16"/>
			</g>
			<g>
				<path class="st5" d="M385.73,710.68l3.75-10.15c-1.43-2.98-2.01-6.35-1.68-9.79c1.04-10.8,10.66-19.58,21.46-19.58
					c5.24,0,9.96,2.04,13.3,5.74s4.91,8.62,4.41,13.85c-1.04,10.79-10.66,19.58-21.46,19.58h-0.01c-3.28,0-6.42-0.82-9.13-2.38
					L385.73,710.68z"/>
				<path class="st13" d="M408.95,674.47c-8.98,0-16.98,7.3-17.84,16.27c-0.3,3.06,0.28,6.07,1.66,8.66l0.33,0.62l-2.22,6l6.32-1.62
					l0.56,0.35c2.36,1.48,5.15,2.27,8.07,2.27h0.01c8.97,0,16.97-7.3,17.83-16.27c0.43-4.32-0.89-8.47-3.66-11.51
					C417.25,676.18,413.27,674.46,408.95,674.47z"/>
				<path class="st35" d="M403.28,682.56c-0.29-0.81-0.67-0.83-1.02-0.85l-0.94-0.01c-0.33,0-0.87,0.12-1.36,0.61
					c-0.5,0.49-1.87,1.67-2.1,4.08c-0.23,2.41,1.3,4.73,1.51,5.06c0.21,0.33,2.87,5.43,7.65,7.39c3.98,1.63,4.85,1.31,5.76,1.22
					c0.91-0.08,3.01-1.18,3.53-2.33c0.52-1.14,0.61-2.12,0.51-2.33c-0.1-0.2-0.42-0.33-0.88-0.57c-0.47-0.24-2.76-1.43-3.19-1.59
					c-0.43-0.16-0.75-0.24-1.12,0.25s-1.42,1.59-1.73,1.92c-0.32,0.33-0.61,0.37-1.07,0.12c-0.47-0.24-1.99-0.76-3.7-2.43
					c-1.33-1.3-2.16-2.9-2.4-3.39s0.04-0.75,0.31-1c0.24-0.22,0.54-0.57,0.82-0.86c0.27-0.29,0.37-0.49,0.57-0.82
					c0.19-0.33,0.14-0.61,0.04-0.86S403.62,683.53,403.28,682.56"/>
			</g>
		</g>
		<g>
			<path class="st13" d="M367.63,531.34h127.86c1.85,0,3.36-1.5,3.36-3.36v-2.69c0-1.85-1.5-3.36-3.36-3.36H367.63
				c-1.85,0-3.36,1.5-3.36,3.36v2.69C364.28,529.84,365.78,531.34,367.63,531.34z"/>
			<g>
				<path class="st5" d="M367.91,431.28v91.83c0,1.9,1.54,3.43,3.43,3.43h120.17c1.9,0,3.43-1.54,3.43-3.43v-91.83l0,0
					c0-11.2,9.08-20.28,20.28-20.28l0,0H388.19C376.99,411,367.91,420.08,367.91,431.28z"/>
				<path class="st6" d="M397.66,433.8h69.46c2.24,0,4.06-1.82,4.06-4.06l0,0c0-2.24-1.82-4.06-4.06-4.06h-69.46
					c-2.24,0-4.06,1.82-4.06,4.06l0,0C393.61,431.98,395.42,433.8,397.66,433.8z"/>
				<path class="st6" d="M405.05,444.04h54.68c0.91,0,1.64-0.74,1.64-1.64l0,0c0-0.91-0.74-1.64-1.64-1.64h-54.68
					c-0.91,0-1.64,0.74-1.64,1.64l0,0C403.41,443.3,404.15,444.04,405.05,444.04z"/>
				<path class="st13" d="M466.54,463.99h17.68c0.91,0,1.64-0.74,1.64-1.64l0,0c0-0.91-0.74-1.64-1.64-1.64h-17.68
					c-0.91,0-1.64,0.74-1.64,1.64l0,0C464.9,463.25,465.63,463.99,466.54,463.99z"/>
				<path class="st13" d="M474.33,470.11h9.89c0.91,0,1.64-0.74,1.64-1.64l0,0c0-0.91-0.74-1.64-1.64-1.64h-9.89
					c-0.91,0-1.64,0.74-1.64,1.64l0,0C472.69,469.37,473.43,470.11,474.33,470.11z"/>
				<path class="st13" d="M476.49,489.43h7.73c0.91,0,1.64-0.74,1.64-1.64l0,0c0-0.91-0.74-1.64-1.64-1.64h-7.73
					c-0.91,0-1.64,0.74-1.64,1.64l0,0C474.85,488.69,475.58,489.43,476.49,489.43z"/>
				<path class="st13" d="M457.01,489.43h12.49c0.91,0,1.64-0.74,1.64-1.64l0,0c0-0.91-0.74-1.64-1.64-1.64h-12.49
					c-0.91,0-1.64,0.74-1.64,1.64l0,0C455.37,488.69,456.1,489.43,457.01,489.43z"/>
				<path class="st13" d="M471.21,476.55h13.01c0.91,0,1.64-0.74,1.64-1.64l0,0c0-0.91-0.74-1.64-1.64-1.64h-13.01
					c-0.91,0-1.64,0.74-1.64,1.64l0,0C469.57,475.81,470.3,476.55,471.21,476.55z"/>
				<path class="st13" d="M471.21,511.05h13.01c0.91,0,1.64-0.74,1.64-1.64l0,0c0-0.91-0.74-1.64-1.64-1.64h-13.01
					c-0.91,0-1.64,0.74-1.64,1.64l0,0C469.57,510.31,470.3,511.05,471.21,511.05z"/>
				<path class="st13" d="M462.68,511.05h2.42c0.91,0,1.64-0.74,1.64-1.64l0,0c0-0.91-0.74-1.64-1.64-1.64h-2.42
					c-0.91,0-1.64,0.74-1.64,1.64l0,0C461.03,510.31,461.77,511.05,462.68,511.05z"/>
				<path class="st13" d="M467.28,482.99h16.94c0.91,0,1.64-0.74,1.64-1.64l0,0c0-0.91-0.74-1.64-1.64-1.64h-16.94
					c-0.91,0-1.64,0.74-1.64,1.64l0,0C465.64,482.25,466.37,482.99,467.28,482.99z"/>
				<path class="st13" d="M461.84,476.55h3.09c0.91,0,1.64-0.74,1.64-1.64l0,0c0-0.91-0.74-1.64-1.64-1.64h-3.09
					c-0.91,0-1.64,0.74-1.64,1.64l0,0C460.2,475.81,460.93,476.55,461.84,476.55z"/>
				<path class="st13" d="M380.56,476.55h3.09c0.91,0,1.64-0.74,1.64-1.64l0,0c0-0.91-0.74-1.64-1.64-1.64h-3.09
					c-0.91,0-1.64,0.74-1.64,1.64l0,0C378.92,475.81,379.66,476.55,380.56,476.55z"/>
				<path class="st13" d="M380.56,463.99h3.09c0.91,0,1.64-0.74,1.64-1.64l0,0c0-0.91-0.74-1.64-1.64-1.64h-3.09
					c-0.91,0-1.64,0.74-1.64,1.64l0,0C378.92,463.25,379.66,463.99,380.56,463.99z"/>
				<path class="st13" d="M380.56,470.11h3.09c0.91,0,1.64-0.74,1.64-1.64l0,0c0-0.91-0.74-1.64-1.64-1.64h-3.09
					c-0.91,0-1.64,0.74-1.64,1.64l0,0C378.92,469.37,379.66,470.11,380.56,470.11z"/>
				<path class="st13" d="M380.63,482.99h3.09c0.91,0,1.64-0.74,1.64-1.64l0,0c0-0.91-0.74-1.64-1.64-1.64h-3.09
					c-0.91,0-1.64,0.74-1.64,1.64l0,0C378.99,482.25,379.72,482.99,380.63,482.99z"/>
				<path class="st13" d="M380.63,489.43h3.09c0.91,0,1.64-0.74,1.64-1.64l0,0c0-0.91-0.74-1.64-1.64-1.64h-3.09
					c-0.91,0-1.64,0.74-1.64,1.64l0,0C378.99,488.69,379.72,489.43,380.63,489.43z"/>
				<path class="st13" d="M457.01,470.11h12.11c0.91,0,1.64-0.74,1.64-1.64l0,0c0-0.91-0.74-1.64-1.64-1.64h-12.11
					c-0.91,0-1.64,0.74-1.64,1.64l0,0C455.37,469.37,456.1,470.11,457.01,470.11z"/>
				<path class="st13" d="M379.66,455.5h105.46c0.41,0,0.74-0.33,0.74-0.74l0,0c0-0.41-0.33-0.74-0.74-0.74H379.66
					c-0.41,0-0.74,0.33-0.74,0.74l0,0C378.92,455.17,379.25,455.5,379.66,455.5z"/>
				<path class="st13" d="M379.66,496.33h105.46c0.41,0,0.74-0.33,0.74-0.74l0,0c0-0.41-0.33-0.74-0.74-0.74H379.66
					c-0.41,0-0.74,0.33-0.74,0.74l0,0C378.92,496,379.25,496.33,379.66,496.33z"/>
			</g>
		</g>
		<g>
			<path class="st36" d="M486.07,544.28H375.28c-3.89,0-7.52,3.15-8.1,7.05l-3.6,24.16c-0.58,3.89,2.11,7.05,6,7.05h4.51l-1.21,8.11
				c-0.16,1.05,0.86,1.73,1.87,1.24l19.13-9.35h86.48c3.89,0,7.52-3.16,8.1-7.05l3.6-24.16
				C492.65,547.44,489.96,544.28,486.07,544.28z"/>
			<path class="st6" d="M483.69,540.39H372.91c-3.89,0-7.52,3.15-8.1,7.05l-3.6,24.16c-0.58,3.89,2.11,7.05,6,7.05h4.51l-1.21,8.11
				c-0.16,1.05,0.86,1.73,1.87,1.24l19.13-9.35h86.48c3.89,0,7.52-3.15,8.1-7.05l3.6-24.16
				C490.27,543.55,487.58,540.39,483.69,540.39z"/>
			<path class="st5" d="M478.84,551.19H371.98c-1.43,0-2.42-1.16-2.21-2.6l0,0c0.21-1.43,1.55-2.6,2.98-2.6h106.86
				c1.43,0,2.42,1.16,2.21,2.6l0,0C481.61,550.03,480.27,551.19,478.84,551.19z"/>
			<path class="st5" d="M464.07,570.76h-95c-1.43,0-2.42-1.16-2.21-2.6l0,0c0.21-1.43,1.55-2.6,2.98-2.6h95
				c1.43,0,2.42,1.16,2.21,2.6l0,0C466.84,569.6,465.5,570.76,464.07,570.76z"/>
			<path class="st5" d="M411.93,560.98h-41.41c-1.43,0-2.42-1.16-2.21-2.6l0,0c0.21-1.43,1.55-2.6,2.98-2.6h41.41
				c1.43,0,2.42,1.16,2.21,2.6l0,0C414.7,559.81,413.37,560.98,411.93,560.98z"/>
			<path class="st5" d="M478.2,560.98h-58.71c-1.43,0-2.42-1.16-2.21-2.6l0,0c0.21-1.43,1.55-2.6,2.98-2.6h58.71
				c1.43,0,2.42,1.16,2.21,2.6l0,0C480.97,559.81,479.63,560.98,478.2,560.98z"/>
			<g>
				<path class="st13" d="M471.92,574.94c-0.21,0-0.4-0.08-0.53-0.24l-3.24-3.81c-0.27-0.31-0.19-0.82,0.17-1.14
					c0.36-0.31,0.87-0.31,1.14,0l2.75,3.24l7.42-6.46c0.36-0.31,0.87-0.31,1.14,0c0.27,0.31,0.19,0.82-0.17,1.14l-8.07,7.03
					C472.34,574.86,472.13,574.94,471.92,574.94z"/>
			</g>
			<g>
				<path class="st13" d="M475.56,574.94c-0.21,0-0.4-0.08-0.53-0.24l-3.24-3.81c-0.27-0.31-0.19-0.82,0.17-1.14
					c0.36-0.31,0.87-0.31,1.14,0l2.75,3.24l7.42-6.46c0.36-0.31,0.87-0.31,1.14,0c0.27,0.31,0.19,0.82-0.17,1.14l-8.07,7.03
					C475.98,574.86,475.76,574.94,475.56,574.94z"/>
			</g>
		</g>
		<g>
			
				<ellipse transform="matrix(0.7329 -0.6804 0.6804 0.7329 -317.146 404.73)" class="st33" cx="356.84" cy="606.24" rx="10.52" ry="9.06"/>
			<path class="st13" d="M363.6,610.33c-1.82,2.61-4.86,4.38-8.05,4.38s-5.7-1.77-6.74-4.38c1.15-1.61,2.76-2.9,4.58-3.64
				c-0.61-0.81-0.9-1.87-0.72-3.05c0.37-2.5,2.7-4.53,5.21-4.53c2.5,0,4.23,2.03,3.86,4.53c-0.17,1.17-0.78,2.24-1.63,3.05
				C361.7,607.43,362.93,608.72,363.6,610.33z"/>
		</g>
		<g>
			<path class="st36" d="M477.17,623.78H366.39c-3.89,0-7.46,3.15-7.96,7.05l-3.13,24.16c-0.5,3.89,2.24,7.05,6.13,7.05h4.51
				l-1.05,8.11c-0.14,1.05,0.9,1.73,1.89,1.24l18.95-9.35h86.48c3.89,0,7.46-3.16,7.96-7.05l3.13-24.16
				C483.81,626.93,481.06,623.78,477.17,623.78z"/>
			<path class="st6" d="M474.72,619.89H363.94c-3.89,0-7.46,3.15-7.96,7.05l-3.13,24.16c-0.5,3.89,2.24,7.05,6.14,7.05h4.51
				l-1.05,8.11c-0.14,1.05,0.9,1.73,1.89,1.24l18.95-9.35h86.48c3.89,0,7.46-3.16,7.96-7.05l3.13-24.16
				C481.36,623.04,478.61,619.89,474.72,619.89z"/>
			<path class="st5" d="M470.07,630.69H363.22c-1.43,0-2.45-1.16-2.26-2.6l0,0c0.19-1.43,1.5-2.6,2.93-2.6h106.86
				c1.43,0,2.45,1.16,2.26,2.6l0,0C472.82,629.53,471.51,630.69,470.07,630.69z"/>
			<path class="st5" d="M455.68,650.26h-95c-1.43,0-2.45-1.16-2.26-2.6l0,0c0.19-1.43,1.5-2.6,2.93-2.6h95
				c1.43,0,2.45,1.16,2.26,2.6l0,0C458.43,649.1,457.12,650.26,455.68,650.26z"/>
			<path class="st5" d="M403.36,640.47h-41.41c-1.43,0-2.45-1.16-2.26-2.6l0,0c0.19-1.43,1.5-2.6,2.93-2.6h41.41
				c1.43,0,2.45,1.16,2.26,2.6l0,0C406.11,639.31,404.79,640.47,403.36,640.47z"/>
			<path class="st5" d="M469.63,640.47h-58.71c-1.43,0-2.45-1.16-2.26-2.6l0,0c0.19-1.43,1.5-2.6,2.93-2.6h58.71
				c1.43,0,2.45,1.16,2.26,2.6l0,0C472.37,639.31,471.06,640.47,469.63,640.47z"/>
			<g>
				<path class="st13" d="M463.62,654.44c-0.21,0-0.4-0.08-0.54-0.24l-3.31-3.81c-0.27-0.31-0.21-0.82,0.15-1.14
					c0.36-0.31,0.87-0.31,1.14,0l2.82,3.24l7.29-6.46c0.36-0.31,0.87-0.31,1.14,0c0.27,0.31,0.21,0.82-0.15,1.14l-7.93,7.03
					C464.04,654.36,463.82,654.44,463.62,654.44z"/>
			</g>
			<g>
				<path class="st13" d="M467.26,654.44c-0.21,0-0.4-0.08-0.54-0.24l-3.31-3.81c-0.27-0.31-0.21-0.82,0.15-1.14
					c0.36-0.31,0.87-0.31,1.14,0l2.82,3.24l7.29-6.46c0.36-0.31,0.87-0.31,1.14,0c0.27,0.31,0.21,0.82-0.15,1.14l-7.93,7.03
					C467.68,654.36,467.46,654.44,467.26,654.44z"/>
			</g>
		</g>
		<g>
			
				<ellipse transform="matrix(0.7296 -0.6839 0.6839 0.7296 -374.5652 424.2007)" class="st33" cx="349.13" cy="685.75" rx="10.42" ry="9.15"/>
			<path class="st13" d="M355.98,689.83c-1.77,2.61-4.77,4.38-7.96,4.38s-5.73-1.77-6.83-4.38c1.12-1.61,2.7-2.9,4.51-3.64
				c-0.63-0.81-0.94-1.87-0.78-3.05c0.32-2.5,2.62-4.53,5.12-4.53s4.27,2.03,3.95,4.53c-0.15,1.17-0.74,2.24-1.57,3.05
				C354.03,686.93,355.29,688.21,355.98,689.83z"/>
		</g>
	</g>
	<g>
		<g>
			<g>
				<path class="st37" d="M755.54,683.27c-2.35,0.05-1.44-1.95-5.39-7.84c-5.2-7.76-9.08-7.27-11.33-14.3
					c-1.84-5.76,7.68-6.61,16.95-8.68c20.22-4.52,51.36-3.64,46.14,6.76c-4.14,8.26-18.95,23.1-19.67,24.06H755.54z"/>
				<path class="st38" d="M738.77,657.56c1.52-4.84,10.72-3.82,20.2-7.23c20.78-7.48,46.83-0.62,43.12,8.48
					c-11.22,4.82-20.15,0.8-34.05,1.22c-6.95,0.21-13.09,2.53-18.44,2.32C744.24,662.14,739.9,659.79,738.77,657.56z"/>
				<path class="st39" d="M738.77,657.56c0,0,2.69,6.65,12.62,5.43c9.92-1.23,14.82-2.82,25.35-1.71
					c10.53,1.1,15.92-0.24,15.31-4.78c-0.61-4.53-11.35-5.39-18.9-2.82"/>
			</g>
			<path class="st40" d="M767.73,773.79c-34.08,0-47.6-11.98-45.28-39.41c2.32-27.44,21.79-36.02,27.35-50.5h36.09
				c0,0,11.73,22.37,22.4,36.36C818.95,734.23,819.04,773.79,767.73,773.79z"/>
			<g>
				<g>
					<path class="st12" d="M788.18,686.95h-40.8c-0.85,0-1.54-0.69-1.54-1.54v-2.01c0-0.85,0.69-1.54,1.54-1.54h40.8
						c0.85,0,1.54,0.69,1.54,1.54v2.01C789.73,686.26,789.04,686.95,788.18,686.95z"/>
				</g>
			</g>
			<g>
				<g>
					<path class="st12" d="M783.94,681.86H752.2c-0.85,0-1.54-0.69-1.54-1.54v-2.01c0-0.85,0.69-1.54,1.54-1.54h31.74
						c0.85,0,1.54,0.69,1.54,1.54v2.01C785.48,681.17,784.79,681.86,783.94,681.86z"/>
				</g>
			</g>
			<g>
				<g>
					<path class="st12" d="M773.63,686.95c0,0,6.02,9.84,1.45,24.77c-0.43,1.4,0.53,2.84,1.98,2.98l3.37,0.33
						c1.37,0.13,2.57-0.93,2.59-2.31c0.08-5.08-0.25-16.54-4.59-23.47l-2.11-2.3L773.63,686.95L773.63,686.95z"/>
				</g>
			</g>
			<g>
				<g>
					<path class="st12" d="M780.1,686.95c0,0,8.44,3.58,13.41,18.03c0.41,1.19-0.41,2.44-1.66,2.54l-3.03,0.23
						c-1.07,0.08-2.03-0.65-2.23-1.7c-0.86-4.42-3.76-15.51-11.61-19.11h5.12V686.95z"/>
				</g>
			</g>
			<g class="st41">
				<g>
					<path class="st42" d="M775,686.95c0,0,1.76,0.63,3.43,2.3c0,0-1.86-1.04-4.06-0.82c0,0-0.5-1.2-0.78-1.48H775z"/>
				</g>
			</g>
			<g>
				<g>
					<g>
						<path class="st40" d="M789.46,683.27c-0.42-0.84-1.28-1.42-2.28-1.42h-38.79c-1,0-1.86,0.58-2.28,1.42H789.46z"/>
					</g>
				</g>
			</g>
			<g>
				<g>
					<g>
						<path class="st40" d="M785.05,677.89c-0.46-0.68-1.24-1.13-2.12-1.13H753.2c-0.88,0-1.66,0.45-2.12,1.13H785.05z"/>
					</g>
				</g>
			</g>
			<g class="st41">
				<g>
					<path class="st42" d="M775.17,686.95h4.93c0,0,1.24,0.66,2.18,1.32c0,0-3.5-0.66-4.96,0L775.17,686.95z"/>
				</g>
			</g>
			<g>
				<g class="st43">
					<path class="st44" d="M767.06,755.66c-0.94,0-1.74-0.33-2.39-0.98c-0.65-0.65-0.98-1.46-0.98-2.44v-3.61l1.46,1.32
						c-2.18-0.1-4.07-0.37-5.66-0.83c-1.59-0.46-2.89-0.91-3.9-1.37c-0.85-0.39-1.44-0.94-1.78-1.66c-0.34-0.71-0.47-1.45-0.39-2.2
						c0.08-0.75,0.35-1.43,0.81-2.05c0.45-0.62,1.05-1.03,1.78-1.24c0.73-0.21,1.59-0.11,2.56,0.32c0.65,0.36,1.64,0.72,2.95,1.1
						c1.32,0.38,2.95,0.56,4.9,0.56c1.37,0,2.45-0.13,3.24-0.39c0.8-0.26,1.37-0.61,1.71-1.05s0.51-0.92,0.51-1.44
						c0-0.49-0.12-0.9-0.37-1.24c-0.24-0.34-0.64-0.65-1.2-0.93c-0.55-0.28-1.32-0.53-2.29-0.76l-5.51-1.17
						c-3.02-0.68-5.28-1.83-6.76-3.44s-2.22-3.7-2.22-6.27c0-1.95,0.48-3.7,1.44-5.24s2.31-2.81,4.05-3.78
						c1.74-0.98,3.78-1.59,6.12-1.85l-1.46,0.83v-3.27c0-0.98,0.32-1.79,0.98-2.44c0.65-0.65,1.45-0.98,2.39-0.98
						c0.98,0,1.79,0.33,2.44,0.98c0.65,0.65,0.98,1.46,0.98,2.44v3.27l-1.46-0.93c1.24,0.03,2.57,0.24,4,0.61s2.68,0.89,3.76,1.54
						c0.75,0.39,1.28,0.93,1.59,1.61s0.42,1.37,0.34,2.07c-0.08,0.7-0.34,1.33-0.78,1.88s-1.02,0.92-1.76,1.1
						c-0.73,0.18-1.6,0.06-2.61-0.37c-0.75-0.33-1.59-0.59-2.51-0.81c-0.93-0.21-2.11-0.32-3.54-0.32c-1.72,0-3.05,0.31-3.98,0.93
						s-1.39,1.42-1.39,2.39c0,0.65,0.27,1.2,0.8,1.64s1.52,0.82,2.95,1.15l5.56,1.22c3.09,0.68,5.37,1.81,6.86,3.39
						c1.48,1.58,2.22,3.62,2.22,6.12c0,1.95-0.47,3.68-1.41,5.17c-0.94,1.5-2.25,2.72-3.93,3.66s-3.62,1.56-5.83,1.85l1.12-1.17
						v3.66c0,0.98-0.32,1.79-0.95,2.44C768.89,755.34,768.06,755.66,767.06,755.66z"/>
				</g>
				<g>
					<g>
						<path class="st42" d="M767.06,752.82c-0.94,0-1.74-0.33-2.39-0.98c-0.65-0.65-0.98-1.46-0.98-2.44v-3.61l1.46,1.32
							c-2.18-0.1-4.07-0.37-5.66-0.83c-1.59-0.46-2.89-0.91-3.9-1.37c-0.85-0.39-1.44-0.94-1.78-1.66c-0.34-0.71-0.47-1.45-0.39-2.2
							c0.08-0.75,0.35-1.43,0.81-2.05c0.45-0.62,1.05-1.03,1.78-1.24c0.73-0.21,1.59-0.11,2.56,0.32c0.65,0.36,1.64,0.72,2.95,1.1
							c1.32,0.38,2.95,0.56,4.9,0.56c1.37,0,2.45-0.13,3.24-0.39c0.8-0.26,1.37-0.61,1.71-1.05s0.51-0.92,0.51-1.44
							c0-0.49-0.12-0.9-0.37-1.24c-0.24-0.34-0.64-0.65-1.2-0.93c-0.55-0.28-1.32-0.53-2.29-0.76l-5.51-1.17
							c-3.02-0.68-5.28-1.83-6.76-3.44s-2.22-3.7-2.22-6.27c0-1.95,0.48-3.7,1.44-5.24s2.31-2.81,4.05-3.78
							c1.74-0.98,3.78-1.59,6.12-1.85l-1.46,0.83v-3.27c0-0.98,0.32-1.79,0.98-2.44c0.65-0.65,1.45-0.98,2.39-0.98
							c0.98,0,1.79,0.33,2.44,0.98c0.65,0.65,0.98,1.46,0.98,2.44v3.27l-1.46-0.93c1.24,0.03,2.57,0.24,4,0.61s2.68,0.89,3.76,1.54
							c0.75,0.39,1.28,0.93,1.59,1.61s0.42,1.37,0.34,2.07c-0.08,0.7-0.34,1.33-0.78,1.88s-1.02,0.92-1.76,1.1
							c-0.73,0.18-1.6,0.06-2.61-0.37c-0.75-0.33-1.59-0.59-2.51-0.81c-0.93-0.21-2.11-0.32-3.54-0.32c-1.72,0-3.05,0.31-3.98,0.93
							s-1.39,1.42-1.39,2.39c0,0.65,0.27,1.2,0.8,1.63s1.52,0.82,2.95,1.15l5.56,1.22c3.09,0.68,5.37,1.81,6.86,3.39
							c1.48,1.58,2.22,3.62,2.22,6.12c0,1.95-0.47,3.68-1.41,5.17c-0.94,1.5-2.25,2.72-3.93,3.66s-3.62,1.56-5.83,1.85l1.12-1.17
							v3.66c0,0.98-0.32,1.79-0.95,2.44C768.89,752.49,768.06,752.82,767.06,752.82z"/>
					</g>
				</g>
			</g>
		</g>
		<g>
			<g>
				<g>
					<g>
						<g>
							<path class="st45" d="M843.7,772.27h-48.94c-1.86,0-3.37-1.51-3.37-3.37v-4.39c0-1.86,1.51-3.37,3.37-3.37h48.94
								c1.86,0,3.37,1.51,3.37,3.37v4.39C847.07,770.76,845.56,772.27,843.7,772.27z"/>
						</g>
					</g>
					<g>
						<g>
							<path class="st46" d="M847.07,766.56v-3.22c0-1.22-0.98-2.2-2.2-2.2h-51.28c-1.21,0-2.2,0.98-2.2,2.2v3.22H847.07z"/>
						</g>
					</g>
					<g>
						<g>
							<rect x="811.55" y="761.14" class="st5" width="15.65" height="11.14"/>
						</g>
					</g>
					<g>
						<g>
							<g>
								<rect x="825.4" y="761.14" class="st40" width="1.81" height="11.14"/>
							</g>
						</g>
					</g>
					<g>
						<g>
							<g>
								<rect x="811.25" y="761.14" class="st40" width="1.81" height="11.14"/>
							</g>
						</g>
					</g>
					<g class="st41">
						<g>
							<g>
								<rect x="824.2" y="761.14" class="st40" width="1.2" height="11.14"/>
							</g>
						</g>
					</g>
					<g class="st41">
						<g>
							<g>
								<rect x="813.06" y="761.14" class="st40" width="1.2" height="11.14"/>
							</g>
						</g>
					</g>
				</g>
			</g>
			<g>
				<g>
					<g>
						<g>
							<path class="st45" d="M847.01,761.14h-48.94c-1.86,0-3.37-1.51-3.37-3.37v-4.39c0-1.86,1.51-3.37,3.37-3.37h48.94
								c1.86,0,3.37,1.51,3.37,3.37v4.39C850.38,759.63,848.87,761.14,847.01,761.14z"/>
						</g>
					</g>
					<g>
						<g>
							<path class="st46" d="M850.38,755.42v-3.22c0-1.21-0.98-2.2-2.2-2.2H796.9c-1.21,0-2.2,0.99-2.2,2.2v3.22H850.38z"/>
						</g>
					</g>
					<g>
						<g>
							<rect x="814.87" y="750" class="st5" width="15.65" height="11.14"/>
						</g>
					</g>
					<g>
						<g>
							<g>
								<rect x="828.71" y="750" class="st40" width="1.81" height="11.14"/>
							</g>
						</g>
					</g>
					<g>
						<g>
							<g>
								<rect x="814.56" y="750" class="st40" width="1.81" height="11.14"/>
							</g>
						</g>
					</g>
					<g class="st41">
						<g>
							<g>
								<rect x="827.51" y="750" class="st40" width="1.2" height="11.14"/>
							</g>
						</g>
					</g>
					<g class="st41">
						<g>
							<g>
								<rect x="816.37" y="750" class="st40" width="1.2" height="11.14"/>
							</g>
						</g>
					</g>
				</g>
			</g>
			<g>
				<g>
					<g>
						<g>
							<path class="st45" d="M839.49,750h-48.94c-1.86,0-3.37-1.51-3.37-3.37v-4.39c0-1.86,1.51-3.37,3.37-3.37h48.94
								c1.86,0,3.37,1.51,3.37,3.37v4.39C842.86,748.49,841.35,750,839.49,750z"/>
						</g>
					</g>
					<g>
						<g>
							<path class="st46" d="M842.86,744.28v-3.22c0-1.21-0.99-2.2-2.2-2.2h-51.28c-1.21,0-2.2,0.98-2.2,2.2v3.22H842.86z"/>
						</g>
					</g>
					<g>
						<g>
							<rect x="807.34" y="738.86" class="st5" width="15.65" height="11.14"/>
						</g>
					</g>
					<g>
						<g>
							<g>
								<rect x="821.19" y="738.86" class="st40" width="1.81" height="11.14"/>
							</g>
						</g>
					</g>
					<g>
						<g>
							<g>
								<rect x="807.04" y="738.86" class="st40" width="1.81" height="11.14"/>
							</g>
						</g>
					</g>
					<g class="st41">
						<g>
							<g>
								<rect x="819.98" y="738.86" class="st40" width="1.2" height="11.14"/>
							</g>
						</g>
					</g>
					<g class="st41">
						<g>
							<g>
								<rect x="808.85" y="738.86" class="st40" width="1.2" height="11.14"/>
							</g>
						</g>
					</g>
				</g>
			</g>
			<g>
				<g>
					<g>
						<g>
							<path class="st45" d="M849.12,738.86h-48.94c-1.86,0-3.37-1.51-3.37-3.37v-4.39c0-1.86,1.51-3.37,3.37-3.37h48.94
								c1.86,0,3.37,1.51,3.37,3.37v4.39C852.49,737.35,850.98,738.86,849.12,738.86z"/>
						</g>
					</g>
					<g>
						<g>
							<path class="st46" d="M852.49,733.15v-3.22c0-1.21-0.98-2.2-2.2-2.2h-51.28c-1.21,0-2.2,0.98-2.2,2.2v3.22H852.49z"/>
						</g>
					</g>
					<g>
						<g>
							<rect x="816.97" y="727.73" class="st5" width="15.65" height="11.14"/>
						</g>
					</g>
					<g>
						<g>
							<g>
								<rect x="830.82" y="727.73" class="st40" width="1.81" height="11.14"/>
							</g>
						</g>
					</g>
					<g>
						<g>
							<g>
								<rect x="816.67" y="727.73" class="st40" width="1.81" height="11.14"/>
							</g>
						</g>
					</g>
					<g class="st41">
						<g>
							<g>
								<rect x="829.61" y="727.73" class="st40" width="1.2" height="11.14"/>
							</g>
						</g>
					</g>
					<g class="st41">
						<g>
							<g>
								<rect x="818.48" y="727.73" class="st40" width="1.2" height="11.14"/>
							</g>
						</g>
					</g>
				</g>
			</g>
		</g>
		<g>
			<g>
				<g>
					<g>
						<circle class="st47" cx="790.03" cy="770.33" r="15.28"/>
					</g>
				</g>
				<g>
					<g>
						<circle class="st48" cx="790.03" cy="770.33" r="13.28"/>
					</g>
				</g>
				<g>
					<g class="st43">
						<path class="st44" d="M789.78,777.98c-0.31,0-0.57-0.11-0.79-0.32c-0.21-0.21-0.32-0.48-0.32-0.8v-1.19l0.48,0.43
							c-0.72-0.03-1.34-0.12-1.87-0.27c-0.53-0.15-0.95-0.3-1.29-0.45c-0.28-0.13-0.47-0.31-0.59-0.55
							c-0.11-0.24-0.16-0.48-0.13-0.72c0.03-0.25,0.12-0.47,0.27-0.68s0.35-0.34,0.59-0.41c0.24-0.07,0.52-0.03,0.84,0.1
							c0.22,0.12,0.54,0.24,0.97,0.36s0.97,0.19,1.62,0.19c0.45,0,0.81-0.04,1.07-0.13s0.45-0.2,0.56-0.35
							c0.11-0.14,0.17-0.3,0.17-0.47c0-0.16-0.04-0.3-0.12-0.41s-0.21-0.21-0.39-0.31c-0.18-0.09-0.43-0.17-0.76-0.25l-1.82-0.39
							c-1-0.23-1.74-0.6-2.23-1.13s-0.73-1.22-0.73-2.07c0-0.64,0.16-1.22,0.47-1.73c0.32-0.51,0.76-0.93,1.33-1.25
							s1.25-0.53,2.02-0.61l-0.48,0.27v-1.08c0-0.32,0.11-0.59,0.32-0.8c0.21-0.22,0.48-0.32,0.79-0.32c0.32,0,0.59,0.11,0.8,0.32
							c0.22,0.21,0.32,0.48,0.32,0.8v1.08l-0.48-0.3c0.41,0.01,0.85,0.08,1.32,0.2c0.47,0.12,0.89,0.29,1.24,0.51
							c0.25,0.13,0.42,0.31,0.52,0.53c0.1,0.23,0.14,0.45,0.11,0.68s-0.11,0.44-0.26,0.62s-0.34,0.3-0.58,0.36s-0.53,0.02-0.86-0.12
							c-0.25-0.11-0.52-0.2-0.83-0.27s-0.7-0.1-1.17-0.1c-0.57,0-1,0.1-1.31,0.31s-0.46,0.47-0.46,0.79c0,0.22,0.09,0.39,0.27,0.54
							c0.18,0.14,0.5,0.27,0.97,0.38l1.83,0.4c1.02,0.23,1.77,0.6,2.26,1.12s0.73,1.19,0.73,2.02c0,0.64-0.16,1.21-0.47,1.71
							c-0.31,0.49-0.74,0.9-1.3,1.21c-0.55,0.31-1.19,0.52-1.92,0.61l0.37-0.39v1.21c0,0.32-0.1,0.59-0.31,0.8
							C790.38,777.87,790.11,777.98,789.78,777.98z"/>
					</g>
					<g>
						<g>
							<path class="st42" d="M789.78,777.04c-0.31,0-0.57-0.11-0.79-0.32c-0.21-0.21-0.32-0.48-0.32-0.8v-1.19l0.48,0.43
								c-0.72-0.03-1.34-0.12-1.87-0.27c-0.53-0.15-0.95-0.3-1.29-0.45c-0.28-0.13-0.47-0.31-0.59-0.55
								c-0.11-0.24-0.16-0.48-0.13-0.72c0.03-0.25,0.12-0.47,0.27-0.68s0.35-0.34,0.59-0.41c0.24-0.07,0.52-0.03,0.84,0.1
								c0.22,0.12,0.54,0.24,0.97,0.36s0.97,0.19,1.62,0.19c0.45,0,0.81-0.04,1.07-0.13s0.45-0.2,0.56-0.35
								c0.11-0.14,0.17-0.3,0.17-0.47c0-0.16-0.04-0.3-0.12-0.41s-0.21-0.21-0.39-0.31c-0.18-0.09-0.43-0.17-0.76-0.25l-1.82-0.39
								c-1-0.23-1.74-0.6-2.23-1.13s-0.73-1.22-0.73-2.07c0-0.64,0.16-1.22,0.47-1.73c0.32-0.51,0.76-0.93,1.33-1.25
								s1.25-0.53,2.02-0.61l-0.48,0.27v-1.08c0-0.32,0.11-0.59,0.32-0.8c0.21-0.22,0.48-0.32,0.79-0.32c0.32,0,0.59,0.11,0.8,0.32
								c0.22,0.21,0.32,0.48,0.32,0.8v1.08l-0.48-0.3c0.41,0.01,0.85,0.08,1.32,0.2c0.47,0.12,0.89,0.29,1.24,0.51
								c0.25,0.13,0.42,0.31,0.52,0.53c0.1,0.23,0.14,0.45,0.11,0.68s-0.11,0.44-0.26,0.62s-0.34,0.3-0.58,0.36
								s-0.53,0.02-0.86-0.12c-0.25-0.11-0.52-0.2-0.83-0.27s-0.7-0.1-1.17-0.1c-0.57,0-1,0.1-1.31,0.31s-0.46,0.47-0.46,0.79
								c0,0.22,0.09,0.39,0.27,0.54c0.18,0.14,0.5,0.27,0.97,0.38l1.83,0.4c1.02,0.23,1.77,0.6,2.26,1.12s0.73,1.19,0.73,2.02
								c0,0.64-0.16,1.21-0.47,1.71c-0.31,0.49-0.74,0.9-1.3,1.21c-0.55,0.31-1.19,0.52-1.92,0.61l0.37-0.39v1.21
								c0,0.32-0.1,0.59-0.31,0.8C790.38,776.93,790.11,777.04,789.78,777.04z"/>
						</g>
					</g>
				</g>
			</g>
			<g>
				<g>
					<g>
						<path class="st5" d="M800.67,752.4c-0.4,1.63-1.49,4.57-4.39,6.9c-0.15,0.12-0.14,0.36,0.04,0.45
							c0.96,0.49,3.44,2.09,4.35,5.86c0.07,0.27,0.44,0.29,0.52,0.02c0.48-1.6,1.67-4.48,4.36-6.58c0.15-0.12,0.14-0.34-0.02-0.44
							c-0.87-0.56-3.21-2.37-4.33-6.23C801.12,752.12,800.74,752.13,800.67,752.4z"/>
					</g>
				</g>
				<g>
					<g>
						<g>
							<path class="st49" d="M797.84,759.35c-0.05,0-0.1-0.02-0.13-0.07c-0.05-0.07-0.03-0.16,0.04-0.21
								c0.36-0.24,0.71-0.55,1.03-0.91c0.06-0.06,0.15-0.07,0.21-0.01c0.06,0.05,0.07,0.15,0.01,0.21c-0.34,0.38-0.7,0.71-1.09,0.96
								C797.89,759.34,797.86,759.35,797.84,759.35z"/>
						</g>
					</g>
					<g>
						<g>
							<path class="st49" d="M799.66,757.36c-0.03,0-0.05-0.01-0.08-0.02c-0.07-0.04-0.09-0.14-0.05-0.21
								c0.87-1.43,1.21-2.92,1.21-2.94c0.02-0.08,0.1-0.13,0.18-0.11s0.13,0.1,0.11,0.18c-0.01,0.06-0.35,1.56-1.25,3.03
								C799.76,757.33,799.71,757.36,799.66,757.36z"/>
						</g>
					</g>
				</g>
			</g>
		</g>
	</g>
	<g>
		<g>
			<g>
				<g>
					<ellipse class="st47" cx="296.86" cy="488.54" rx="15.28" ry="15.28"/>
				</g>
			</g>
			<g>
				<g>
					<g>
						<ellipse class="st40" cx="296.83" cy="488.58" rx="13.28" ry="13.28"/>
					</g>
				</g>
			</g>
			<g>
				<g class="st43">
					<path class="st44" d="M296.95,497.41c-0.33,0-0.61-0.11-0.85-0.34c-0.23-0.23-0.34-0.52-0.34-0.86v-1.28l0.52,0.47
						c-0.77-0.04-1.44-0.13-2-0.29s-1.02-0.32-1.38-0.48c-0.3-0.14-0.51-0.33-0.63-0.59c-0.12-0.25-0.17-0.51-0.14-0.78
						c0.03-0.26,0.12-0.5,0.28-0.72s0.37-0.37,0.63-0.44s0.56-0.04,0.91,0.11c0.23,0.13,0.58,0.25,1.04,0.39
						c0.46,0.13,1.04,0.2,1.73,0.2c0.48,0,0.86-0.05,1.15-0.14c0.28-0.09,0.48-0.22,0.6-0.37c0.12-0.16,0.18-0.32,0.18-0.51
						c0-0.17-0.04-0.32-0.13-0.44s-0.23-0.23-0.42-0.33c-0.2-0.1-0.46-0.19-0.81-0.27l-1.95-0.41c-1.07-0.24-1.87-0.65-2.39-1.22
						c-0.52-0.57-0.78-1.31-0.78-2.22c0-0.69,0.17-1.31,0.51-1.85c0.34-0.55,0.82-0.99,1.43-1.34c0.61-0.34,1.34-0.56,2.16-0.66
						l-0.52,0.29v-1.16c0-0.34,0.11-0.63,0.34-0.86c0.23-0.23,0.51-0.35,0.85-0.35c0.35,0,0.63,0.12,0.86,0.35
						c0.23,0.23,0.35,0.52,0.35,0.86v1.16l-0.52-0.33c0.44,0.01,0.91,0.08,1.41,0.22c0.51,0.13,0.95,0.31,1.33,0.54
						c0.27,0.14,0.45,0.33,0.56,0.57c0.11,0.24,0.15,0.49,0.12,0.73c-0.03,0.25-0.12,0.47-0.28,0.66c-0.16,0.2-0.36,0.33-0.62,0.39
						c-0.26,0.06-0.57,0.02-0.92-0.13c-0.26-0.12-0.56-0.21-0.89-0.29c-0.33-0.07-0.74-0.11-1.25-0.11c-0.61,0-1.08,0.11-1.41,0.33
						c-0.33,0.22-0.49,0.5-0.49,0.85c0,0.23,0.09,0.42,0.28,0.58c0.19,0.16,0.54,0.29,1.04,0.4l1.96,0.43
						c1.09,0.24,1.9,0.64,2.42,1.2c0.52,0.56,0.78,1.28,0.78,2.16c0,0.69-0.17,1.3-0.5,1.83s-0.8,0.96-1.39,1.29
						c-0.59,0.33-1.28,0.55-2.06,0.65l0.4-0.41v1.29c0,0.35-0.11,0.63-0.34,0.86C297.6,497.29,297.31,497.41,296.95,497.41z"/>
				</g>
				<g>
					<g>
						<path class="st47" d="M296.95,496.4c-0.33,0-0.61-0.11-0.85-0.34c-0.23-0.23-0.34-0.52-0.34-0.86v-1.28l0.52,0.47
							c-0.77-0.04-1.44-0.13-2-0.29s-1.02-0.32-1.38-0.48c-0.3-0.14-0.51-0.33-0.63-0.59c-0.12-0.25-0.17-0.51-0.14-0.78
							c0.03-0.26,0.12-0.5,0.28-0.72s0.37-0.37,0.63-0.44s0.56-0.04,0.91,0.11c0.23,0.13,0.58,0.25,1.04,0.39
							c0.46,0.13,1.04,0.2,1.73,0.2c0.48,0,0.86-0.05,1.15-0.14c0.28-0.09,0.48-0.22,0.6-0.37c0.12-0.16,0.18-0.32,0.18-0.51
							c0-0.17-0.04-0.32-0.13-0.44s-0.23-0.23-0.42-0.33c-0.2-0.1-0.46-0.19-0.81-0.27l-1.95-0.41c-1.07-0.24-1.87-0.65-2.39-1.22
							c-0.52-0.57-0.78-1.31-0.78-2.22c0-0.69,0.17-1.31,0.51-1.85c0.34-0.55,0.82-0.99,1.43-1.34c0.61-0.34,1.34-0.56,2.16-0.66
							l-0.52,0.29v-1.16c0-0.34,0.11-0.63,0.34-0.86c0.23-0.23,0.51-0.35,0.85-0.35c0.35,0,0.63,0.12,0.86,0.35
							c0.23,0.23,0.35,0.52,0.35,0.86v1.16l-0.52-0.33c0.44,0.01,0.91,0.08,1.41,0.22c0.51,0.13,0.95,0.31,1.33,0.54
							c0.27,0.14,0.45,0.33,0.56,0.57c0.11,0.24,0.15,0.49,0.12,0.73c-0.03,0.25-0.12,0.47-0.28,0.66c-0.16,0.2-0.36,0.33-0.62,0.39
							c-0.26,0.06-0.57,0.02-0.92-0.13c-0.26-0.12-0.56-0.21-0.89-0.29c-0.33-0.07-0.74-0.11-1.25-0.11c-0.61,0-1.08,0.11-1.41,0.33
							c-0.33,0.22-0.49,0.5-0.49,0.85c0,0.23,0.09,0.42,0.28,0.58c0.19,0.16,0.54,0.29,1.04,0.4l1.96,0.43
							c1.09,0.24,1.9,0.64,2.42,1.2c0.52,0.56,0.78,1.28,0.78,2.16c0,0.69-0.17,1.3-0.5,1.83s-0.8,0.96-1.39,1.29
							c-0.59,0.33-1.28,0.55-2.06,0.65l0.4-0.41v1.29c0,0.35-0.11,0.63-0.34,0.86C297.6,496.29,297.31,496.4,296.95,496.4z"/>
					</g>
				</g>
			</g>
		</g>
		<g>
			<g>
				<g>
					
						<ellipse transform="matrix(0.8953 -0.4455 0.4455 0.8953 -123.714 344.8529)" class="st47" cx="671.71" cy="435.59" rx="15.28" ry="15.28"/>
				</g>
			</g>
			<g>
				<g>
					<g>
						
							<ellipse transform="matrix(0.6172 -0.7868 0.7868 0.6172 -85.5815 695.2349)" class="st40" cx="671.71" cy="435.57" rx="13.28" ry="13.28"/>
					</g>
				</g>
			</g>
			<g>
				<g class="st43">
					<path class="st44" d="M671.8,444.39c-0.33,0-0.62-0.11-0.85-0.34s-0.35-0.52-0.35-0.86v-1.28l0.52,0.47
						c-0.77-0.03-1.44-0.13-2-0.29s-1.02-0.32-1.38-0.48c-0.3-0.14-0.51-0.33-0.63-0.59c-0.12-0.25-0.17-0.51-0.14-0.78
						c0.03-0.26,0.12-0.51,0.28-0.72c0.16-0.22,0.37-0.37,0.63-0.44s0.56-0.04,0.91,0.11c0.23,0.13,0.58,0.26,1.04,0.39
						c0.47,0.13,1.04,0.2,1.73,0.2c0.48,0,0.87-0.05,1.15-0.14c0.28-0.09,0.48-0.22,0.6-0.37c0.12-0.16,0.18-0.32,0.18-0.51
						c0-0.17-0.04-0.32-0.13-0.44s-0.23-0.23-0.42-0.33c-0.2-0.1-0.47-0.19-0.81-0.27l-1.95-0.41c-1.07-0.24-1.87-0.65-2.39-1.22
						s-0.78-1.31-0.78-2.22c0-0.69,0.17-1.31,0.51-1.85c0.34-0.55,0.82-0.99,1.43-1.34s1.34-0.56,2.16-0.66l-0.52,0.29v-1.16
						c0-0.35,0.11-0.63,0.35-0.86c0.23-0.23,0.51-0.35,0.85-0.35c0.35,0,0.63,0.11,0.86,0.35c0.23,0.23,0.35,0.52,0.35,0.86v1.16
						l-0.52-0.33c0.44,0.01,0.91,0.08,1.41,0.22c0.51,0.13,0.95,0.31,1.33,0.54c0.26,0.14,0.45,0.33,0.56,0.57
						c0.11,0.24,0.15,0.49,0.12,0.73c-0.03,0.25-0.12,0.47-0.28,0.66c-0.16,0.2-0.36,0.33-0.62,0.39c-0.26,0.06-0.57,0.02-0.92-0.13
						c-0.26-0.11-0.56-0.21-0.89-0.28c-0.33-0.08-0.74-0.11-1.25-0.11c-0.61,0-1.08,0.11-1.4,0.33c-0.33,0.22-0.49,0.5-0.49,0.85
						c0,0.23,0.09,0.42,0.28,0.58c0.19,0.15,0.54,0.29,1.04,0.4l1.97,0.43c1.09,0.24,1.9,0.64,2.42,1.2
						c0.52,0.56,0.78,1.28,0.78,2.16c0,0.69-0.17,1.3-0.5,1.83s-0.8,0.96-1.39,1.29c-0.59,0.33-1.28,0.55-2.06,0.66l0.4-0.41v1.29
						c0,0.34-0.11,0.63-0.34,0.86C672.45,444.27,672.16,444.39,671.8,444.39z"/>
				</g>
				<g>
					<g>
						<path class="st47" d="M671.8,443.38c-0.33,0-0.62-0.11-0.85-0.34s-0.35-0.52-0.35-0.86v-1.28l0.52,0.47
							c-0.77-0.03-1.44-0.13-2-0.29s-1.02-0.32-1.38-0.48c-0.3-0.14-0.51-0.33-0.63-0.59c-0.12-0.25-0.17-0.51-0.14-0.78
							c0.03-0.26,0.12-0.51,0.28-0.72c0.16-0.22,0.37-0.37,0.63-0.44s0.56-0.04,0.91,0.11c0.23,0.13,0.58,0.26,1.04,0.39
							c0.47,0.13,1.04,0.2,1.73,0.2c0.48,0,0.87-0.05,1.15-0.14c0.28-0.09,0.48-0.22,0.6-0.37c0.12-0.16,0.18-0.32,0.18-0.51
							c0-0.17-0.04-0.32-0.13-0.44s-0.23-0.23-0.42-0.33c-0.2-0.1-0.47-0.19-0.81-0.27l-1.95-0.41c-1.07-0.24-1.87-0.65-2.39-1.22
							s-0.78-1.31-0.78-2.22c0-0.69,0.17-1.31,0.51-1.85c0.34-0.55,0.82-0.99,1.43-1.34s1.34-0.56,2.16-0.66l-0.52,0.29v-1.16
							c0-0.35,0.11-0.63,0.35-0.86c0.23-0.23,0.51-0.35,0.85-0.35c0.35,0,0.63,0.11,0.86,0.35c0.23,0.23,0.35,0.52,0.35,0.86v1.16
							l-0.52-0.33c0.44,0.01,0.91,0.08,1.41,0.22c0.51,0.13,0.95,0.31,1.33,0.54c0.26,0.14,0.45,0.33,0.56,0.57
							c0.11,0.24,0.15,0.49,0.12,0.73c-0.03,0.25-0.12,0.47-0.28,0.66c-0.16,0.2-0.36,0.33-0.62,0.39
							c-0.26,0.06-0.57,0.02-0.92-0.13c-0.26-0.11-0.56-0.21-0.89-0.28c-0.33-0.08-0.74-0.11-1.25-0.11c-0.61,0-1.08,0.11-1.4,0.33
							c-0.33,0.22-0.49,0.5-0.49,0.85c0,0.23,0.09,0.42,0.28,0.58c0.19,0.15,0.54,0.29,1.04,0.4l1.97,0.43
							c1.09,0.24,1.9,0.64,2.42,1.2c0.52,0.56,0.78,1.28,0.78,2.16c0,0.69-0.17,1.3-0.5,1.83s-0.8,0.96-1.39,1.29
							c-0.59,0.33-1.28,0.55-2.06,0.66l0.4-0.41v1.29c0,0.34-0.11,0.63-0.34,0.86C672.45,443.27,672.16,443.38,671.8,443.38z"/>
					</g>
				</g>
			</g>
		</g>
		<g>
			<g>
				<g>
					<circle class="st47" cx="111.69" cy="286.44" r="15.28"/>
				</g>
			</g>
			<g>
				<g>
					<g>
						<ellipse class="st40" cx="111.69" cy="286.44" rx="13.28" ry="13.28"/>
					</g>
				</g>
			</g>
			<g>
				<g class="st43">
					<path class="st44" d="M111.79,295.28c-0.33,0-0.61-0.11-0.84-0.34c-0.23-0.23-0.34-0.52-0.34-0.86v-1.28l0.52,0.47
						c-0.77-0.03-1.44-0.13-2-0.29s-1.02-0.32-1.38-0.48c-0.3-0.14-0.51-0.33-0.63-0.59c-0.12-0.25-0.17-0.51-0.14-0.78
						c0.03-0.26,0.12-0.51,0.28-0.72c0.16-0.22,0.37-0.37,0.63-0.44c0.26-0.07,0.56-0.04,0.9,0.11c0.23,0.13,0.58,0.26,1.04,0.39
						s1.04,0.2,1.73,0.2c0.48,0,0.86-0.05,1.15-0.14c0.28-0.09,0.48-0.22,0.6-0.37c0.12-0.15,0.18-0.32,0.18-0.51
						c0-0.17-0.04-0.32-0.13-0.44s-0.23-0.23-0.42-0.33c-0.2-0.1-0.47-0.19-0.81-0.27l-1.95-0.41c-1.07-0.24-1.87-0.65-2.39-1.22
						s-0.78-1.31-0.78-2.22c0-0.69,0.17-1.31,0.51-1.85c0.34-0.55,0.82-0.99,1.43-1.34c0.62-0.34,1.34-0.56,2.16-0.66l-0.52,0.29
						v-1.16c0-0.34,0.11-0.63,0.34-0.86c0.23-0.23,0.51-0.35,0.84-0.35c0.35,0,0.63,0.12,0.86,0.35s0.35,0.52,0.35,0.86v1.16
						l-0.52-0.33c0.44,0.01,0.91,0.08,1.41,0.22c0.51,0.13,0.95,0.31,1.33,0.54c0.26,0.14,0.45,0.33,0.56,0.57
						c0.11,0.24,0.15,0.49,0.12,0.73c-0.03,0.25-0.12,0.47-0.28,0.66c-0.16,0.2-0.36,0.33-0.62,0.39c-0.26,0.06-0.57,0.02-0.92-0.13
						c-0.26-0.11-0.56-0.21-0.89-0.28c-0.33-0.08-0.74-0.11-1.25-0.11c-0.61,0-1.08,0.11-1.41,0.33s-0.49,0.5-0.49,0.85
						c0,0.23,0.09,0.42,0.28,0.58c0.19,0.15,0.54,0.29,1.04,0.4l1.97,0.43c1.09,0.24,1.9,0.64,2.42,1.2s0.78,1.28,0.78,2.16
						c0,0.69-0.17,1.3-0.5,1.83s-0.8,0.96-1.39,1.29c-0.59,0.33-1.28,0.55-2.06,0.66l0.4-0.41v1.29c0,0.34-0.11,0.63-0.34,0.86
						C112.44,295.17,112.15,295.28,111.79,295.28z"/>
				</g>
				<g>
					<g>
						<path class="st47" d="M111.79,294.28c-0.33,0-0.61-0.11-0.84-0.34c-0.23-0.23-0.34-0.52-0.34-0.86v-1.28l0.52,0.47
							c-0.77-0.03-1.44-0.13-2-0.29s-1.02-0.32-1.38-0.48c-0.3-0.14-0.51-0.33-0.63-0.59c-0.12-0.25-0.17-0.51-0.14-0.78
							c0.03-0.26,0.12-0.51,0.28-0.72c0.16-0.22,0.37-0.37,0.63-0.44c0.26-0.07,0.56-0.04,0.9,0.11c0.23,0.13,0.58,0.26,1.04,0.39
							s1.04,0.2,1.73,0.2c0.48,0,0.86-0.05,1.15-0.14c0.28-0.09,0.48-0.22,0.6-0.37c0.12-0.15,0.18-0.32,0.18-0.51
							c0-0.17-0.04-0.32-0.13-0.44s-0.23-0.23-0.42-0.33c-0.2-0.1-0.47-0.19-0.81-0.27l-1.95-0.41c-1.07-0.24-1.87-0.65-2.39-1.22
							s-0.78-1.31-0.78-2.22c0-0.69,0.17-1.31,0.51-1.85c0.34-0.55,0.82-0.99,1.43-1.34c0.62-0.34,1.34-0.56,2.16-0.66l-0.52,0.29
							v-1.16c0-0.34,0.11-0.63,0.34-0.86c0.23-0.23,0.51-0.35,0.84-0.35c0.35,0,0.63,0.12,0.86,0.35s0.35,0.52,0.35,0.86v1.16
							l-0.52-0.33c0.44,0.01,0.91,0.08,1.41,0.22c0.51,0.13,0.95,0.31,1.33,0.54c0.26,0.14,0.45,0.33,0.56,0.57
							c0.11,0.24,0.15,0.49,0.12,0.73c-0.03,0.25-0.12,0.47-0.28,0.66c-0.16,0.2-0.36,0.33-0.62,0.39
							c-0.26,0.06-0.57,0.02-0.92-0.13c-0.26-0.11-0.56-0.21-0.89-0.28c-0.33-0.08-0.74-0.11-1.25-0.11c-0.61,0-1.08,0.11-1.41,0.33
							s-0.49,0.5-0.49,0.85c0,0.23,0.09,0.42,0.28,0.58c0.19,0.15,0.54,0.29,1.04,0.4l1.97,0.43c1.09,0.24,1.9,0.64,2.42,1.2
							s0.78,1.28,0.78,2.16c0,0.69-0.17,1.3-0.5,1.83s-0.8,0.96-1.39,1.29c-0.59,0.33-1.28,0.55-2.06,0.66l0.4-0.41v1.29
							c0,0.34-0.11,0.63-0.34,0.86C112.44,294.16,112.15,294.28,111.79,294.28z"/>
					</g>
				</g>
			</g>
		</g>
	</g>
</g>
<g id="Layer_3">
</g>
</svg>
