<?xml version="1.0" encoding="utf-8"?>
<!-- Generator: Adobe Illustrator 24.0.2, SVG Export Plug-In . SVG Version: 6.00 Build 0)  -->
<svg version="1.1" id="Layer_1" xmlns="http://www.w3.org/2000/svg" xmlns:xlink="http://www.w3.org/1999/xlink" x="0px" y="0px"
	 viewBox="0 0 200 200" style="enable-background:new 0 0 200 200;" xml:space="preserve">
<style type="text/css">
	.st0{fill:#009934;}
</style>
<path class="st0" d="M184.65,0H15.35C6.87,0,0,6.87,0,15.35v169.3C0,193.13,6.87,200,15.35,200h169.3c8.48,0,15.35-6.87,15.35-15.35
	V15.35C200,6.87,193.13,0,184.65,0z M196,184.65c0,6.26-5.09,11.35-11.35,11.35H15.35C9.09,196,4,190.91,4,184.65V15.35
	C4,9.09,9.09,4,15.35,4h169.3C190.91,4,196,9.09,196,15.35V184.65z"/>
<path class="st0" d="M88.55,172c-0.07,0-0.13-0.01-0.19-0.04c-3.92-1.52-5.68-4.51-5.37-9.14c0.07-1.07,0.05-2.18,0.04-3.25
	c-0.01-0.89-0.03-1.82,0.01-2.73c0.02-0.62-0.12-0.81-0.77-1.01c-3.19-0.95-6.29-2.24-9.22-3.83c-0.27-0.14-0.47-0.22-0.62-0.22
	c-0.12,0-0.31,0.04-0.63,0.39c-1.76,1.85-3.57,3.63-5.33,5.35c-1.66,1.62-3.53,2.48-5.4,2.48c-1.89,0-3.77-0.87-5.44-2.52
	c-4.34-4.3-8.75-8.72-13.12-13.12c-3.35-3.38-3.36-7.43-0.03-10.83c1.63-1.67,3.48-3.56,5.35-5.33c0.47-0.44,0.5-0.65,0.17-1.25
	c-1.59-2.93-2.88-6.03-3.83-9.22c-0.2-0.66-0.4-0.78-0.9-0.78c-0.53,0.02-0.96,0.02-1.4,0.02c-0.48,0-0.96-0.01-1.44-0.01
	c-0.47-0.01-0.95-0.01-1.42-0.01c-0.61,0-1.21,0.01-1.82,0.05c-0.34,0.02-0.67,0.03-1,0.03c-4.07,0-6.73-1.77-8.14-5.41
	c-0.02-0.06-0.04-0.13-0.04-0.19V88.55c0-0.07,0.01-0.13,0.04-0.19c1.41-3.64,4.08-5.41,8.14-5.41c0.33,0,0.66,0.01,1,0.03
	c0.61,0.04,1.21,0.05,1.82,0.05c0.47,0,0.95-0.01,1.42-0.01c0.48-0.01,0.96-0.01,1.44-0.01c0.43,0,0.86,0.01,1.29,0.02
	c0.01,0,0.01,0,0.02,0c0.59,0,0.79-0.12,0.99-0.78c0.97-3.25,2.28-6.39,3.89-9.34c0.27-0.49,0.24-0.65-0.15-1.03
	c-1.75-1.68-3.44-3.38-5.44-5.43c-3.33-3.4-3.32-7.45,0.04-10.83c4.34-4.38,8.76-8.79,13.12-13.12c1.67-1.65,3.54-2.52,5.42-2.52
	c1.9,0,3.81,0.89,5.52,2.58l0.27,0.26c1.67,1.65,3.4,3.36,5.06,5.08c0.27,0.29,0.42,0.32,0.52,0.32c0.12,0,0.29-0.06,0.51-0.18
	c2.97-1.62,6.12-2.93,9.34-3.89c0.66-0.2,0.8-0.38,0.78-1.01c-0.04-0.91-0.02-1.84-0.01-2.73c0.02-1.07,0.03-2.18-0.04-3.25
	c-0.31-4.63,1.45-7.62,5.37-9.14c0.06-0.02,0.13-0.04,0.19-0.04h7.26c0.13,0,0.26,0.05,0.36,0.14c0.58,0.51,1.94,1.72,1.23,3.49
	c-0.6,1.51-1.94,1.7-3.03,1.7l-0.27,0c-0.46-0.01-0.93-0.02-1.39-0.02c-0.51,0-1.8,0.01-1.8,0.01c-1.92,0.02-2.49,0.58-2.51,2.51
	c-0.02,1.49-0.01,2.98-0.01,4.47c0,1.02,0,2.04,0,3.06c-0.01,3.26-1.14,4.82-4.15,5.77c-3,0.94-6.04,2.2-9.04,3.75
	c-1.19,0.61-2.16,0.9-3.07,0.9c-1.33,0-2.55-0.62-3.95-2.01l-2.03-2.02c-1.13-1.13-2.27-2.26-3.41-3.38
	c-0.67-0.66-1.21-0.97-1.69-0.97c-0.47,0-0.98,0.29-1.62,0.93c-4.39,4.36-8.76,8.74-13.12,13.12c-1.24,1.24-1.23,2.02,0.05,3.31
	c0.9,0.91,1.8,1.81,2.7,2.71c0.98,0.97,1.95,1.94,2.92,2.92c2.04,2.07,2.35,4.04,1.04,6.57c-1.58,3.07-2.91,6.28-3.97,9.55
	c-0.88,2.72-2.44,3.84-5.4,3.87c-1.24,0.01-2.48,0.01-3.71,0.01c-1.37,0-2.73,0-4.1,0.02c-1.95,0.02-2.52,0.58-2.52,2.49
	c-0.01,6.09-0.01,12.19,0,18.28c0,1.83,0.59,2.42,2.42,2.45c1.23,0.02,2.46,0.02,3.69,0.02h1.18c1.03,0,2.05,0,3.08,0.01
	c2.93,0.03,4.49,1.16,5.37,3.91c1.02,3.18,2.36,6.4,3.97,9.55c1.29,2.52,0.96,4.48-1.09,6.56c-0.91,0.93-1.84,1.85-2.76,2.77
	c-0.96,0.95-1.91,1.9-2.86,2.86c-1.25,1.27-1.25,2.05,0.01,3.31c4.36,4.38,8.74,8.76,13.12,13.12c0.61,0.61,1.12,0.89,1.59,0.89
	c0.48,0,0.99-0.29,1.62-0.9c0.97-0.95,1.94-1.92,2.91-2.88c0.94-0.94,1.88-1.88,2.84-2.82c1.25-1.22,2.44-1.79,3.74-1.79
	c0.84,0,1.73,0.24,2.7,0.74c3.12,1.6,6.38,2.96,9.68,4.03c2.66,0.86,3.8,2.44,3.84,5.27c0.02,1.42,0.01,2.84,0.01,4.26
	c0,1.18-0.01,2.37,0,3.55c0.02,2.04,0.56,2.6,2.55,2.61c4.3,0.01,8.61,0.01,12.91,0.01l5.22,0c1.99,0,2.54-0.56,2.55-2.6
	c0.01-1.19,0.01-2.38,0-3.57c0-1.41-0.01-2.83,0.01-4.24c0.03-2.88,1.13-4.41,3.81-5.28c3.33-1.08,6.59-2.44,9.68-4.03
	c0.98-0.5,1.87-0.75,2.72-0.75c1.31,0,2.49,0.57,3.73,1.78c1.05,1.03,2.1,2.08,3.14,3.13c0.83,0.83,1.66,1.67,2.49,2.49
	c0.7,0.69,1.25,1.01,1.74,1.01c0.48,0,1.01-0.31,1.67-0.97c4.35-4.33,8.69-8.67,13.02-13.02c1.31-1.32,1.31-2.08-0.01-3.41
	c-0.92-0.93-1.85-1.86-2.78-2.79c-0.92-0.91-1.83-1.82-2.74-2.74c-2.12-2.15-2.44-4.08-1.1-6.67c1.54-2.99,2.88-6.2,3.97-9.55
	c0.88-2.69,2.4-3.8,5.27-3.83c0.77-0.01,1.54-0.01,2.31-0.01l3.53,0.01c0.7,0,1.41,0,2.11-0.01c1.92-0.02,2.47-0.59,2.49-2.53
	l0.01-0.53c0.01-0.98,0.02-1.96-0.01-2.94c-0.03-1.11,0.12-2.65,1.82-3.24c0.31-0.11,0.62-0.16,0.91-0.16
	c1.21,0,1.96,0.89,2.49,1.66c0.06,0.09,0.09,0.19,0.09,0.3v7.26c0,0.07-0.01,0.13-0.04,0.19c-1.41,3.64-4.08,5.41-8.15,5.41
	c-0.32,0-0.65-0.01-0.99-0.03c-0.66-0.04-1.32-0.06-1.99-0.06c-0.5,0-1,0.01-1.5,0.01c-0.5,0.01-1.01,0.01-1.51,0.01
	c-0.37,0-0.75,0-1.12-0.01c0,0-0.01,0-0.01,0c-0.5,0-0.66,0.09-0.82,0.63c-0.97,3.27-2.3,6.46-3.94,9.47
	c-0.27,0.49-0.23,0.67,0.24,1.13c1.62,1.57,3.36,3.31,5.34,5.33c3.33,3.4,3.32,7.45-0.03,10.84c-4.22,4.26-8.63,8.67-13.12,13.12
	c-1.66,1.65-3.54,2.52-5.42,2.52c-1.91,0-3.82-0.89-5.52-2.57l-0.37-0.37c-1.64-1.62-3.33-3.29-4.95-4.98
	c-0.27-0.29-0.42-0.32-0.52-0.32c-0.12,0-0.29,0.06-0.51,0.18c-3.07,1.67-6.26,3-9.48,3.93c-0.54,0.16-0.64,0.32-0.63,0.98
	c0.02,0.81,0.01,1.63-0.01,2.44c-0.02,1.16-0.03,2.36,0.04,3.53c0.31,4.63-1.45,7.62-5.38,9.14c-0.06,0.02-0.13,0.04-0.19,0.04
	H88.55z"/>
<path class="st0" d="M169.42,97.77c-0.29,0-0.6-0.05-0.91-0.16c-1.7-0.59-1.86-2.13-1.82-3.24c0.03-1.15,0.02-2.31,0-3.6
	c-0.02-1.76-0.62-2.37-2.34-2.39c-0.9-0.01-1.81-0.02-2.71-0.02l-3.66,0.01l-1.57-0.01c-3.03-0.02-4.57-1.13-5.47-3.95
	c-1.02-3.19-2.34-6.36-3.91-9.42c-1.34-2.61-1.03-4.54,1.07-6.68c0.95-0.96,1.91-1.92,2.87-2.87c0.89-0.88,1.77-1.76,2.65-2.65
	c1.33-1.35,1.35-2.11,0.06-3.41c-4.36-4.38-8.73-8.75-13.11-13.11c-0.61-0.61-1.14-0.91-1.61-0.91c-0.47,0-0.99,0.29-1.6,0.89
	c-1,0.98-1.99,1.98-2.99,2.97c-0.91,0.92-1.82,1.83-2.74,2.74c-1.26,1.24-2.46,1.82-3.77,1.82c-0.86,0-1.78-0.26-2.79-0.78
	c-3.04-1.57-6.26-2.9-9.55-3.97c-2.72-0.88-3.85-2.44-3.87-5.38c-0.01-1.56-0.01-3.12-0.01-4.69l0-2.71c0-2.51-0.44-2.95-2.89-2.96
	l-1.95-0.01c-0.41,0-0.83,0-1.24,0.01l-0.28,0c-1.08,0-2.4-0.2-3-1.73c-0.69-1.75,0.6-2.86,1.29-3.45c0.1-0.08,0.22-0.13,0.35-0.13
	h7.54c0.07,0,0.13,0.01,0.19,0.04c3.92,1.52,5.68,4.51,5.38,9.14c-0.07,1.07-0.05,2.18-0.04,3.24c0.01,0.9,0.03,1.82-0.01,2.73
	c-0.03,0.62,0.12,0.81,0.78,1.01c3.25,0.97,6.39,2.28,9.34,3.89c0.22,0.12,0.39,0.18,0.51,0.18l0,0c0.1,0,0.24-0.04,0.52-0.33
	c1.84-1.92,3.7-3.75,5.43-5.45c1.66-1.62,3.53-2.48,5.4-2.48c1.89,0,3.77,0.87,5.43,2.52c4.35,4.31,8.76,8.73,13.12,13.12
	c3.35,3.38,3.37,7.43,0.04,10.84c-1.71,1.75-3.56,3.62-5.44,5.43c-0.39,0.37-0.41,0.54-0.15,1.03c1.68,3.11,3.01,6.29,3.93,9.48
	c0.16,0.55,0.34,0.63,0.89,0.63c0.39-0.01,0.69-0.01,0.99-0.01c0.52,0,1.03,0.01,1.54,0.02c0.51,0.01,1.02,0.01,1.53,0.01
	c0.67,0,1.34-0.01,2-0.06c0.34-0.02,0.67-0.03,1-0.03c4.06,0,6.73,1.77,8.14,5.41c0.02,0.06,0.04,0.13,0.04,0.19v7.26
	c0,0.11-0.03,0.21-0.09,0.3C171.38,96.89,170.63,97.77,169.42,97.77z"/>
<path class="st0" d="M140.78,99.88c-0.09,21.9-17.21,40.65-40.59,40.85c-22.04,0.18-40.79-17.28-40.93-40.6
	C59.13,78.03,76.67,59.45,99.8,59.26C121.72,59.09,140.42,76.47,140.78,99.88z M136.56,100.23c-0.03-2.86-0.31-5.69-1.01-8.47
	c-6.09-24.46-31.7-34.57-52.02-24.38c-13.55,6.79-21.26,21.08-19.9,36.43c0.6,6.75,3.15,12.8,7.24,18.2c0.28,0.37,0.48,0.7,1.1,0.41
	c5.63-2.61,11.52-4.55,17.26-6.89c1.74-0.71,2.16-3.17,0.75-4.48c-2.17-2.01-3.74-4.41-4.43-7.31c-0.21-0.88-0.57-1.33-1.54-1.61
	c-3.91-1.13-6.12-5.58-4.36-9.1c0.85-1.71,1.02-3.36,0.99-5.14c-0.02-0.92,0-1.84,0.02-2.76c0.27-9.35,7.06-16.87,16.65-18.43
	c8.47-1.38,17.34,3.95,20.52,12.26c1.36,3.54,1.27,7.2,1.24,10.88c-0.01,0.69,0.05,1.32,0.44,1.96c2.5,4.16,0.56,9.04-4.12,10.43
	c-0.51,0.15-0.92,0.27-1.06,0.9c-0.68,3.1-2.24,5.67-4.55,7.85c-1.28,1.21-0.61,3.92,1,4.57c5.74,2.34,11.63,4.27,17.26,6.88
	c0.62,0.29,0.82-0.05,1.1-0.42C133.99,115.56,136.5,108.31,136.56,100.23z M99.84,136.38c1.61-0.07,3.21-0.08,4.81-0.3
	c7.59-1.04,14.21-4.11,19.89-9.25c0.79-0.71,0.82-1.02-0.25-1.42c-3.99-1.5-7.97-3.04-11.92-4.64c-0.85-0.34-1.32-0.11-1.91,0.47
	c-6.43,6.39-14.81,6.4-21.22,0.02c-0.63-0.63-1.12-0.68-1.9-0.37c-3.78,1.53-7.57,3.04-11.39,4.48c-1.2,0.45-1.14,0.78-0.27,1.57
	C82.52,133.22,90.64,136.18,99.84,136.38z M110.42,95.59c0-1.16-0.13-2.01,0.02-2.81c0.5-2.67-0.7-4.55-2.58-6.22
	c-0.5-0.44-0.82-0.53-1.4-0.19c-4.97,2.92-10.37,4.38-16.12,4.52c-0.88,0.02-1.07,0.38-1.06,1.17c0.04,2.8-0.04,5.61,0.04,8.41
	c0.14,5.2,3.99,9.08,9.7,9.87c4.52,0.62,9.37-2.53,10.82-7C110.71,100.69,110.32,97.96,110.42,95.59z M99.89,121.48
	c2.19,0.11,4.11-0.67,5.87-1.93c0.72-0.52,1.31-0.96,0.23-1.8c-0.83-0.65-1.05-1.72-1.05-2.74c0-0.86-0.31-1.02-1.07-0.8
	c-2.56,0.75-5.16,0.74-7.73,0.08c-0.84-0.21-1.03,0.01-1.09,0.8c-0.09,1.16-0.41,2.3-1.4,3.03c-0.81,0.59-0.4,0.91,0.12,1.3
	C95.58,120.79,97.59,121.57,99.89,121.48z"/>
</svg>
