<?xml version="1.0" encoding="utf-8"?>
<!-- Generator: Adobe Illustrator 24.0.2, SVG Export Plug-In . SVG Version: 6.00 Build 0)  -->
<svg version="1.1" xmlns="http://www.w3.org/2000/svg" xmlns:xlink="http://www.w3.org/1999/xlink" x="0px" y="0px"
	 viewBox="0 0 800 800" style="enable-background:new 0 0 800 800;" xml:space="preserve">
<style type="text/css">
	.st0{fill:none;stroke:#2BB673;stroke-miterlimit:10;}
	.st1{fill:#FFFFFF;}
</style>
<g id="Layer_1">
</g>
<g id="Layer_2">
	<g>
		<polygon class="st1" points="351.9,514.8 311.2,514.8 177.7,166.3 238.3,166.3 351.9,439.6 465.4,166.3 526.1,166.3 392.6,514.8 
					"/>
		<polygon class="st1" points="232.7,514.8 192,514.8 58.5,166.3 119.2,166.3 232.7,439.6 346.2,166.3 406.9,166.3 273.4,514.8 		
			"/>
		<g>
			<polygon class="st1" points="198.9,504.8 73,176.3 112.5,176.3 232.7,465.7 352.9,176.3 392.4,176.3 266.5,504.8 			"/>
		</g>
		<path class="st1" d="M649.1,307.7H511.1l-24.8,64.7h168.1c17.8,0,32.3,17.3,32.3,38.6c0,21.3-14.5,38.6-32.3,38.6H456.7l-25,65.3
			h205.9c57.4,0,103.9-46.5,103.9-103.9v0C741.5,357.4,701.1,313.4,649.1,307.7z"/>
		<g>
			<path class="st1" d="M188.5,586.8c-1.2,5.8-2.6,11.7-4.2,17.9l-7,27.8H166l-19.7-62h12.1l7.5,24.7c2.3,7.8,4.1,14.8,5.5,21h0.3
				c1.4-6.7,2.9-13.6,4.7-20.7l6.4-25h11.7l6.4,25c1.8,7,3.4,13.9,4.7,20.7h0.3c1.7-7.4,3.5-14.4,5.5-21l7.5-24.7h12.1l-19.7,62
				h-11.3l-7-27.8c-1.6-6.3-3-12.2-4.2-17.9H188.5z"/>
			<path class="st1" d="M308.8,616.7h-23.4l-6.1,15.8h-12.1l24.6-62h10.4l24.6,62h-12L308.8,616.7z M297,585.5
				c-2.2,6.5-4.1,11.9-5.8,16.3l-2.1,5.5h16l-2.1-5.5c-1.7-4.4-3.6-9.8-5.8-16.3H297z"/>
			<path class="st1" d="M418.6,587c0,2.7-0.6,5.2-1.8,7.4c-1.2,2.2-3.2,4.1-6,5.6v0.2c1.5,0.5,3,1.2,4.2,2c1.3,0.8,2.4,1.8,3.3,2.9
				c0.9,1.1,1.6,2.4,2.1,3.8s0.8,3,0.8,4.8c0,1.5-0.2,3.1-0.7,4.9c-0.5,1.7-1.3,3.4-2.5,5c-1.2,1.6-2.8,3.1-4.8,4.5
				c-2,1.4-4.5,2.4-7.6,3.2c-0.8,0.2-1.6,0.4-2.5,0.5c-0.9,0.2-1.9,0.3-3,0.4c-1.1,0.1-2.3,0.2-3.7,0.2c-1.4,0-2.9,0.1-4.6,0.1h-18
				v-62h21.6c4.6,0,8.3,0.5,11.1,1.4c2.1,0.7,3.9,1.6,5.5,2.7s2.8,2.3,3.8,3.7c1,1.3,1.7,2.8,2.2,4.3
				C418.3,584,418.6,585.5,418.6,587z M395.3,596.1c3.1,0,5.4-0.3,6.9-0.9c1.7-0.7,2.9-1.7,3.6-2.9c0.7-1.3,1.1-2.7,1.1-4.2
				c0-1.6-0.4-3.1-1.3-4.4c-0.8-1.3-2.3-2.2-4.3-2.9c-0.8-0.2-1.8-0.4-2.9-0.5s-2.5-0.2-4.1-0.2H385v16H395.3z M385,605.6v17.5h7.4
				c2,0,3.7-0.1,5.1-0.2c1.4-0.1,2.6-0.3,3.7-0.5c1.6-0.3,2.9-0.8,3.9-1.4s1.9-1.2,2.5-1.9c0.6-0.7,1.1-1.5,1.4-2.4
				c0.3-0.9,0.4-1.8,0.4-2.8c0-1.7-0.5-3.2-1.4-4.5c-1-1.3-2.5-2.3-4.5-2.9c-0.9-0.3-1.9-0.5-3.2-0.6s-2.8-0.2-4.6-0.2H385z"/>
			<path class="st1" d="M528.4,601.5c0,4.7-0.7,9.1-2,13c-1.3,3.9-3.3,7.3-5.9,10.2c-2.6,2.8-5.7,5.1-9.5,6.6s-8,2.4-12.8,2.4
				s-9.1-0.8-12.8-2.4c-3.8-1.6-6.9-3.8-9.5-6.6c-2.6-2.8-4.5-6.2-5.9-10.2c-1.3-3.9-2-8.3-2-13c0-4.7,0.7-9.1,2-13
				s3.3-7.3,5.9-10.2c2.6-2.8,5.7-5.1,9.5-6.6c3.8-1.6,8-2.4,12.8-2.4s9.1,0.8,12.8,2.4s6.9,3.8,9.5,6.6c2.6,2.8,4.5,6.2,5.9,10.2
				C527.8,592.5,528.4,596.8,528.4,601.5z M516.7,601.5c0-3.8-0.5-7.1-1.4-9.9c-0.9-2.8-2.2-5.2-3.8-7.1c-1.6-1.9-3.6-3.3-5.8-4.2
				c-2.3-0.9-4.7-1.4-7.4-1.4s-5.2,0.5-7.4,1.4c-2.3,0.9-4.2,2.3-5.8,4.2c-1.6,1.9-2.9,4.2-3.8,7.1c-0.9,2.8-1.4,6.1-1.4,9.9
				c0,3.8,0.5,7.1,1.4,9.9s2.2,5.2,3.8,7c1.6,1.9,3.6,3.3,5.8,4.2c2.3,0.9,4.7,1.4,7.4,1.4s5.2-0.5,7.4-1.4c2.3-0.9,4.2-2.3,5.8-4.2
				c1.6-1.9,2.9-4.2,3.8-7C516.3,608.6,516.7,605.3,516.7,601.5z"/>
			<path class="st1" d="M609,614.8c0-1.6-0.4-2.9-1.2-3.8s-1.8-1.8-3.2-2.4s-2.8-1.1-4.5-1.5s-3.4-0.8-5.2-1.1
				c-2.4-0.5-4.7-1.2-6.9-1.9c-2.2-0.7-4.1-1.7-5.8-3s-3-2.9-4-4.9s-1.5-4.5-1.5-7.4c0-3.3,0.6-6.1,1.7-8.6c1.1-2.4,2.7-4.4,4.7-6
				c2-1.6,4.3-2.8,6.9-3.6c2.6-0.8,5.6-1.2,8.9-1.2s6.6,0.3,10,1c3.3,0.6,6.2,1.5,8.6,2.5v9.7c-3.2-1.3-6.3-2.2-9.2-2.8
				c-3-0.6-5.7-0.9-8.3-0.9c-3.7,0-6.6,0.7-8.6,2c-2,1.4-3,3.4-3,6.1c0,1.6,0.3,2.9,1,3.9s1.6,1.9,2.7,2.5c1.1,0.7,2.5,1.2,3.9,1.6
				s3.1,0.8,4.7,1.1c2.6,0.6,5.1,1.2,7.5,1.9c2.4,0.7,4.5,1.7,6.4,3c1.9,1.3,3.3,3,4.4,5.1c1.1,2.1,1.6,4.8,1.6,8
				c0,3.3-0.6,6.2-1.9,8.7c-1.2,2.4-3,4.5-5.3,6c-2.3,1.6-5,2.8-8.3,3.5s-6.8,1.2-10.7,1.2c-3.4,0-6.7-0.3-9.9-1
				c-3.3-0.7-6-1.6-8.1-2.8v-9.6c3.1,1.3,6,2.3,8.9,2.9s5.9,0.9,9,0.9c1.8,0,3.6-0.1,5.3-0.4c1.7-0.3,3.3-0.8,4.7-1.5
				c1.4-0.7,2.5-1.7,3.3-2.9C608.6,618.1,609,616.5,609,614.8z"/>
			<path class="st1" d="M701.8,614.8c0-1.6-0.4-2.9-1.2-3.8c-0.8-1-1.8-1.8-3.2-2.4c-1.3-0.6-2.8-1.1-4.5-1.5s-3.4-0.8-5.2-1.1
				c-2.4-0.5-4.7-1.2-6.9-1.9c-2.2-0.7-4.1-1.7-5.8-3s-3-2.9-4-4.9s-1.5-4.5-1.5-7.4c0-3.3,0.6-6.1,1.7-8.6c1.1-2.4,2.7-4.4,4.7-6
				s4.3-2.8,6.9-3.6c2.6-0.8,5.6-1.2,8.9-1.2s6.6,0.3,10,1c3.3,0.6,6.2,1.5,8.6,2.5v9.7c-3.2-1.3-6.3-2.2-9.2-2.8
				c-3-0.6-5.7-0.9-8.3-0.9c-3.7,0-6.6,0.7-8.6,2c-2,1.4-3,3.4-3,6.1c0,1.6,0.3,2.9,1,3.9c0.7,1,1.6,1.9,2.7,2.5
				c1.1,0.7,2.5,1.2,3.9,1.6s3.1,0.8,4.7,1.1c2.6,0.6,5.1,1.2,7.5,1.9c2.4,0.7,4.5,1.7,6.4,3s3.3,3,4.4,5.1s1.6,4.8,1.6,8
				c0,3.3-0.6,6.2-1.9,8.7c-1.2,2.4-3,4.5-5.3,6c-2.3,1.6-5,2.8-8.3,3.5c-3.2,0.8-6.8,1.2-10.7,1.2c-3.4,0-6.7-0.3-9.9-1
				c-3.3-0.7-6-1.6-8.1-2.8v-9.6c3.1,1.3,6,2.3,8.9,2.9s5.9,0.9,9,0.9c1.8,0,3.6-0.1,5.3-0.4c1.7-0.3,3.3-0.8,4.7-1.5
				s2.5-1.7,3.3-2.9C701.3,618.1,701.8,616.5,701.8,614.8z"/>
		</g>
		<path class="st1" d="M652.7,166.3h-87.5l-24.9,64.9h112.4c17.7,0,32.1,17.2,32.1,38.3s-14.4,38.3-32.1,38.3H511l-24.9,64.9h166.6
			c47.8,0,86.6-46.2,86.6-103.2v0C739.3,212.5,700.5,166.3,652.7,166.3z"/>
	</g>
</g>
</svg>
