<?xml version="1.0" encoding="utf-8"?>
<!-- Generator: Adobe Illustrator 24.0.2, SVG Export Plug-In . SVG Version: 6.00 Build 0)  -->
<svg version="1.1" id="Layer_1" xmlns="http://www.w3.org/2000/svg" xmlns:xlink="http://www.w3.org/1999/xlink" x="0px" y="0px"
	 viewBox="0 0 200 200" style="enable-background:new 0 0 200 200;" xml:space="preserve">
<style type="text/css">
	.st0{fill:#009934;}
</style>
<path class="st0" d="M184.65,0H15.35C6.87,0,0,6.87,0,15.35v169.3C0,193.13,6.87,200,15.35,200h169.3c8.48,0,15.35-6.87,15.35-15.35
	V15.35C200,6.87,193.13,0,184.65,0z M196,184.65c0,6.26-5.09,11.35-11.35,11.35H15.35C9.09,196,4,190.91,4,184.65V15.35
	C4,9.09,9.09,4,15.35,4h169.3C190.91,4,196,9.09,196,15.35V184.65z"/>
<g>
	<path class="st0" d="M157.02,33.12c1.77,0.71,3.51,1.44,4.88,2.86c2.04,2.11,3.07,4.64,3.07,7.54c0.03,11.38,0.04,22.76,0,34.15
		c-0.02,6.03-4.57,10.55-10.61,10.6c-6.4,0.05-12.8,0.05-19.2-0.01c-1.41-0.01-1.73,0.45-1.85,1.82c-0.23,2.52,0.58,4.16,2.75,5.54
		c3,1.91,5.7,4.29,8.64,6.3c7.77,5.31,10.08,12.71,8.43,21.62c-2.07,11.18-4.23,22.34-6.39,33.5c-0.18,0.92-0.05,1.41,0.8,1.88
		c2.07,1.13,3.03,3.01,3.06,5.32c0.05,4.35,0.08,8.7,0,13.04c-0.07,3.61-2.59,6-6.19,6.02c-4.64,0.02-9.28,0.01-13.92,0
		c-1.78,0-2.82-0.84-2.85-2.24c-0.04-1.46,1.03-2.35,2.88-2.36c4.3-0.01,8.6,0,12.9-0.01c2.08,0,2.41-0.32,2.41-2.35
		c0.01-3.81,0.01-7.62,0-11.43c-0.01-1.8-0.34-2.13-2.16-2.13c-12.51-0.01-25.01-0.01-37.52,0c-1.86,0-2.32,0.46-2.33,2.35
		c-0.02,3.71-0.02,7.43,0,11.14c0.01,1.98,0.47,2.42,2.42,2.42c4.45,0.01,8.89,0.01,13.34,0c1.02,0,1.81,0.34,2.3,1.26
		c0.44,0.81,0.35,1.6-0.16,2.35c-0.45,0.65-1.07,0.98-1.86,0.98c-5.13,0-10.26,0.07-15.39-0.04c-2.75-0.05-5.19-2.6-5.23-5.38
		c-0.08-4.74-0.05-9.48-0.01-14.21c0.01-1.84,0.96-3.25,2.37-4.35c0.49-0.39,0.76-0.66,0.18-1.24c-4.77-4.81-6.33-10.97-7.23-17.39
		c-0.13-0.92-0.3-1.85-0.26-2.76c0.06-1.35-0.58-1.62-1.78-1.61c-7.23,0.04-14.46,0.02-21.69,0.02c-4.55,0-6.44-1.89-6.45-6.39
		c0-5.08,0-10.16,0-15.24c0-0.44-0.01-0.88,0.02-1.32c0.13-1.65,1.02-2.63,2.38-2.63c1.41,0,2.38,1.04,2.39,2.76
		c0.03,5.47,0.04,10.94,0,16.41c-0.01,1.15,0.27,1.65,1.55,1.65c13.19-0.04,26.38-0.02,39.57-0.03c0.14,0,0.29-0.03,0.55-0.05
		c-0.23-0.6-0.75-0.89-1.14-1.26c-1.25-1.17-2.58-2.28-3.36-3.84c-0.46-0.93-1.11-1.21-2.1-1.2c-5.52,0.03-11.04,0.02-16.56,0.01
		c-0.73,0-1.46-0.07-2.19-0.15c-1.4-0.17-2.15-0.99-2.4-2.36c-0.6-3.26-1.81-4.49-4.98-5.04c-1.51-0.26-2.34-1.14-2.53-2.62
		c-0.08-0.68-0.07-1.36-0.07-2.05c0-15.93,0-31.85,0-47.78c0-2.14,0-2.14-2.08-2.15c-4.26-0.02-4.26-0.02-4.26,4.2
		c0,11.48,0,22.96,0,34.44c0,2.36-0.78,3.56-2.32,3.58c-1.61,0.02-2.48-1.23-2.48-3.62c-0.01-3.61,0-7.23,0-10.84
		c0-2.5,0-2.5-2.57-2.5c-5.08,0-10.16,0.01-15.24,0c-6.8-0.01-11.2-4.41-11.21-11.2c-0.01-10.55,0.11-21.11-0.05-31.65
		c-0.09-6.04,2.13-10.29,8.01-12.3C81.2,33.12,119.11,33.12,157.02,33.12z M133.56,99.52c-0.11,0.45-0.18,0.58-0.18,0.72
		c-0.01,6.3,0,12.6-0.02,18.9c0,0.77,0.35,1.28,0.88,1.75c0.99,0.87,1.98,1.74,2.92,2.67c0.74,0.73,0.8,1.66,0.41,2.58
		c-0.35,0.84-1.07,1.27-1.95,1.34c-0.9,0.08-1.55-0.47-2.18-1.03c-4.19-3.73-8.36-7.5-12.61-11.17c-2.19-1.89-4.76-2.2-7.39-0.97
		c-2.64,1.23-3.92,3.38-3.93,6.32c0,2.16,0.87,3.86,2.44,5.27c2.98,2.67,5.98,5.33,8.94,8.02c2.19,1.99,3.67,4.42,4.41,7.29
		c0.33,1.28,0.04,2.35-1.19,2.99c-1.33,0.68-2.79-0.01-3.29-1.64c-0.65-2.11-1.73-3.91-3.35-5.41c-0.61-0.57-1.26-0.84-2.1-0.84
		c-4.93,0.02-9.87,0.04-14.8-0.01c-1.23-0.01-1.64,0.43-1.56,1.64c0.29,4.32,1.07,8.54,2.99,12.45c2.21,4.51,5.6,7.55,10.91,7.59
		c9.13,0.07,18.26,0.02,27.4,0.04c1.08,0,1.53-0.41,1.73-1.49c1.61-8.58,3.29-17.15,4.91-25.73c0.87-4.59,2.09-9.14,1.82-13.89
		c-0.18-3.27-1.27-6.13-3.62-8.4C141.67,105.14,137.48,102.68,133.56,99.52z M100.2,37.62c-17.88,0-35.76-0.01-53.63,0
		c-4.23,0-6.44,2.2-6.44,6.39c-0.01,4.64,0,9.28,0,13.92c0,6.64-0.02,13.29,0.02,19.93c0.02,2.92,2.07,5.45,4.82,5.52
		c6.1,0.15,12.21,0.06,18.32,0.08c0.73,0,1.07-0.33,1.07-1.06c-0.01-1.17-0.06-2.35,0.02-3.52c0.1-1.32-0.36-1.81-1.73-1.78
		c-3.81,0.08-7.62,0.04-11.43,0.02c-3.31-0.01-4.74-1.43-4.74-4.74c-0.01-7.86-0.01-15.73,0-23.59c0-3.31,1.33-4.65,4.6-4.65
		c32.73,0,65.45,0,98.18,0c3.26,0,4.61,1.35,4.61,4.64c0.01,7.82,0.01,15.63,0,23.45c0,3.5-1.39,4.89-4.88,4.9
		c-4.69,0.01-9.38,0.03-14.07-0.01c-1.11-0.01-1.63,0.31-1.54,1.49c0.08,1.17,0.06,2.35,0,3.52c-0.05,1.04,0.39,1.36,1.38,1.35
		c6.64-0.03,13.29,0.01,19.93-0.03c3.13-0.02,5.49-2.36,5.5-5.49c0.03-11.63,0.01-23.25,0.01-34.88c0-1.33-0.47-2.49-1.34-3.48
		c-1.4-1.61-3.26-2-5.3-2C135.76,37.62,117.98,37.62,100.2,37.62z M80.29,88.06c0,7.86,0.01,15.73-0.01,23.59
		c0,0.99,0.23,1.59,1.26,1.99c2.69,1.03,4.56,2.97,5.57,5.68c0.31,0.83,0.77,1.09,1.63,1.09c4.88-0.03,9.77-0.04,14.65,0
		c0.99,0.01,1.31-0.34,1.44-1.32c0.8-5.8,5.34-9.94,11.14-10.09c1.47-0.04,1.52-0.77,1.52-1.85c-0.01-14.06-0.01-28.13-0.01-42.19
		c0-1.83-0.08-1.91-1.9-1.91c-11.13,0-22.27,0.02-33.4-0.03c-1.49-0.01-1.92,0.45-1.9,1.93C80.32,72.63,80.29,80.34,80.29,88.06z
		 M100.15,58.23c8.7,0,17.39,0,26.09,0c7.03,0,14.07-0.03,21.1,0.03c1.38,0.01,1.79-0.45,1.73-1.77c-0.09-1.85-0.02-3.71-0.02-5.57
		c0-2.17,0-2.17-2.15-2.17c-31.17,0-62.33,0-93.5,0c-0.29,0-0.59,0.03-0.88,0c-0.97-0.09-1.29,0.38-1.27,1.3
		c0.03,2.05,0.01,4.1,0.01,6.15c0,2.02,0,2.03,2,2.03C68.89,58.23,84.52,58.23,100.15,58.23z M128.6,115.71c0-0.91,0-1.39,0-1.87
		c0-16.2,0-32.4,0-48.61c0-0.24-0.02-0.49,0-0.73c0.08-1.04-0.35-1.54-1.44-1.5c-1.17,0.05-2.34,0.05-3.51,0
		c-1.09-0.05-1.43,0.41-1.43,1.47c0.02,14.93,0.02,29.87,0.02,44.8c0,0.48-0.06,1,0.36,1.36
		C124.48,112.24,126.38,113.83,128.6,115.71z M141.18,72.33c2.2,0,4.39-0.03,6.59,0.01c0.95,0.02,1.3-0.37,1.29-1.3
		c-0.04-2.24-0.03-4.49,0-6.73c0.01-0.95-0.4-1.3-1.32-1.29c-4.34,0.02-8.69,0.02-13.03,0c-1.02-0.01-1.37,0.41-1.35,1.4
		c0.05,2.19,0.05,4.39,0,6.59c-0.03,1.04,0.4,1.37,1.39,1.35C136.89,72.3,139.03,72.33,141.18,72.33z M57.74,72.33
		c1.76,0,3.52-0.03,5.28,0.01c0.91,0.02,1.35-0.3,1.33-1.26c-0.04-2.25-0.03-4.49,0-6.74c0.01-0.93-0.36-1.33-1.3-1.32
		c-3.52,0.02-7.03,0.02-10.55,0c-0.84,0-1.26,0.32-1.25,1.21c0.02,2.3,0.02,4.59,0,6.89c-0.01,0.87,0.34,1.24,1.22,1.22
		C54.23,72.31,55.99,72.33,57.74,72.33z"/>
	<path class="st0" d="M98.91,73.18c7.32,0,13.08,5.8,13.06,13.14c-0.02,7.14-6,13.12-13.09,13.07c-7.12-0.05-13.12-6.03-13.14-13.1
		C85.72,79.08,91.65,73.17,98.91,73.18z M90.55,86.11c-0.03,4.73,3.58,8.46,8.22,8.49c4.69,0.03,8.42-3.58,8.5-8.23
		c0.08-4.67-3.71-8.53-8.39-8.55C94.37,77.8,90.57,81.58,90.55,86.11z"/>
</g>
</svg>
